<svg xmlns="http://www.w3.org/2000/svg" xmlns:xlink="http://www.w3.org/1999/xlink" contentStyleType="text/css" data-diagram-type="CLASS" height="1181px" preserveAspectRatio="none" style="width:1238px;height:1181px;background:#FFFFFF;" version="1.1" viewBox="0 0 1238 1181" width="1238px" zoomAndPan="magnify"><defs/><g><!--cluster ch--><g class="cluster" data-entity="ch" data-source-line="6" data-uid="ent0003" id="cluster_ch"><path d="M8.5,6 L27.7656,6 A3.75,3.75 0 0 1 30.2656,8.5 L37.2656,28.2969 L1228.51,28.2969 A2.5,2.5 0 0 1 1231.01,30.7969 L1231.01,1171.5 A2.5,2.5 0 0 1 1228.51,1174 L8.5,1174 A2.5,2.5 0 0 1 6,1171.5 L6,8.5 A2.5,2.5 0 0 1 8.5,6" fill="none" style="stroke:#000000;stroke-width:1.5;"/><line style="stroke:#000000;stroke-width:1.5;" x1="6" x2="37.2656" y1="28.2969" y2="28.2969"/><text fill="#000000" font-family="sans-serif" font-size="14" font-weight="bold" lengthAdjust="spacing" textLength="18.2656" x="10" y="20.9951">ch</text></g><!--cluster admin--><g class="cluster" data-entity="admin" data-source-line="6" data-uid="ent0004" id="cluster_admin"><path d="M32.5,49 L82.3223,49 A3.75,3.75 0 0 1 84.8223,51.5 L91.8223,71.2969 L1204.51,71.2969 A2.5,2.5 0 0 1 1207.01,73.7969 L1207.01,1147.5 A2.5,2.5 0 0 1 1204.51,1150 L32.5,1150 A2.5,2.5 0 0 1 30,1147.5 L30,51.5 A2.5,2.5 0 0 1 32.5,49" fill="none" style="stroke:#000000;stroke-width:1.5;"/><line style="stroke:#000000;stroke-width:1.5;" x1="30" x2="91.8223" y1="71.2969" y2="71.2969"/><text fill="#000000" font-family="sans-serif" font-size="14" font-weight="bold" lengthAdjust="spacing" textLength="48.8223" x="34" y="63.9951">admin</text></g><!--cluster bj--><g class="cluster" data-entity="bj" data-source-line="6" data-uid="ent0005" id="cluster_bj"><path d="M56.5,92 L72.3203,92 A3.75,3.75 0 0 1 74.8203,94.5 L81.8203,114.2969 L1180.51,114.2969 A2.5,2.5 0 0 1 1183.01,116.7969 L1183.01,1123.5 A2.5,2.5 0 0 1 1180.51,1126 L56.5,1126 A2.5,2.5 0 0 1 54,1123.5 L54,94.5 A2.5,2.5 0 0 1 56.5,92" fill="none" style="stroke:#000000;stroke-width:1.5;"/><line style="stroke:#000000;stroke-width:1.5;" x1="54" x2="81.8203" y1="114.2969" y2="114.2969"/><text fill="#000000" font-family="sans-serif" font-size="14" font-weight="bold" lengthAdjust="spacing" textLength="14.8203" x="58" y="106.9951">bj</text></g><!--cluster swiyu--><g class="cluster" data-entity="swiyu" data-source-line="6" data-uid="ent0006" id="cluster_swiyu"><path d="M80.5,135 L126.6582,135 A3.75,3.75 0 0 1 129.1582,137.5 L136.1582,157.2969 L1156.51,157.2969 A2.5,2.5 0 0 1 1159.01,159.7969 L1159.01,1099.5 A2.5,2.5 0 0 1 1156.51,1102 L80.5,1102 A2.5,2.5 0 0 1 78,1099.5 L78,137.5 A2.5,2.5 0 0 1 80.5,135" fill="none" style="stroke:#000000;stroke-width:1.5;"/><line style="stroke:#000000;stroke-width:1.5;" x1="78" x2="136.1582" y1="157.2969" y2="157.2969"/><text fill="#000000" font-family="sans-serif" font-size="14" font-weight="bold" lengthAdjust="spacing" textLength="45.1582" x="82" y="149.9951">swiyu</text></g><!--cluster didtoolbox--><g class="cluster" data-entity="didtoolbox" data-source-line="6" data-uid="ent0007" id="cluster_didtoolbox"><path d="M104.5,178 L189.7393,178 A3.75,3.75 0 0 1 192.2393,180.5 L199.2393,200.2969 L1132.51,200.2969 A2.5,2.5 0 0 1 1135.01,202.7969 L1135.01,1075.5 A2.5,2.5 0 0 1 1132.51,1078 L104.5,1078 A2.5,2.5 0 0 1 102,1075.5 L102,180.5 A2.5,2.5 0 0 1 104.5,178" fill="none" style="stroke:#000000;stroke-width:1.5;"/><line style="stroke:#000000;stroke-width:1.5;" x1="102" x2="199.2393" y1="200.2969" y2="200.2969"/><text fill="#000000" font-family="sans-serif" font-size="14" font-weight="bold" lengthAdjust="spacing" textLength="84.2393" x="106" y="192.9951">didtoolbox</text></g><!--cluster context--><g class="cluster" data-entity="context" data-source-line="24" data-uid="ent0010" id="cluster_context"><path d="M128.5,435 L189.2939,435 A3.75,3.75 0 0 1 191.7939,437.5 L198.7939,457.2969 L1107.67,457.2969 A2.5,2.5 0 0 1 1110.17,459.7969 L1110.17,1051.5 A2.5,2.5 0 0 1 1107.67,1054 L128.5,1054 A2.5,2.5 0 0 1 126,1051.5 L126,437.5 A2.5,2.5 0 0 1 128.5,435" fill="none" style="stroke:#000000;stroke-width:1.5;"/><line style="stroke:#000000;stroke-width:1.5;" x1="126" x2="198.7939" y1="457.2969" y2="457.2969"/><text fill="#000000" font-family="sans-serif" font-size="14" font-weight="bold" lengthAdjust="spacing" textLength="59.7939" x="130" y="449.9951">context</text></g><!--cluster model--><g class="cluster" data-entity="model" data-source-line="109" data-uid="ent0023" id="cluster_model"><path d="M860.69,328 L910.2115,328 A3.75,3.75 0 0 1 912.7115,330.5 L919.7115,350.2969 L1035.98,350.2969 A2.5,2.5 0 0 1 1038.48,352.7969 L1038.48,408.5 A2.5,2.5 0 0 1 1035.98,411 L860.69,411 A2.5,2.5 0 0 1 858.19,408.5 L858.19,330.5 A2.5,2.5 0 0 1 860.69,328" fill="none" style="stroke:#000000;stroke-width:1.5;"/><line style="stroke:#000000;stroke-width:1.5;" x1="858.19" x2="919.7115" y1="350.2969" y2="350.2969"/><text fill="#000000" font-family="sans-serif" font-size="14" font-weight="bold" lengthAdjust="spacing" textLength="48.5215" x="862.19" y="342.9951">model</text></g><!--cluster securosys--><g class="cluster" data-entity="securosys" data-source-line="115" data-uid="ent0025" id="cluster_securosys"><path d="M140.72,261 L220.1282,261 A3.75,3.75 0 0 1 222.6282,263.5 L229.6282,283.2969 L604.95,283.2969 A2.5,2.5 0 0 1 607.45,285.7969 L607.45,408.5 A2.5,2.5 0 0 1 604.95,411 L140.72,411 A2.5,2.5 0 0 1 138.22,408.5 L138.22,263.5 A2.5,2.5 0 0 1 140.72,261" fill="none" style="stroke:#000000;stroke-width:1.5;"/><line style="stroke:#000000;stroke-width:1.5;" x1="138.22" x2="229.6282" y1="283.2969" y2="283.2969"/><text fill="#000000" font-family="sans-serif" font-size="14" font-weight="bold" lengthAdjust="spacing" textLength="78.4082" x="142.22" y="275.9951">securosys</text></g><!--cluster primus--><g class="cluster" data-entity="primus" data-source-line="115" data-uid="ent0026" id="cluster_primus"><path d="M164.72,304 L220.3323,304 A3.75,3.75 0 0 1 222.8323,306.5 L229.8323,326.2969 L580.95,326.2969 A2.5,2.5 0 0 1 583.45,328.7969 L583.45,384.5 A2.5,2.5 0 0 1 580.95,387 L164.72,387 A2.5,2.5 0 0 1 162.22,384.5 L162.22,306.5 A2.5,2.5 0 0 1 164.72,304" fill="none" style="stroke:#000000;stroke-width:1.5;"/><line style="stroke:#000000;stroke-width:1.5;" x1="162.22" x2="229.8323" y1="326.2969" y2="326.2969"/><text fill="#000000" font-family="sans-serif" font-size="14" font-weight="bold" lengthAdjust="spacing" textLength="54.6123" x="166.22" y="318.9951">primus</text></g><!--class Ed25519VerificationMethodKeyProviderImpl--><g class="entity" data-entity="Ed25519VerificationMethodKeyProviderImpl" data-source-line="6" data-uid="ent0002" id="entity_Ed25519VerificationMethodKeyProviderImpl"><rect fill="#F1F1F1" height="32" rx="2.5" ry="2.5" style="stroke:#181818;stroke-width:0.5;" width="341.3398" x="777.67" y="280"/><ellipse cx="792.67" cy="296" fill="#ADD1B2" rx="11" ry="11" style="stroke:#181818;stroke-width:1;"/><path d="M795.6388,301.6406 Q795.0606,301.9375 794.42,302.0781 Q793.7794,302.2344 793.0763,302.2344 Q790.5763,302.2344 789.2481,300.5938 Q787.9356,298.9375 787.9356,295.8125 Q787.9356,292.6875 789.2481,291.0313 Q790.5763,289.375 793.0763,289.375 Q793.7794,289.375 794.42,289.5313 Q795.0763,289.6875 795.6388,289.9844 L795.6388,292.7031 Q795.0138,292.125 794.42,291.8594 Q793.8263,291.5781 793.2013,291.5781 Q791.8575,291.5781 791.17,292.6563 Q790.4825,293.7188 790.4825,295.8125 Q790.4825,297.9063 791.17,298.9844 Q791.8575,300.0469 793.2013,300.0469 Q793.8263,300.0469 794.42,299.7813 Q795.0138,299.5 795.6388,298.9219 L795.6388,301.6406 Z " fill="#000000"/><text fill="#000000" font-family="sans-serif" font-size="14" lengthAdjust="spacing" textLength="309.3398" x="806.67" y="300.8467">Ed25519VerificationMethodKeyProviderImpl</text></g><!--class VerificationMethodKeyProvider--><g class="entity" data-entity="VerificationMethodKeyProvider" data-source-line="17" data-uid="ent0008" id="entity_VerificationMethodKeyProvider"><rect fill="#F1F1F1" height="32" rx="2.5" ry="2.5" style="stroke:#181818;stroke-width:0.5;" width="248.5283" x="248.57" y="213"/><ellipse cx="263.57" cy="229" fill="#B4A7E5" rx="11" ry="11" style="stroke:#181818;stroke-width:1;"/><path d="M259.4919,224.7656 L259.4919,222.6094 L266.8825,222.6094 L266.8825,224.7656 L264.4138,224.7656 L264.4138,232.8438 L266.8825,232.8438 L266.8825,235 L259.4919,235 L259.4919,232.8438 L261.9606,232.8438 L261.9606,224.7656 L259.4919,224.7656 Z " fill="#000000"/><text fill="#000000" font-family="sans-serif" font-size="14" font-style="italic" lengthAdjust="spacing" textLength="216.5283" x="277.57" y="233.8467">VerificationMethodKeyProvider</text></g><!--class DidLogCreatorContext--><g class="entity" data-entity="DidLogCreatorContext" data-source-line="24" data-uid="ent0009" id="entity_DidLogCreatorContext"><rect fill="#F1F1F1" height="32" rx="2.5" ry="2.5" style="stroke:#181818;stroke-width:0.5;" width="188.4336" x="278.62" y="805"/><ellipse cx="293.62" cy="821" fill="#ADD1B2" rx="11" ry="11" style="stroke:#181818;stroke-width:1;"/><path d="M296.5888,826.6406 Q296.0106,826.9375 295.37,827.0781 Q294.7294,827.2344 294.0263,827.2344 Q291.5263,827.2344 290.1981,825.5938 Q288.8856,823.9375 288.8856,820.8125 Q288.8856,817.6875 290.1981,816.0313 Q291.5263,814.375 294.0263,814.375 Q294.7294,814.375 295.37,814.5313 Q296.0263,814.6875 296.5888,814.9844 L296.5888,817.7031 Q295.9638,817.125 295.37,816.8594 Q294.7763,816.5781 294.1513,816.5781 Q292.8075,816.5781 292.12,817.6563 Q291.4325,818.7188 291.4325,820.8125 Q291.4325,822.9063 292.12,823.9844 Q292.8075,825.0469 294.1513,825.0469 Q294.7763,825.0469 295.37,824.7813 Q295.9638,824.5 296.5888,823.9219 L296.5888,826.6406 Z " fill="#000000"/><text fill="#000000" font-family="sans-serif" font-size="14" lengthAdjust="spacing" textLength="156.4336" x="307.62" y="825.8467">DidLogCreatorContext</text></g><!--class DidLogCreatorContext$DidLogCreatorContextBuilder--><g class="entity" data-entity="DidLogCreatorContext.DidLogCreatorContextBuilder" data-source-line="29" data-uid="ent0011" id="entity_DidLogCreatorContext.DidLogCreatorContextBuilder"><rect fill="#F1F1F1" height="32" rx="2.5" ry="2.5" style="stroke:#181818;stroke-width:0.5;" width="403.2871" x="171.19" y="738"/><ellipse cx="186.19" cy="754" fill="#ADD1B2" rx="11" ry="11" style="stroke:#181818;stroke-width:1;"/><path d="M189.1588,759.6406 Q188.5806,759.9375 187.94,760.0781 Q187.2994,760.2344 186.5963,760.2344 Q184.0963,760.2344 182.7681,758.5938 Q181.4556,756.9375 181.4556,753.8125 Q181.4556,750.6875 182.7681,749.0313 Q184.0963,747.375 186.5963,747.375 Q187.2994,747.375 187.94,747.5313 Q188.5963,747.6875 189.1588,747.9844 L189.1588,750.7031 Q188.5338,750.125 187.94,749.8594 Q187.3463,749.5781 186.7213,749.5781 Q185.3775,749.5781 184.69,750.6563 Q184.0025,751.7188 184.0025,753.8125 Q184.0025,755.9063 184.69,756.9844 Q185.3775,758.0469 186.7213,758.0469 Q187.3463,758.0469 187.94,757.7813 Q188.5338,757.5 189.1588,756.9219 L189.1588,759.6406 Z " fill="#000000"/><text fill="#000000" font-family="sans-serif" font-size="14" lengthAdjust="spacing" textLength="371.2871" x="200.19" y="758.8467">DidLogCreatorContext$DidLogCreatorContextBuilder</text></g><!--class DidLogCreatorStrategy--><g class="entity" data-entity="DidLogCreatorStrategy" data-source-line="43" data-uid="ent0012" id="entity_DidLogCreatorStrategy"><rect fill="#F1F1F1" height="32" rx="2.5" ry="2.5" style="stroke:#181818;stroke-width:0.5;" width="193.3281" x="276.17" y="1006"/><ellipse cx="291.17" cy="1022" fill="#B4A7E5" rx="11" ry="11" style="stroke:#181818;stroke-width:1;"/><path d="M287.0919,1017.7656 L287.0919,1015.6094 L294.4825,1015.6094 L294.4825,1017.7656 L292.0138,1017.7656 L292.0138,1025.8438 L294.4825,1025.8438 L294.4825,1028 L287.0919,1028 L287.0919,1025.8438 L289.5606,1025.8438 L289.5606,1017.7656 L287.0919,1017.7656 Z " fill="#000000"/><text fill="#000000" font-family="sans-serif" font-size="14" font-style="italic" lengthAdjust="spacing" textLength="161.3281" x="305.17" y="1026.8467">DidLogCreatorStrategy</text></g><!--class DidLogCreatorStrategyException--><g class="entity" data-entity="DidLogCreatorStrategyException" data-source-line="49" data-uid="ent0013" id="entity_DidLogCreatorStrategyException"><rect fill="#F1F1F1" height="32" rx="2.5" ry="2.5" style="stroke:#181818;stroke-width:0.5;" width="262.4736" x="241.6" y="939"/><ellipse cx="256.6" cy="955" fill="#ADD1B2" rx="11" ry="11" style="stroke:#181818;stroke-width:1;"/><path d="M259.5688,960.6406 Q258.9906,960.9375 258.35,961.0781 Q257.7094,961.2344 257.0063,961.2344 Q254.5063,961.2344 253.1781,959.5938 Q251.8656,957.9375 251.8656,954.8125 Q251.8656,951.6875 253.1781,950.0313 Q254.5063,948.375 257.0063,948.375 Q257.7094,948.375 258.35,948.5313 Q259.0063,948.6875 259.5688,948.9844 L259.5688,951.7031 Q258.9438,951.125 258.35,950.8594 Q257.7563,950.5781 257.1313,950.5781 Q255.7875,950.5781 255.1,951.6563 Q254.4125,952.7188 254.4125,954.8125 Q254.4125,956.9063 255.1,957.9844 Q255.7875,959.0469 257.1313,959.0469 Q257.7563,959.0469 258.35,958.7813 Q258.9438,958.5 259.5688,957.9219 L259.5688,960.6406 Z " fill="#000000"/><text fill="#000000" font-family="sans-serif" font-size="14" lengthAdjust="spacing" textLength="230.4736" x="270.6" y="959.8467">DidLogCreatorStrategyException</text></g><!--class DidLogDeactivatorContext--><g class="entity" data-entity="DidLogDeactivatorContext" data-source-line="53" data-uid="ent0014" id="entity_DidLogDeactivatorContext"><rect fill="#F1F1F1" height="32" rx="2.5" ry="2.5" style="stroke:#181818;stroke-width:0.5;" width="217.623" x="264.02" y="671"/><ellipse cx="279.02" cy="687" fill="#ADD1B2" rx="11" ry="11" style="stroke:#181818;stroke-width:1;"/><path d="M281.9888,692.6406 Q281.4106,692.9375 280.77,693.0781 Q280.1294,693.2344 279.4263,693.2344 Q276.9263,693.2344 275.5981,691.5938 Q274.2856,689.9375 274.2856,686.8125 Q274.2856,683.6875 275.5981,682.0313 Q276.9263,680.375 279.4263,680.375 Q280.1294,680.375 280.77,680.5313 Q281.4263,680.6875 281.9888,680.9844 L281.9888,683.7031 Q281.3638,683.125 280.77,682.8594 Q280.1763,682.5781 279.5513,682.5781 Q278.2075,682.5781 277.52,683.6563 Q276.8325,684.7188 276.8325,686.8125 Q276.8325,688.9063 277.52,689.9844 Q278.2075,691.0469 279.5513,691.0469 Q280.1763,691.0469 280.77,690.7813 Q281.3638,690.5 281.9888,689.9219 L281.9888,692.6406 Z " fill="#000000"/><text fill="#000000" font-family="sans-serif" font-size="14" lengthAdjust="spacing" textLength="185.623" x="293.02" y="691.8467">DidLogDeactivatorContext</text></g><!--class DidLogDeactivatorContext$DidLogDeactivatorContextBuilder--><g class="entity" data-entity="DidLogDeactivatorContext.DidLogDeactivatorContextBuilder" data-source-line="59" data-uid="ent0015" id="entity_DidLogDeactivatorContext.DidLogDeactivatorContextBuilder"><rect fill="#F1F1F1" height="32" rx="2.5" ry="2.5" style="stroke:#181818;stroke-width:0.5;" width="461.666" x="142" y="604"/><ellipse cx="157" cy="620" fill="#ADD1B2" rx="11" ry="11" style="stroke:#181818;stroke-width:1;"/><path d="M159.9688,625.6406 Q159.3906,625.9375 158.75,626.0781 Q158.1094,626.2344 157.4063,626.2344 Q154.9063,626.2344 153.5781,624.5938 Q152.2656,622.9375 152.2656,619.8125 Q152.2656,616.6875 153.5781,615.0313 Q154.9063,613.375 157.4063,613.375 Q158.1094,613.375 158.75,613.5313 Q159.4063,613.6875 159.9688,613.9844 L159.9688,616.7031 Q159.3438,616.125 158.75,615.8594 Q158.1563,615.5781 157.5313,615.5781 Q156.1875,615.5781 155.5,616.6563 Q154.8125,617.7188 154.8125,619.8125 Q154.8125,621.9063 155.5,622.9844 Q156.1875,624.0469 157.5313,624.0469 Q158.1563,624.0469 158.75,623.7813 Q159.3438,623.5 159.9688,622.9219 L159.9688,625.6406 Z " fill="#000000"/><text fill="#000000" font-family="sans-serif" font-size="14" lengthAdjust="spacing" textLength="429.666" x="171" y="624.8467">DidLogDeactivatorContext$DidLogDeactivatorContextBuilder</text></g><!--class DidLogDeactivatorStrategy--><g class="entity" data-entity="DidLogDeactivatorStrategy" data-source-line="68" data-uid="ent0016" id="entity_DidLogDeactivatorStrategy"><rect fill="#F1F1F1" height="32" rx="2.5" ry="2.5" style="stroke:#181818;stroke-width:0.5;" width="222.5176" x="261.57" y="872"/><ellipse cx="276.57" cy="888" fill="#B4A7E5" rx="11" ry="11" style="stroke:#181818;stroke-width:1;"/><path d="M272.4919,883.7656 L272.4919,881.6094 L279.8825,881.6094 L279.8825,883.7656 L277.4138,883.7656 L277.4138,891.8438 L279.8825,891.8438 L279.8825,894 L272.4919,894 L272.4919,891.8438 L274.9606,891.8438 L274.9606,883.7656 L272.4919,883.7656 Z " fill="#000000"/><text fill="#000000" font-family="sans-serif" font-size="14" font-style="italic" lengthAdjust="spacing" textLength="190.5176" x="290.57" y="892.8467">DidLogDeactivatorStrategy</text></g><!--class DidLogDeactivatorStrategyException--><g class="entity" data-entity="DidLogDeactivatorStrategyException" data-source-line="75" data-uid="ent0017" id="entity_DidLogDeactivatorStrategyException"><rect fill="#F1F1F1" height="32" rx="2.5" ry="2.5" style="stroke:#181818;stroke-width:0.5;" width="291.6631" x="802.5" y="1006"/><ellipse cx="817.5" cy="1022" fill="#ADD1B2" rx="11" ry="11" style="stroke:#181818;stroke-width:1;"/><path d="M820.4688,1027.6406 Q819.8906,1027.9375 819.25,1028.0781 Q818.6094,1028.2344 817.9063,1028.2344 Q815.4063,1028.2344 814.0781,1026.5938 Q812.7656,1024.9375 812.7656,1021.8125 Q812.7656,1018.6875 814.0781,1017.0313 Q815.4063,1015.375 817.9063,1015.375 Q818.6094,1015.375 819.25,1015.5313 Q819.9063,1015.6875 820.4688,1015.9844 L820.4688,1018.7031 Q819.8438,1018.125 819.25,1017.8594 Q818.6563,1017.5781 818.0313,1017.5781 Q816.6875,1017.5781 816,1018.6563 Q815.3125,1019.7188 815.3125,1021.8125 Q815.3125,1023.9063 816,1024.9844 Q816.6875,1026.0469 818.0313,1026.0469 Q818.6563,1026.0469 819.25,1025.7813 Q819.8438,1025.5 820.4688,1024.9219 L820.4688,1027.6406 Z " fill="#000000"/><text fill="#000000" font-family="sans-serif" font-size="14" lengthAdjust="spacing" textLength="259.6631" x="831.5" y="1026.8467">DidLogDeactivatorStrategyException</text></g><!--class DidLogUpdaterContext--><g class="entity" data-entity="DidLogUpdaterContext" data-source-line="79" data-uid="ent0018" id="entity_DidLogUpdaterContext"><rect fill="#F1F1F1" height="32" rx="2.5" ry="2.5" style="stroke:#181818;stroke-width:0.5;" width="192.3574" x="276.65" y="537"/><ellipse cx="291.65" cy="553" fill="#ADD1B2" rx="11" ry="11" style="stroke:#181818;stroke-width:1;"/><path d="M294.6188,558.6406 Q294.0406,558.9375 293.4,559.0781 Q292.7594,559.2344 292.0563,559.2344 Q289.5563,559.2344 288.2281,557.5938 Q286.9156,555.9375 286.9156,552.8125 Q286.9156,549.6875 288.2281,548.0313 Q289.5563,546.375 292.0563,546.375 Q292.7594,546.375 293.4,546.5313 Q294.0563,546.6875 294.6188,546.9844 L294.6188,549.7031 Q293.9938,549.125 293.4,548.8594 Q292.8063,548.5781 292.1813,548.5781 Q290.8375,548.5781 290.15,549.6563 Q289.4625,550.7188 289.4625,552.8125 Q289.4625,554.9063 290.15,555.9844 Q290.8375,557.0469 292.1813,557.0469 Q292.8063,557.0469 293.4,556.7813 Q293.9938,556.5 294.6188,555.9219 L294.6188,558.6406 Z " fill="#000000"/><text fill="#000000" font-family="sans-serif" font-size="14" lengthAdjust="spacing" textLength="160.3574" x="305.65" y="557.8467">DidLogUpdaterContext</text></g><!--class DidLogUpdaterContext$DidLogUpdaterContextBuilder--><g class="entity" data-entity="DidLogUpdaterContext.DidLogUpdaterContextBuilder" data-source-line="85" data-uid="ent0019" id="entity_DidLogUpdaterContext.DidLogUpdaterContextBuilder"><rect fill="#F1F1F1" height="32" rx="2.5" ry="2.5" style="stroke:#181818;stroke-width:0.5;" width="411.1348" x="167.27" y="470"/><ellipse cx="182.27" cy="486" fill="#ADD1B2" rx="11" ry="11" style="stroke:#181818;stroke-width:1;"/><path d="M185.2388,491.6406 Q184.6606,491.9375 184.02,492.0781 Q183.3794,492.2344 182.6763,492.2344 Q180.1763,492.2344 178.8481,490.5938 Q177.5356,488.9375 177.5356,485.8125 Q177.5356,482.6875 178.8481,481.0313 Q180.1763,479.375 182.6763,479.375 Q183.3794,479.375 184.02,479.5313 Q184.6763,479.6875 185.2388,479.9844 L185.2388,482.7031 Q184.6138,482.125 184.02,481.8594 Q183.4263,481.5781 182.8013,481.5781 Q181.4575,481.5781 180.77,482.6563 Q180.0825,483.7188 180.0825,485.8125 Q180.0825,487.9063 180.77,488.9844 Q181.4575,490.0469 182.8013,490.0469 Q183.4263,490.0469 184.02,489.7813 Q184.6138,489.5 185.2388,488.9219 L185.2388,491.6406 Z " fill="#000000"/><text fill="#000000" font-family="sans-serif" font-size="14" lengthAdjust="spacing" textLength="379.1348" x="196.27" y="490.8467">DidLogUpdaterContext$DidLogUpdaterContextBuilder</text></g><!--class DidLogUpdaterStrategy--><g class="entity" data-entity="DidLogUpdaterStrategy" data-source-line="98" data-uid="ent0020" id="entity_DidLogUpdaterStrategy"><rect fill="#F1F1F1" height="32" rx="2.5" ry="2.5" style="stroke:#181818;stroke-width:0.5;" width="197.252" x="849.71" y="939"/><ellipse cx="864.71" cy="955" fill="#B4A7E5" rx="11" ry="11" style="stroke:#181818;stroke-width:1;"/><path d="M860.6319,950.7656 L860.6319,948.6094 L868.0225,948.6094 L868.0225,950.7656 L865.5538,950.7656 L865.5538,958.8438 L868.0225,958.8438 L868.0225,961 L860.6319,961 L860.6319,958.8438 L863.1006,958.8438 L863.1006,950.7656 L860.6319,950.7656 Z " fill="#000000"/><text fill="#000000" font-family="sans-serif" font-size="14" font-style="italic" lengthAdjust="spacing" textLength="165.252" x="878.71" y="959.8467">DidLogUpdaterStrategy</text></g><!--class DidLogUpdaterStrategyException--><g class="entity" data-entity="DidLogUpdaterStrategyException" data-source-line="105" data-uid="ent0021" id="entity_DidLogUpdaterStrategyException"><rect fill="#F1F1F1" height="32" rx="2.5" ry="2.5" style="stroke:#181818;stroke-width:0.5;" width="266.3975" x="815.14" y="872"/><ellipse cx="830.14" cy="888" fill="#ADD1B2" rx="11" ry="11" style="stroke:#181818;stroke-width:1;"/><path d="M833.1088,893.6406 Q832.5306,893.9375 831.89,894.0781 Q831.2494,894.2344 830.5463,894.2344 Q828.0463,894.2344 826.7181,892.5938 Q825.4056,890.9375 825.4056,887.8125 Q825.4056,884.6875 826.7181,883.0313 Q828.0463,881.375 830.5463,881.375 Q831.2494,881.375 831.89,881.5313 Q832.5463,881.6875 833.1088,881.9844 L833.1088,884.7031 Q832.4838,884.125 831.89,883.8594 Q831.2963,883.5781 830.6713,883.5781 Q829.3275,883.5781 828.64,884.6563 Q827.9525,885.7188 827.9525,887.8125 Q827.9525,889.9063 828.64,890.9844 Q829.3275,892.0469 830.6713,892.0469 Q831.2963,892.0469 831.89,891.7813 Q832.4838,891.5 833.1088,890.9219 L833.1088,893.6406 Z " fill="#000000"/><text fill="#000000" font-family="sans-serif" font-size="14" lengthAdjust="spacing" textLength="234.3975" x="844.14" y="892.8467">DidLogUpdaterStrategyException</text></g><!--class DidMethodEnum--><g class="entity" data-entity="DidMethodEnum" data-source-line="109" data-uid="ent0022" id="entity_DidMethodEnum"><rect fill="#F1F1F1" height="32" rx="2.5" ry="2.5" style="stroke:#181818;stroke-width:0.5;" width="148.293" x="874.19" y="363"/><ellipse cx="889.19" cy="379" fill="#EB937F" rx="11" ry="11" style="stroke:#181818;stroke-width:1;"/><path d="M893.2994,385 L885.5806,385 L885.5806,372.6094 L893.2994,372.6094 L893.2994,374.7656 L888.0338,374.7656 L888.0338,377.4375 L892.7994,377.4375 L892.7994,379.5938 L888.0338,379.5938 L888.0338,382.8438 L893.2994,382.8438 L893.2994,385 Z " fill="#000000"/><text fill="#000000" font-family="sans-serif" font-size="14" lengthAdjust="spacing" textLength="116.293" x="903.19" y="383.8467">DidMethodEnum</text></g><!--class PrimusEd25519VerificationMethodKeyProviderImpl--><g class="entity" data-entity="PrimusEd25519VerificationMethodKeyProviderImpl" data-source-line="115" data-uid="ent0024" id="entity_PrimusEd25519VerificationMethodKeyProviderImpl"><rect fill="#F1F1F1" height="32" rx="2.5" ry="2.5" style="stroke:#181818;stroke-width:0.5;" width="389.2324" x="178.22" y="339"/><ellipse cx="193.22" cy="355" fill="#ADD1B2" rx="11" ry="11" style="stroke:#181818;stroke-width:1;"/><path d="M196.1888,360.6406 Q195.6106,360.9375 194.97,361.0781 Q194.3294,361.2344 193.6263,361.2344 Q191.1263,361.2344 189.7981,359.5938 Q188.4856,357.9375 188.4856,354.8125 Q188.4856,351.6875 189.7981,350.0313 Q191.1263,348.375 193.6263,348.375 Q194.3294,348.375 194.97,348.5313 Q195.6263,348.6875 196.1888,348.9844 L196.1888,351.7031 Q195.5638,351.125 194.97,350.8594 Q194.3763,350.5781 193.7513,350.5781 Q192.4075,350.5781 191.72,351.6563 Q191.0325,352.7188 191.0325,354.8125 Q191.0325,356.9063 191.72,357.9844 Q192.4075,359.0469 193.7513,359.0469 Q194.3763,359.0469 194.97,358.7813 Q195.5638,358.5 196.1888,357.9219 L196.1888,360.6406 Z " fill="#000000"/><text fill="#000000" font-family="sans-serif" font-size="14" lengthAdjust="spacing" textLength="357.2324" x="207.22" y="359.8467">PrimusEd25519VerificationMethodKeyProviderImpl</text></g><!--link DidLogCreatorContext to DidMethodEnum--><g class="link" data-entity-1="DidLogCreatorContext" data-entity-2="DidMethodEnum" data-source-line="122" data-uid="lnk27" id="link_DidLogCreatorContext_DidMethodEnum"><path codeLine="122" d="M467.4,828.54 C565.06,834.18 709.25,835.45 747.67,798 C802.61,744.44 733.03,516.42 777.67,454 C800.24,422.43 833.4143,405.7312 868.2943,395.0212" fill="none" id="DidLogCreatorContext-to-DidMethodEnum" style="stroke:#181818;stroke-width:1;"/><polygon fill="#181818" points="874.03,393.26,864.2523,392.0779,869.2502,394.7276,866.6006,399.7255,874.03,393.26" style="stroke:#181818;stroke-width:1;"/><text fill="#000000" font-family="sans-serif" font-size="13" lengthAdjust="spacing" textLength="68.8721" x="656.67" y="794.0669">didMethod</text></g><!--link DidLogCreatorContext$DidLogCreatorContextBuilder to DidMethodEnum--><g class="link" data-entity-1="DidLogCreatorContext.DidLogCreatorContextBuilder" data-entity-2="DidMethodEnum" data-source-line="123" data-uid="lnk28" id="link_DidLogCreatorContext.DidLogCreatorContextBuilder_DidMethodEnum"><path codeLine="123" d="M444.57,770.49 C528.93,785.54 668.45,795.04 747.67,717 C789.57,675.72 742.82,501.39 777.67,454 C800.56,422.87 833.541,406.223 868.211,395.433" fill="none" id="DidLogCreatorContext$DidLogCreatorContextBuilder-to-DidMethodEnum" style="stroke:#181818;stroke-width:1;"/><polygon fill="#181818" points="873.94,393.65,864.1579,392.5051,869.1659,395.1358,866.5352,400.1438,873.94,393.65" style="stroke:#181818;stroke-width:1;"/><text fill="#000000" font-family="sans-serif" font-size="13" lengthAdjust="spacing" textLength="112.6519" x="634.67" y="713.0669">didMethod$value</text></g><!--link DidLogDeactivatorContext to DidMethodEnum--><g class="link" data-entity-1="DidLogDeactivatorContext" data-entity-2="DidMethodEnum" data-source-line="124" data-uid="lnk29" id="link_DidLogDeactivatorContext_DidMethodEnum"><path codeLine="124" d="M479.77,703.48 C563.7,710.1 678.05,703.71 747.67,636 C806.43,578.84 727.47,518.82 777.67,454 C801.13,423.7 833.7345,407.1857 868.0145,396.2357" fill="none" id="DidLogDeactivatorContext-to-DidMethodEnum" style="stroke:#181818;stroke-width:1;"/><polygon fill="#181818" points="873.73,394.41,863.9396,393.3382,868.9671,395.9314,866.3739,400.9589,873.73,394.41" style="stroke:#181818;stroke-width:1;"/><text fill="#000000" font-family="sans-serif" font-size="13" lengthAdjust="spacing" textLength="68.8721" x="656.67" y="632.0669">didMethod</text></g><!--link DidLogDeactivatorContext$DidLogDeactivatorContextBuilder to DidMethodEnum--><g class="link" data-entity-1="DidLogDeactivatorContext.DidLogDeactivatorContextBuilder" data-entity-2="DidMethodEnum" data-source-line="125" data-uid="lnk30" id="link_DidLogDeactivatorContext.DidLogDeactivatorContextBuilder_DidMethodEnum"><path codeLine="125" d="M603.86,620.68 C656.71,610.29 708.74,590.04 747.67,553 C780.97,521.31 747.2,488.43 777.67,454 C803.38,424.94 836.7806,408.4953 870.9706,397.2453" fill="none" id="DidLogDeactivatorContext$DidLogDeactivatorContextBuilder-to-DidMethodEnum" style="stroke:#181818;stroke-width:1;"/><polygon fill="#181818" points="876.67,395.37,866.8707,394.3834,871.9205,396.9328,869.3711,401.9826,876.67,395.37" style="stroke:#181818;stroke-width:1;"/><text fill="#000000" font-family="sans-serif" font-size="13" lengthAdjust="spacing" textLength="112.6519" x="634.67" y="549.0669">didMethod$value</text></g><!--link DidLogUpdaterContext to DidMethodEnum--><g class="link" data-entity-1="DidLogUpdaterContext" data-entity-2="DidMethodEnum" data-source-line="126" data-uid="lnk31" id="link_DidLogUpdaterContext_DidMethodEnum"><path codeLine="126" d="M469.44,553.25 C548.86,549.49 662.27,534.66 747.67,485 C764.24,475.36 761.94,464.97 777.67,454 C814.52,428.3 855.9536,410.397 891.1636,397.547" fill="none" id="DidLogUpdaterContext-to-DidMethodEnum" style="stroke:#181818;stroke-width:1;"/><polygon fill="#181818" points="896.8,395.49,886.9741,394.8179,892.103,397.2042,889.7168,402.3331,896.8,395.49" style="stroke:#181818;stroke-width:1;"/><text fill="#000000" font-family="sans-serif" font-size="13" lengthAdjust="spacing" textLength="68.8721" x="656.67" y="481.0669">didMethod</text></g><!--link DidLogUpdaterContext$DidLogUpdaterContextBuilder to DidMethodEnum--><g class="link" data-entity-1="DidLogUpdaterContext.DidLogUpdaterContextBuilder" data-entity-2="DidMethodEnum" data-source-line="127" data-uid="lnk32" id="link_DidLogUpdaterContext.DidLogUpdaterContextBuilder_DidMethodEnum"><path codeLine="127" d="M560.29,469.52 C620.46,462.48 687.22,452.85 747.67,440 C801.38,428.58 855.7776,411.2654 895.8676,397.4454" fill="none" id="DidLogUpdaterContext$DidLogUpdaterContextBuilder-to-DidMethodEnum" style="stroke:#181818;stroke-width:1;"/><polygon fill="#181818" points="901.54,395.49,891.7278,394.6415,896.813,397.1195,894.335,402.2047,901.54,395.49" style="stroke:#181818;stroke-width:1;"/><text fill="#000000" font-family="sans-serif" font-size="13" lengthAdjust="spacing" textLength="112.6519" x="634.67" y="436.0669">didMethod$value</text></g><!--link PrimusEd25519VerificationMethodKeyProviderImpl to Ed25519VerificationMethodKeyProviderImpl--><g class="link" data-entity-1="PrimusEd25519VerificationMethodKeyProviderImpl" data-entity-2="Ed25519VerificationMethodKeyProviderImpl" data-source-line="128" data-uid="lnk33" id="link_PrimusEd25519VerificationMethodKeyProviderImpl_Ed25519VerificationMethodKeyProviderImpl"><path codeLine="128" d="M567.75,339.54 C583.89,338.07 599.95,336.55 615.45,335 C681.69,328.37 737.3607,322.0152 798.3507,314.6252" fill="none" id="PrimusEd25519VerificationMethodKeyProviderImpl-to-Ed25519VerificationMethodKeyProviderImpl" style="stroke:#181818;stroke-width:1;"/><polygon fill="none" points="816.22,312.46,797.629,308.6687,799.0724,320.5816,816.22,312.46" style="stroke:#181818;stroke-width:1;"/></g><!--SRC=[tLbTRvim57qUlyBIyh0f2shQzM5LLMbfCgrggqLBFwJr8NBm3N4761b36tNvxpCG4aYWuQCXLPv2hdsF3yVNzrx0WB50WY5EzOb0X7BG16MMeYYQWHq7QHCL4vDQwkXHTPxer5K99O8nOyIUrHuvF3vkVxi3JiTKmxxZDOW98vSmxNFcKGBymhGDzA9yU1bJCCWCVVmhnp3bw0GzOW-h3cWkfsAgNeRss4nx3h4sDSAMSyrWlHbgOaAacOtH9sHZZis1uDJIsz8tl49VulR33FlHclqFiu1qiO0RQiBNY8gGVzJ44FgyS8tJqi42BgSCg6vXuNA8-3rqV6uFdS1F_foU4h2b-d8kEJj3IGmHbrWATUqQWewm8z7IbwLEVDQ5DG2n40P4ExeDLr13zSTyb97SLS1M7EP9oWrzTsHGJU9zT_fWHZ0_g04B7CfK_ty0up5Ab9aC86e9u6EimUj1z6hq194JqK4lUEG8ZZLHGDXi_wAY9joh23pBTxeq9WLy5cgNaYkcdtF0Wl7pq9ZGfQdvOmi1RdzVBTQtGAZoVpmuts3rHfgnur9ZTSUQSXdWYPrr8fhNs4xA90q1pwtGIf1onGGiiTpvTy1fv9l2m2kzLZ8afhPWEiVsX6e3box3uqwJAGjVI0_TJwRdQnFRcpXusf18Y26DCDIDcFM8AE72E8lkjHiPUfPhRhmlan4mr8HFFRp7Z6lmomCUvDk8_3nTj9UPenusbZJ73qLcFjiw4y7cjJYZohcsZ4Du7rozLylOVfwzjQQbGDbFNLDkiOJIfzbbFonreLFEWbSHAQqFFCpN1rOfjP4KlMSDR3-ef2QbyBeWxvTwcSq3YSOXitLEFtthZfazOHKzrlatiWPIMv1obNKTV8-gQt59trULhSP_KrNPdqnUukYyMKQFBR4vgozJIJ8Vvyj4kQ0svQQgpEek4odwLYuLjq4_bLucmbwhO8b8EcsbF2GvDzACktWopK-hlYVJSfpArSyax1xLpd8YxhvcbkEzZMV1SansyonOZkl-T105ikkRTGvp-CrTGxZbbJk6D9YItK8kHdLt2YjwhdO9u2UJmjadzaMdUTEz7nuCZsAM-rxdxkUmFJp8opZujCESgQFQd9gke_Q3dq8Vc0f_Smd8INgbNyAtMcUek7GdQ54DbEsybgdCg-5XmmMbsbk6MjKfyQYp0vLM6knQ5IgGocjHfkgHRxN-RMAP5qjH9l8I1TdB2Q_3PE8e_m40]--></g></svg>