<svg xmlns="http://www.w3.org/2000/svg" xmlns:xlink="http://www.w3.org/1999/xlink" contentStyleType="text/css" data-diagram-type="CLASS" height="1117px" preserveAspectRatio="none" style="width:1845px;height:1117px;background:#FFFFFF;" version="1.1" viewBox="0 0 1845 1117" width="1845px" zoomAndPan="magnify"><defs/><g><!--cluster ch--><g class="cluster" data-entity="ch" data-source-line="6" data-uid="ent0003" id="cluster_ch"><path d="M8.5,6 L27.7656,6 A3.75,3.75 0 0 1 30.2656,8.5 L37.2656,28.2969 L1836.06,28.2969 A2.5,2.5 0 0 1 1838.56,30.7969 L1838.56,1107.5 A2.5,2.5 0 0 1 1836.06,1110 L8.5,1110 A2.5,2.5 0 0 1 6,1107.5 L6,8.5 A2.5,2.5 0 0 1 8.5,6" fill="none" style="stroke:#000000;stroke-width:1.5;"/><line style="stroke:#000000;stroke-width:1.5;" x1="6" x2="37.2656" y1="28.2969" y2="28.2969"/><text fill="#000000" font-family="sans-serif" font-size="14" font-weight="bold" lengthAdjust="spacing" textLength="18.2656" x="10" y="20.9951">ch</text></g><!--cluster admin--><g class="cluster" data-entity="admin" data-source-line="6" data-uid="ent0004" id="cluster_admin"><path d="M32.5,49 L82.3223,49 A3.75,3.75 0 0 1 84.8223,51.5 L91.8223,71.2969 L1812.06,71.2969 A2.5,2.5 0 0 1 1814.56,73.7969 L1814.56,1083.5 A2.5,2.5 0 0 1 1812.06,1086 L32.5,1086 A2.5,2.5 0 0 1 30,1083.5 L30,51.5 A2.5,2.5 0 0 1 32.5,49" fill="none" style="stroke:#000000;stroke-width:1.5;"/><line style="stroke:#000000;stroke-width:1.5;" x1="30" x2="91.8223" y1="71.2969" y2="71.2969"/><text fill="#000000" font-family="sans-serif" font-size="14" font-weight="bold" lengthAdjust="spacing" textLength="48.8223" x="34" y="63.9951">admin</text></g><!--cluster bj--><g class="cluster" data-entity="bj" data-source-line="6" data-uid="ent0005" id="cluster_bj"><path d="M56.5,92 L72.3203,92 A3.75,3.75 0 0 1 74.8203,94.5 L81.8203,114.2969 L1788.06,114.2969 A2.5,2.5 0 0 1 1790.56,116.7969 L1790.56,1059.5 A2.5,2.5 0 0 1 1788.06,1062 L56.5,1062 A2.5,2.5 0 0 1 54,1059.5 L54,94.5 A2.5,2.5 0 0 1 56.5,92" fill="none" style="stroke:#000000;stroke-width:1.5;"/><line style="stroke:#000000;stroke-width:1.5;" x1="54" x2="81.8203" y1="114.2969" y2="114.2969"/><text fill="#000000" font-family="sans-serif" font-size="14" font-weight="bold" lengthAdjust="spacing" textLength="14.8203" x="58" y="106.9951">bj</text></g><!--cluster swiyu--><g class="cluster" data-entity="swiyu" data-source-line="6" data-uid="ent0006" id="cluster_swiyu"><path d="M80.5,135 L126.6582,135 A3.75,3.75 0 0 1 129.1582,137.5 L136.1582,157.2969 L1764.06,157.2969 A2.5,2.5 0 0 1 1766.56,159.7969 L1766.56,1035.5 A2.5,2.5 0 0 1 1764.06,1038 L80.5,1038 A2.5,2.5 0 0 1 78,1035.5 L78,137.5 A2.5,2.5 0 0 1 80.5,135" fill="none" style="stroke:#000000;stroke-width:1.5;"/><line style="stroke:#000000;stroke-width:1.5;" x1="78" x2="136.1582" y1="157.2969" y2="157.2969"/><text fill="#000000" font-family="sans-serif" font-size="14" font-weight="bold" lengthAdjust="spacing" textLength="45.1582" x="82" y="149.9951">swiyu</text></g><!--cluster didtoolbox--><g class="cluster" data-entity="didtoolbox" data-source-line="6" data-uid="ent0007" id="cluster_didtoolbox"><path d="M104.5,178 L189.7393,178 A3.75,3.75 0 0 1 192.2393,180.5 L199.2393,200.2969 L1740.06,200.2969 A2.5,2.5 0 0 1 1742.56,202.7969 L1742.56,1011.5 A2.5,2.5 0 0 1 1740.06,1014 L104.5,1014 A2.5,2.5 0 0 1 102,1011.5 L102,180.5 A2.5,2.5 0 0 1 104.5,178" fill="none" style="stroke:#000000;stroke-width:1.5;"/><line style="stroke:#000000;stroke-width:1.5;" x1="102" x2="199.2393" y1="200.2969" y2="200.2969"/><text fill="#000000" font-family="sans-serif" font-size="14" font-weight="bold" lengthAdjust="spacing" textLength="84.2393" x="106" y="192.9951">didtoolbox</text></g><!--cluster context--><g class="cluster" data-entity="context" data-source-line="23" data-uid="ent0010" id="cluster_context"><path d="M630.73,221 L691.5239,221 A3.75,3.75 0 0 1 694.0239,223.5 L701.0239,243.2969 L1716.06,243.2969 A2.5,2.5 0 0 1 1718.56,245.7969 L1718.56,837.5 A2.5,2.5 0 0 1 1716.06,840 L630.73,840 A2.5,2.5 0 0 1 628.23,837.5 L628.23,223.5 A2.5,2.5 0 0 1 630.73,221" fill="none" style="stroke:#000000;stroke-width:1.5;"/><line style="stroke:#000000;stroke-width:1.5;" x1="628.23" x2="701.0239" y1="243.2969" y2="243.2969"/><text fill="#000000" font-family="sans-serif" font-size="14" font-weight="bold" lengthAdjust="spacing" textLength="59.7939" x="632.23" y="235.9951">context</text></g><!--cluster model--><g class="cluster" data-entity="model" data-source-line="105" data-uid="ent0023" id="cluster_model"><path d="M1469.08,864 L1518.6015,864 A3.75,3.75 0 0 1 1521.1015,866.5 L1528.1015,886.2969 L1644.38,886.2969 A2.5,2.5 0 0 1 1646.88,888.7969 L1646.88,944.5 A2.5,2.5 0 0 1 1644.38,947 L1469.08,947 A2.5,2.5 0 0 1 1466.58,944.5 L1466.58,866.5 A2.5,2.5 0 0 1 1469.08,864" fill="none" style="stroke:#000000;stroke-width:1.5;"/><line style="stroke:#000000;stroke-width:1.5;" x1="1466.58" x2="1528.1015" y1="886.2969" y2="886.2969"/><text fill="#000000" font-family="sans-serif" font-size="14" font-weight="bold" lengthAdjust="spacing" textLength="48.5215" x="1470.58" y="878.9951">model</text></g><!--cluster securosys--><g class="cluster" data-entity="securosys" data-source-line="111" data-uid="ent0025" id="cluster_securosys"><path d="M128.5,840 L207.9082,840 A3.75,3.75 0 0 1 210.4082,842.5 L217.4082,862.2969 L592.73,862.2969 A2.5,2.5 0 0 1 595.23,864.7969 L595.23,987.5 A2.5,2.5 0 0 1 592.73,990 L128.5,990 A2.5,2.5 0 0 1 126,987.5 L126,842.5 A2.5,2.5 0 0 1 128.5,840" fill="none" style="stroke:#000000;stroke-width:1.5;"/><line style="stroke:#000000;stroke-width:1.5;" x1="126" x2="217.4082" y1="862.2969" y2="862.2969"/><text fill="#000000" font-family="sans-serif" font-size="14" font-weight="bold" lengthAdjust="spacing" textLength="78.4082" x="130" y="854.9951">securosys</text></g><!--cluster primus--><g class="cluster" data-entity="primus" data-source-line="111" data-uid="ent0026" id="cluster_primus"><path d="M152.5,883 L208.1123,883 A3.75,3.75 0 0 1 210.6123,885.5 L217.6123,905.2969 L568.73,905.2969 A2.5,2.5 0 0 1 571.23,907.7969 L571.23,963.5 A2.5,2.5 0 0 1 568.73,966 L152.5,966 A2.5,2.5 0 0 1 150,963.5 L150,885.5 A2.5,2.5 0 0 1 152.5,883" fill="none" style="stroke:#000000;stroke-width:1.5;"/><line style="stroke:#000000;stroke-width:1.5;" x1="150" x2="217.6123" y1="905.2969" y2="905.2969"/><text fill="#000000" font-family="sans-serif" font-size="14" font-weight="bold" lengthAdjust="spacing" textLength="54.6123" x="154" y="897.9951">primus</text></g><!--class Ed25519VerificationMethodKeyProviderImpl--><g class="entity" data-entity="Ed25519VerificationMethodKeyProviderImpl" data-source-line="6" data-uid="ent0002" id="entity_Ed25519VerificationMethodKeyProviderImpl"><rect fill="#F1F1F1" height="32" rx="2.5" ry="2.5" style="stroke:#181818;stroke-width:0.5;" width="341.3398" x="704.4" y="942"/><ellipse cx="719.4" cy="958" fill="#ADD1B2" rx="11" ry="11" style="stroke:#181818;stroke-width:1;"/><path d="M722.3688,963.6406 Q721.7906,963.9375 721.15,964.0781 Q720.5094,964.2344 719.8063,964.2344 Q717.3063,964.2344 715.9781,962.5938 Q714.6656,960.9375 714.6656,957.8125 Q714.6656,954.6875 715.9781,953.0313 Q717.3063,951.375 719.8063,951.375 Q720.5094,951.375 721.15,951.5313 Q721.8063,951.6875 722.3688,951.9844 L722.3688,954.7031 Q721.7438,954.125 721.15,953.8594 Q720.5563,953.5781 719.9313,953.5781 Q718.5875,953.5781 717.9,954.6563 Q717.2125,955.7188 717.2125,957.8125 Q717.2125,959.9063 717.9,960.9844 Q718.5875,962.0469 719.9313,962.0469 Q720.5563,962.0469 721.15,961.7813 Q721.7438,961.5 722.3688,960.9219 L722.3688,963.6406 Z " fill="#000000"/><text fill="#000000" font-family="sans-serif" font-size="14" lengthAdjust="spacing" textLength="309.3398" x="733.4" y="962.8467">Ed25519VerificationMethodKeyProviderImpl</text></g><!--class VerificationMethodKeyProvider--><g class="entity" data-entity="VerificationMethodKeyProvider" data-source-line="16" data-uid="ent0008" id="entity_VerificationMethodKeyProvider"><rect fill="#F1F1F1" height="32" rx="2.5" ry="2.5" style="stroke:#181818;stroke-width:0.5;" width="248.5283" x="1432.47" y="966"/><ellipse cx="1447.47" cy="982" fill="#B4A7E5" rx="11" ry="11" style="stroke:#181818;stroke-width:1;"/><path d="M1443.3919,977.7656 L1443.3919,975.6094 L1450.7825,975.6094 L1450.7825,977.7656 L1448.3138,977.7656 L1448.3138,985.8438 L1450.7825,985.8438 L1450.7825,988 L1443.3919,988 L1443.3919,985.8438 L1445.8606,985.8438 L1445.8606,977.7656 L1443.3919,977.7656 Z " fill="#000000"/><text fill="#000000" font-family="sans-serif" font-size="14" font-style="italic" lengthAdjust="spacing" textLength="216.5283" x="1461.47" y="986.8467">VerificationMethodKeyProvider</text></g><!--class DidLogCreatorContext--><g class="entity" data-entity="DidLogCreatorContext" data-source-line="23" data-uid="ent0009" id="entity_DidLogCreatorContext"><rect fill="#F1F1F1" height="32" rx="2.5" ry="2.5" style="stroke:#181818;stroke-width:0.5;" width="188.4336" x="780.85" y="457"/><ellipse cx="795.85" cy="473" fill="#ADD1B2" rx="11" ry="11" style="stroke:#181818;stroke-width:1;"/><path d="M798.8188,478.6406 Q798.2406,478.9375 797.6,479.0781 Q796.9594,479.2344 796.2563,479.2344 Q793.7563,479.2344 792.4281,477.5938 Q791.1156,475.9375 791.1156,472.8125 Q791.1156,469.6875 792.4281,468.0313 Q793.7563,466.375 796.2563,466.375 Q796.9594,466.375 797.6,466.5313 Q798.2563,466.6875 798.8188,466.9844 L798.8188,469.7031 Q798.1938,469.125 797.6,468.8594 Q797.0063,468.5781 796.3813,468.5781 Q795.0375,468.5781 794.35,469.6563 Q793.6625,470.7188 793.6625,472.8125 Q793.6625,474.9063 794.35,475.9844 Q795.0375,477.0469 796.3813,477.0469 Q797.0063,477.0469 797.6,476.7813 Q798.1938,476.5 798.8188,475.9219 L798.8188,478.6406 Z " fill="#000000"/><text fill="#000000" font-family="sans-serif" font-size="14" lengthAdjust="spacing" textLength="156.4336" x="809.85" y="477.8467">DidLogCreatorContext</text></g><!--class DidLogCreatorContext$DidLogCreatorContextBuilder--><g class="entity" data-entity="DidLogCreatorContext.DidLogCreatorContextBuilder" data-source-line="28" data-uid="ent0011" id="entity_DidLogCreatorContext.DidLogCreatorContextBuilder"><rect fill="#F1F1F1" height="32" rx="2.5" ry="2.5" style="stroke:#181818;stroke-width:0.5;" width="403.2871" x="673.42" y="524"/><ellipse cx="688.42" cy="540" fill="#ADD1B2" rx="11" ry="11" style="stroke:#181818;stroke-width:1;"/><path d="M691.3888,545.6406 Q690.8106,545.9375 690.17,546.0781 Q689.5294,546.2344 688.8263,546.2344 Q686.3263,546.2344 684.9981,544.5938 Q683.6856,542.9375 683.6856,539.8125 Q683.6856,536.6875 684.9981,535.0313 Q686.3263,533.375 688.8263,533.375 Q689.5294,533.375 690.17,533.5313 Q690.8263,533.6875 691.3888,533.9844 L691.3888,536.7031 Q690.7638,536.125 690.17,535.8594 Q689.5763,535.5781 688.9513,535.5781 Q687.6075,535.5781 686.92,536.6563 Q686.2325,537.7188 686.2325,539.8125 Q686.2325,541.9063 686.92,542.9844 Q687.6075,544.0469 688.9513,544.0469 Q689.5763,544.0469 690.17,543.7813 Q690.7638,543.5 691.3888,542.9219 L691.3888,545.6406 Z " fill="#000000"/><text fill="#000000" font-family="sans-serif" font-size="14" lengthAdjust="spacing" textLength="371.2871" x="702.42" y="544.8467">DidLogCreatorContext$DidLogCreatorContextBuilder</text></g><!--class DidLogCreatorStrategy--><g class="entity" data-entity="DidLogCreatorStrategy" data-source-line="41" data-uid="ent0012" id="entity_DidLogCreatorStrategy"><rect fill="#F1F1F1" height="32" rx="2.5" ry="2.5" style="stroke:#181818;stroke-width:0.5;" width="193.3281" x="778.4" y="390"/><ellipse cx="793.4" cy="406" fill="#B4A7E5" rx="11" ry="11" style="stroke:#181818;stroke-width:1;"/><path d="M789.3219,401.7656 L789.3219,399.6094 L796.7125,399.6094 L796.7125,401.7656 L794.2438,401.7656 L794.2438,409.8438 L796.7125,409.8438 L796.7125,412 L789.3219,412 L789.3219,409.8438 L791.7906,409.8438 L791.7906,401.7656 L789.3219,401.7656 Z " fill="#000000"/><text fill="#000000" font-family="sans-serif" font-size="14" font-style="italic" lengthAdjust="spacing" textLength="161.3281" x="807.4" y="410.8467">DidLogCreatorStrategy</text></g><!--class DidLogCreatorStrategyException--><g class="entity" data-entity="DidLogCreatorStrategyException" data-source-line="47" data-uid="ent0013" id="entity_DidLogCreatorStrategyException"><rect fill="#F1F1F1" height="32" rx="2.5" ry="2.5" style="stroke:#181818;stroke-width:0.5;" width="262.4736" x="743.83" y="323"/><ellipse cx="758.83" cy="339" fill="#ADD1B2" rx="11" ry="11" style="stroke:#181818;stroke-width:1;"/><path d="M761.7988,344.6406 Q761.2206,344.9375 760.58,345.0781 Q759.9394,345.2344 759.2363,345.2344 Q756.7363,345.2344 755.4081,343.5938 Q754.0956,341.9375 754.0956,338.8125 Q754.0956,335.6875 755.4081,334.0313 Q756.7363,332.375 759.2363,332.375 Q759.9394,332.375 760.58,332.5313 Q761.2363,332.6875 761.7988,332.9844 L761.7988,335.7031 Q761.1738,335.125 760.58,334.8594 Q759.9863,334.5781 759.3613,334.5781 Q758.0175,334.5781 757.33,335.6563 Q756.6425,336.7188 756.6425,338.8125 Q756.6425,340.9063 757.33,341.9844 Q758.0175,343.0469 759.3613,343.0469 Q759.9863,343.0469 760.58,342.7813 Q761.1738,342.5 761.7988,341.9219 L761.7988,344.6406 Z " fill="#000000"/><text fill="#000000" font-family="sans-serif" font-size="14" lengthAdjust="spacing" textLength="230.4736" x="772.83" y="343.8467">DidLogCreatorStrategyException</text></g><!--class DidLogDeactivatorContext--><g class="entity" data-entity="DidLogDeactivatorContext" data-source-line="51" data-uid="ent0014" id="entity_DidLogDeactivatorContext"><rect fill="#F1F1F1" height="32" rx="2.5" ry="2.5" style="stroke:#181818;stroke-width:0.5;" width="217.623" x="766.25" y="725"/><ellipse cx="781.25" cy="741" fill="#ADD1B2" rx="11" ry="11" style="stroke:#181818;stroke-width:1;"/><path d="M784.2188,746.6406 Q783.6406,746.9375 783,747.0781 Q782.3594,747.2344 781.6563,747.2344 Q779.1563,747.2344 777.8281,745.5938 Q776.5156,743.9375 776.5156,740.8125 Q776.5156,737.6875 777.8281,736.0313 Q779.1563,734.375 781.6563,734.375 Q782.3594,734.375 783,734.5313 Q783.6563,734.6875 784.2188,734.9844 L784.2188,737.7031 Q783.5938,737.125 783,736.8594 Q782.4063,736.5781 781.7813,736.5781 Q780.4375,736.5781 779.75,737.6563 Q779.0625,738.7188 779.0625,740.8125 Q779.0625,742.9063 779.75,743.9844 Q780.4375,745.0469 781.7813,745.0469 Q782.4063,745.0469 783,744.7813 Q783.5938,744.5 784.2188,743.9219 L784.2188,746.6406 Z " fill="#000000"/><text fill="#000000" font-family="sans-serif" font-size="14" lengthAdjust="spacing" textLength="185.623" x="795.25" y="745.8467">DidLogDeactivatorContext</text></g><!--class DidLogDeactivatorContext$DidLogDeactivatorContextBuilder--><g class="entity" data-entity="DidLogDeactivatorContext.DidLogDeactivatorContextBuilder" data-source-line="57" data-uid="ent0015" id="entity_DidLogDeactivatorContext.DidLogDeactivatorContextBuilder"><rect fill="#F1F1F1" height="32" rx="2.5" ry="2.5" style="stroke:#181818;stroke-width:0.5;" width="461.666" x="644.23" y="792"/><ellipse cx="659.23" cy="808" fill="#ADD1B2" rx="11" ry="11" style="stroke:#181818;stroke-width:1;"/><path d="M662.1988,813.6406 Q661.6206,813.9375 660.98,814.0781 Q660.3394,814.2344 659.6363,814.2344 Q657.1363,814.2344 655.8081,812.5938 Q654.4956,810.9375 654.4956,807.8125 Q654.4956,804.6875 655.8081,803.0313 Q657.1363,801.375 659.6363,801.375 Q660.3394,801.375 660.98,801.5313 Q661.6363,801.6875 662.1988,801.9844 L662.1988,804.7031 Q661.5738,804.125 660.98,803.8594 Q660.3863,803.5781 659.7613,803.5781 Q658.4175,803.5781 657.73,804.6563 Q657.0425,805.7188 657.0425,807.8125 Q657.0425,809.9063 657.73,810.9844 Q658.4175,812.0469 659.7613,812.0469 Q660.3863,812.0469 660.98,811.7813 Q661.5738,811.5 662.1988,810.9219 L662.1988,813.6406 Z " fill="#000000"/><text fill="#000000" font-family="sans-serif" font-size="14" lengthAdjust="spacing" textLength="429.666" x="673.23" y="812.8467">DidLogDeactivatorContext$DidLogDeactivatorContextBuilder</text></g><!--class DidLogDeactivatorStrategy--><g class="entity" data-entity="DidLogDeactivatorStrategy" data-source-line="65" data-uid="ent0016" id="entity_DidLogDeactivatorStrategy"><rect fill="#F1F1F1" height="32" rx="2.5" ry="2.5" style="stroke:#181818;stroke-width:0.5;" width="222.5176" x="763.81" y="256"/><ellipse cx="778.81" cy="272" fill="#B4A7E5" rx="11" ry="11" style="stroke:#181818;stroke-width:1;"/><path d="M774.7319,267.7656 L774.7319,265.6094 L782.1225,265.6094 L782.1225,267.7656 L779.6538,267.7656 L779.6538,275.8438 L782.1225,275.8438 L782.1225,278 L774.7319,278 L774.7319,275.8438 L777.2006,275.8438 L777.2006,267.7656 L774.7319,267.7656 Z " fill="#000000"/><text fill="#000000" font-family="sans-serif" font-size="14" font-style="italic" lengthAdjust="spacing" textLength="190.5176" x="792.81" y="276.8467">DidLogDeactivatorStrategy</text></g><!--class DidLogDeactivatorStrategyException--><g class="entity" data-entity="DidLogDeactivatorStrategyException" data-source-line="72" data-uid="ent0017" id="entity_DidLogDeactivatorStrategyException"><rect fill="#F1F1F1" height="32" rx="2.5" ry="2.5" style="stroke:#181818;stroke-width:0.5;" width="291.6631" x="1410.9" y="390"/><ellipse cx="1425.9" cy="406" fill="#ADD1B2" rx="11" ry="11" style="stroke:#181818;stroke-width:1;"/><path d="M1428.8688,411.6406 Q1428.2906,411.9375 1427.65,412.0781 Q1427.0094,412.2344 1426.3063,412.2344 Q1423.8063,412.2344 1422.4781,410.5938 Q1421.1656,408.9375 1421.1656,405.8125 Q1421.1656,402.6875 1422.4781,401.0313 Q1423.8063,399.375 1426.3063,399.375 Q1427.0094,399.375 1427.65,399.5313 Q1428.3063,399.6875 1428.8688,399.9844 L1428.8688,402.7031 Q1428.2438,402.125 1427.65,401.8594 Q1427.0563,401.5781 1426.4313,401.5781 Q1425.0875,401.5781 1424.4,402.6563 Q1423.7125,403.7188 1423.7125,405.8125 Q1423.7125,407.9063 1424.4,408.9844 Q1425.0875,410.0469 1426.4313,410.0469 Q1427.0563,410.0469 1427.65,409.7813 Q1428.2438,409.5 1428.8688,408.9219 L1428.8688,411.6406 Z " fill="#000000"/><text fill="#000000" font-family="sans-serif" font-size="14" lengthAdjust="spacing" textLength="259.6631" x="1439.9" y="410.8467">DidLogDeactivatorStrategyException</text></g><!--class DidLogUpdaterContext--><g class="entity" data-entity="DidLogUpdaterContext" data-source-line="76" data-uid="ent0018" id="entity_DidLogUpdaterContext"><rect fill="#F1F1F1" height="32" rx="2.5" ry="2.5" style="stroke:#181818;stroke-width:0.5;" width="192.3574" x="778.89" y="658"/><ellipse cx="793.89" cy="674" fill="#ADD1B2" rx="11" ry="11" style="stroke:#181818;stroke-width:1;"/><path d="M796.8588,679.6406 Q796.2806,679.9375 795.64,680.0781 Q794.9994,680.2344 794.2963,680.2344 Q791.7963,680.2344 790.4681,678.5938 Q789.1556,676.9375 789.1556,673.8125 Q789.1556,670.6875 790.4681,669.0313 Q791.7963,667.375 794.2963,667.375 Q794.9994,667.375 795.64,667.5313 Q796.2963,667.6875 796.8588,667.9844 L796.8588,670.7031 Q796.2338,670.125 795.64,669.8594 Q795.0463,669.5781 794.4213,669.5781 Q793.0775,669.5781 792.39,670.6563 Q791.7025,671.7188 791.7025,673.8125 Q791.7025,675.9063 792.39,676.9844 Q793.0775,678.0469 794.4213,678.0469 Q795.0463,678.0469 795.64,677.7813 Q796.2338,677.5 796.8588,676.9219 L796.8588,679.6406 Z " fill="#000000"/><text fill="#000000" font-family="sans-serif" font-size="14" lengthAdjust="spacing" textLength="160.3574" x="807.89" y="678.8467">DidLogUpdaterContext</text></g><!--class DidLogUpdaterContext$DidLogUpdaterContextBuilder--><g class="entity" data-entity="DidLogUpdaterContext.DidLogUpdaterContextBuilder" data-source-line="82" data-uid="ent0019" id="entity_DidLogUpdaterContext.DidLogUpdaterContextBuilder"><rect fill="#F1F1F1" height="32" rx="2.5" ry="2.5" style="stroke:#181818;stroke-width:0.5;" width="411.1348" x="669.5" y="591"/><ellipse cx="684.5" cy="607" fill="#ADD1B2" rx="11" ry="11" style="stroke:#181818;stroke-width:1;"/><path d="M687.4688,612.6406 Q686.8906,612.9375 686.25,613.0781 Q685.6094,613.2344 684.9063,613.2344 Q682.4063,613.2344 681.0781,611.5938 Q679.7656,609.9375 679.7656,606.8125 Q679.7656,603.6875 681.0781,602.0313 Q682.4063,600.375 684.9063,600.375 Q685.6094,600.375 686.25,600.5313 Q686.9063,600.6875 687.4688,600.9844 L687.4688,603.7031 Q686.8438,603.125 686.25,602.8594 Q685.6563,602.5781 685.0313,602.5781 Q683.6875,602.5781 683,603.6563 Q682.3125,604.7188 682.3125,606.8125 Q682.3125,608.9063 683,609.9844 Q683.6875,611.0469 685.0313,611.0469 Q685.6563,611.0469 686.25,610.7813 Q686.8438,610.5 687.4688,609.9219 L687.4688,612.6406 Z " fill="#000000"/><text fill="#000000" font-family="sans-serif" font-size="14" lengthAdjust="spacing" textLength="379.1348" x="698.5" y="611.8467">DidLogUpdaterContext$DidLogUpdaterContextBuilder</text></g><!--class DidLogUpdaterStrategy--><g class="entity" data-entity="DidLogUpdaterStrategy" data-source-line="94" data-uid="ent0020" id="entity_DidLogUpdaterStrategy"><rect fill="#F1F1F1" height="32" rx="2.5" ry="2.5" style="stroke:#181818;stroke-width:0.5;" width="197.252" x="1458.1" y="323"/><ellipse cx="1473.1" cy="339" fill="#B4A7E5" rx="11" ry="11" style="stroke:#181818;stroke-width:1;"/><path d="M1469.0219,334.7656 L1469.0219,332.6094 L1476.4125,332.6094 L1476.4125,334.7656 L1473.9438,334.7656 L1473.9438,342.8438 L1476.4125,342.8438 L1476.4125,345 L1469.0219,345 L1469.0219,342.8438 L1471.4906,342.8438 L1471.4906,334.7656 L1469.0219,334.7656 Z " fill="#000000"/><text fill="#000000" font-family="sans-serif" font-size="14" font-style="italic" lengthAdjust="spacing" textLength="165.252" x="1487.1" y="343.8467">DidLogUpdaterStrategy</text></g><!--class DidLogUpdaterStrategyException--><g class="entity" data-entity="DidLogUpdaterStrategyException" data-source-line="101" data-uid="ent0021" id="entity_DidLogUpdaterStrategyException"><rect fill="#F1F1F1" height="32" rx="2.5" ry="2.5" style="stroke:#181818;stroke-width:0.5;" width="266.3975" x="1423.53" y="256"/><ellipse cx="1438.53" cy="272" fill="#ADD1B2" rx="11" ry="11" style="stroke:#181818;stroke-width:1;"/><path d="M1441.4988,277.6406 Q1440.9206,277.9375 1440.28,278.0781 Q1439.6394,278.2344 1438.9363,278.2344 Q1436.4363,278.2344 1435.1081,276.5938 Q1433.7956,274.9375 1433.7956,271.8125 Q1433.7956,268.6875 1435.1081,267.0313 Q1436.4363,265.375 1438.9363,265.375 Q1439.6394,265.375 1440.28,265.5313 Q1440.9363,265.6875 1441.4988,265.9844 L1441.4988,268.7031 Q1440.8738,268.125 1440.28,267.8594 Q1439.6863,267.5781 1439.0613,267.5781 Q1437.7175,267.5781 1437.03,268.6563 Q1436.3425,269.7188 1436.3425,271.8125 Q1436.3425,273.9063 1437.03,274.9844 Q1437.7175,276.0469 1439.0613,276.0469 Q1439.6863,276.0469 1440.28,275.7813 Q1440.8738,275.5 1441.4988,274.9219 L1441.4988,277.6406 Z " fill="#000000"/><text fill="#000000" font-family="sans-serif" font-size="14" lengthAdjust="spacing" textLength="234.3975" x="1452.53" y="276.8467">DidLogUpdaterStrategyException</text></g><!--class DidMethodEnum--><g class="entity" data-entity="DidMethodEnum" data-source-line="105" data-uid="ent0022" id="entity_DidMethodEnum"><rect fill="#F1F1F1" height="32" rx="2.5" ry="2.5" style="stroke:#181818;stroke-width:0.5;" width="148.293" x="1482.58" y="899"/><ellipse cx="1497.58" cy="915" fill="#EB937F" rx="11" ry="11" style="stroke:#181818;stroke-width:1;"/><path d="M1501.6894,921 L1493.9706,921 L1493.9706,908.6094 L1501.6894,908.6094 L1501.6894,910.7656 L1496.4238,910.7656 L1496.4238,913.4375 L1501.1894,913.4375 L1501.1894,915.5938 L1496.4238,915.5938 L1496.4238,918.8438 L1501.6894,918.8438 L1501.6894,921 Z " fill="#000000"/><text fill="#000000" font-family="sans-serif" font-size="14" lengthAdjust="spacing" textLength="116.293" x="1511.58" y="919.8467">DidMethodEnum</text></g><!--class PrimusEd25519VerificationMethodKeyProviderImpl--><g class="entity" data-entity="PrimusEd25519VerificationMethodKeyProviderImpl" data-source-line="111" data-uid="ent0024" id="entity_PrimusEd25519VerificationMethodKeyProviderImpl"><rect fill="#F1F1F1" height="32" rx="2.5" ry="2.5" style="stroke:#181818;stroke-width:0.5;" width="389.2324" x="166" y="918"/><ellipse cx="181" cy="934" fill="#ADD1B2" rx="11" ry="11" style="stroke:#181818;stroke-width:1;"/><path d="M183.9688,939.6406 Q183.3906,939.9375 182.75,940.0781 Q182.1094,940.2344 181.4063,940.2344 Q178.9063,940.2344 177.5781,938.5938 Q176.2656,936.9375 176.2656,933.8125 Q176.2656,930.6875 177.5781,929.0313 Q178.9063,927.375 181.4063,927.375 Q182.1094,927.375 182.75,927.5313 Q183.4063,927.6875 183.9688,927.9844 L183.9688,930.7031 Q183.3438,930.125 182.75,929.8594 Q182.1563,929.5781 181.5313,929.5781 Q180.1875,929.5781 179.5,930.6563 Q178.8125,931.7188 178.8125,933.8125 Q178.8125,935.9063 179.5,936.9844 Q180.1875,938.0469 181.5313,938.0469 Q182.1563,938.0469 182.75,937.7813 Q183.3438,937.5 183.9688,936.9219 L183.9688,939.6406 Z " fill="#000000"/><text fill="#000000" font-family="sans-serif" font-size="14" lengthAdjust="spacing" textLength="357.2324" x="195" y="938.8467">PrimusEd25519VerificationMethodKeyProviderImpl</text></g><!--link Ed25519VerificationMethodKeyProviderImpl to VerificationMethodKeyProvider--><g class="link" data-entity-1="Ed25519VerificationMethodKeyProviderImpl" data-entity-2="VerificationMethodKeyProvider" data-source-line="118" data-uid="lnk27" id="link_Ed25519VerificationMethodKeyProviderImpl_VerificationMethodKeyProvider"><path codeLine="118" d="M978.19,974.49 C1025.95,981.39 1083.69,988.6 1135.9,992 C1244.56,999.08 1272.05,995.11 1380.9,992 C1397.46,991.53 1396.922,991.6895 1414.102,990.8395" fill="none" id="Ed25519VerificationMethodKeyProviderImpl-to-VerificationMethodKeyProvider" style="stroke:#181818;stroke-width:1;stroke-dasharray:7,7;"/><polygon fill="none" points="1432.08,989.95,1413.8055,984.8468,1414.3985,996.8322,1432.08,989.95" style="stroke:#181818;stroke-width:1;"/></g><!--link DidLogCreatorContext to VerificationMethodKeyProvider--><g class="link" data-entity-1="DidLogCreatorContext" data-entity-2="VerificationMethodKeyProvider" data-source-line="119" data-uid="lnk28" id="link_DidLogCreatorContext_VerificationMethodKeyProvider"><path codeLine="119" d="M969.48,458.28 C1030.42,448.95 1104.31,438.24 1135.9,436 C1244.52,428.31 1301.68,361.29 1380.9,436 C1463.66,514.04 1337.95,859.72 1410.9,947 C1417.29,954.64 1419.8284,957.7894 1428.3684,962.6994" fill="none" id="DidLogCreatorContext-to-VerificationMethodKeyProvider" style="stroke:#181818;stroke-width:1;"/><polygon fill="#181818" points="1433.57,965.69,1427.7614,957.7364,1429.2354,963.1978,1423.7739,964.6718,1433.57,965.69" style="stroke:#181818;stroke-width:1;"/><text fill="#000000" font-family="sans-serif" font-size="13" lengthAdjust="spacing" textLength="199.8623" x="1158.9" y="397.1069">verificationMethodKeyProvider</text></g><!--link DidLogCreatorContext to DidMethodEnum--><g class="link" data-entity-1="DidLogCreatorContext" data-entity-2="DidMethodEnum" data-source-line="120" data-uid="lnk29" id="link_DidLogCreatorContext_DidMethodEnum"><path codeLine="120" d="M969.62,479.49 C1014.96,477.92 1067.71,468.57 1105.9,439 C1132.98,418.03 1107.35,386.93 1135.9,368 C1181.27,337.91 1341.2,330.74 1380.9,368 C1457.54,439.92 1353.46,751.99 1410.9,840 C1429.7,868.81 1457.6649,885.0557 1487.7549,896.3857" fill="none" id="DidLogCreatorContext-to-DidMethodEnum" style="stroke:#181818;stroke-width:1;"/><polygon fill="#181818" points="1493.37,898.5,1486.3568,891.5851,1488.6907,896.7381,1483.5378,899.072,1493.37,898.5" style="stroke:#181818;stroke-width:1;"/><text fill="#000000" font-family="sans-serif" font-size="13" lengthAdjust="spacing" textLength="68.8721" x="1224.4" y="338.7469">didMethod</text></g><!--link DidLogCreatorContext$DidLogCreatorContextBuilder to VerificationMethodKeyProvider--><g class="link" data-entity-1="DidLogCreatorContext.DidLogCreatorContextBuilder" data-entity-2="VerificationMethodKeyProvider" data-source-line="121" data-uid="lnk30" id="link_DidLogCreatorContext.DidLogCreatorContextBuilder_VerificationMethodKeyProvider"><path codeLine="121" d="M1031.94,523.51 C1161.59,513.59 1332.45,510.6 1380.9,557 C1443.67,617.12 1354.55,880.81 1410.9,947 C1417.35,954.58 1419.9246,957.7136 1428.5046,962.5936" fill="none" id="DidLogCreatorContext$DidLogCreatorContextBuilder-to-VerificationMethodKeyProvider" style="stroke:#181818;stroke-width:1;"/><polygon fill="#181818" points="1433.72,965.56,1427.8744,957.6335,1429.3738,963.088,1423.9193,964.5874,1433.72,965.56" style="stroke:#181818;stroke-width:1;"/><text fill="#000000" font-family="sans-serif" font-size="13" lengthAdjust="spacing" textLength="243.6421" x="1136.9" y="513.5369">verificationMethodKeyProvider$value</text></g><!--link DidLogCreatorContext$DidLogCreatorContextBuilder to DidMethodEnum--><g class="link" data-entity-1="DidLogCreatorContext.DidLogCreatorContextBuilder" data-entity-2="DidMethodEnum" data-source-line="122" data-uid="lnk31" id="link_DidLogCreatorContext.DidLogCreatorContextBuilder_DidMethodEnum"><path codeLine="122" d="M1053.18,523.56 C1071.37,519 1089.26,513.25 1105.9,506 C1121.55,499.18 1119.79,487.65 1135.9,482 C1187.27,463.98 1340.83,445.14 1380.9,482 C1439.66,536.04 1366.6,773.59 1410.9,840 C1430.15,868.86 1458.5239,885.1582 1488.7339,896.5182" fill="none" id="DidLogCreatorContext$DidLogCreatorContextBuilder-to-DidMethodEnum" style="stroke:#181818;stroke-width:1;"/><polygon fill="#181818" points="1494.35,898.63,1487.3338,891.7182,1489.6699,896.8701,1484.518,899.2063,1494.35,898.63" style="stroke:#181818;stroke-width:1;"/><text fill="#000000" font-family="sans-serif" font-size="13" lengthAdjust="spacing" textLength="112.6519" x="1202.4" y="456.9169">didMethod$value</text></g><!--link DidLogDeactivatorContext to VerificationMethodKeyProvider--><g class="link" data-entity-1="DidLogDeactivatorContext" data-entity-2="VerificationMethodKeyProvider" data-source-line="123" data-uid="lnk32" id="link_DidLogDeactivatorContext_VerificationMethodKeyProvider"><path codeLine="123" d="M984.23,735.02 C1026.04,737.96 1071.89,748.26 1105.9,775 C1133.8,796.93 1107.81,827.3 1135.9,849 C1222.8,916.13 1292.62,815.68 1380.9,881 C1406.8,900.17 1386.06,926.47 1410.9,947 C1420.27,954.75 1425.5425,958.5199 1436.9525,963.2799" fill="none" id="DidLogDeactivatorContext-to-VerificationMethodKeyProvider" style="stroke:#181818;stroke-width:1;"/><polygon fill="#181818" points="1442.49,965.59,1435.7239,958.4332,1437.8755,963.6649,1432.6437,965.8165,1442.49,965.59" style="stroke:#181818;stroke-width:1;"/><text fill="#000000" font-family="sans-serif" font-size="13" lengthAdjust="spacing" textLength="199.8623" x="1158.9" y="845.0669">verificationMethodKeyProvider</text></g><!--link DidLogDeactivatorContext to DidMethodEnum--><g class="link" data-entity-1="DidLogDeactivatorContext" data-entity-2="DidMethodEnum" data-source-line="124" data-uid="lnk33" id="link_DidLogDeactivatorContext_DidMethodEnum"><path codeLine="124" d="M984.14,748.69 C1023.26,753.63 1067.28,761.72 1105.9,775 C1120.39,779.98 1121.36,787.14 1135.9,792 C1240.04,826.83 1276.32,790.51 1380.9,824 C1395.29,828.61 1397.52,832.97 1410.9,840 C1449.62,860.35 1489.025,880.7144 1518.405,895.8344" fill="none" id="DidLogDeactivatorContext-to-DidMethodEnum" style="stroke:#181818;stroke-width:1;"/><polygon fill="#181818" points="1523.74,898.58,1517.5679,890.905,1519.2942,896.292,1513.9072,898.0183,1523.74,898.58" style="stroke:#181818;stroke-width:1;"/><text fill="#000000" font-family="sans-serif" font-size="13" lengthAdjust="spacing" textLength="68.8721" x="1224.4" y="788.0669">didMethod</text></g><!--link DidLogDeactivatorContext$DidLogDeactivatorContextBuilder to VerificationMethodKeyProvider--><g class="link" data-entity-1="DidLogDeactivatorContext.DidLogDeactivatorContextBuilder" data-entity-2="VerificationMethodKeyProvider" data-source-line="125" data-uid="lnk34" id="link_DidLogDeactivatorContext.DidLogDeactivatorContextBuilder_VerificationMethodKeyProvider"><path codeLine="125" d="M1101.28,824.19 C1102.84,825.42 1104.39,826.69 1105.9,828 C1150.36,866.57 1090.91,919.04 1135.9,957 C1179.25,993.58 1318.6354,995.2246 1426.2254,990.6546" fill="none" id="DidLogDeactivatorContext$DidLogDeactivatorContextBuilder-to-VerificationMethodKeyProvider" style="stroke:#181818;stroke-width:1;"/><polygon fill="#181818" points="1432.22,990.4,1423.0584,986.7855,1427.2245,990.6122,1423.3979,994.7783,1432.22,990.4" style="stroke:#181818;stroke-width:1;"/><text fill="#000000" font-family="sans-serif" font-size="13" lengthAdjust="spacing" textLength="243.6421" x="1136.9" y="953.0669">verificationMethodKeyProvider$value</text></g><!--link DidLogDeactivatorContext$DidLogDeactivatorContextBuilder to DidMethodEnum--><g class="link" data-entity-1="DidLogDeactivatorContext.DidLogDeactivatorContextBuilder" data-entity-2="DidMethodEnum" data-source-line="126" data-uid="lnk35" id="link_DidLogDeactivatorContext.DidLogDeactivatorContextBuilder_DidMethodEnum"><path codeLine="126" d="M1100.53,824.17 C1102.35,825.4 1104.14,826.68 1105.9,828 C1135.57,850.34 1105.51,884.65 1135.9,906 C1189.81,943.88 1370.9059,933.317 1476.2259,923.497" fill="none" id="DidLogDeactivatorContext$DidLogDeactivatorContextBuilder-to-DidMethodEnum" style="stroke:#181818;stroke-width:1;"/><polygon fill="#181818" points="1482.2,922.94,1472.8675,919.7928,1477.2216,923.4042,1473.6102,927.7583,1482.2,922.94" style="stroke:#181818;stroke-width:1;"/><text fill="#000000" font-family="sans-serif" font-size="13" lengthAdjust="spacing" textLength="112.6519" x="1202.4" y="902.0669">didMethod$value</text></g><!--link DidLogUpdaterContext to VerificationMethodKeyProvider--><g class="link" data-entity-1="DidLogUpdaterContext" data-entity-2="VerificationMethodKeyProvider" data-source-line="127" data-uid="lnk36" id="link_DidLogUpdaterContext_VerificationMethodKeyProvider"><path codeLine="127" d="M971.64,675.73 C1014.38,679.58 1064.38,688.46 1105.9,708 C1122.13,715.64 1119.6,727.5 1135.9,735 C1185.78,757.96 1341.39,728.87 1380.9,767 C1439.25,823.33 1355.65,887.63 1410.9,947 C1418.04,954.67 1421.2296,957.9972 1430.4896,962.8672" fill="none" id="DidLogUpdaterContext-to-VerificationMethodKeyProvider" style="stroke:#181818;stroke-width:1;"/><polygon fill="#181818" points="1435.8,965.66,1429.6963,957.9305,1431.3747,963.3326,1425.9725,965.011,1435.8,965.66" style="stroke:#181818;stroke-width:1;"/><text fill="#000000" font-family="sans-serif" font-size="13" lengthAdjust="spacing" textLength="199.8623" x="1158.9" y="731.0669">verificationMethodKeyProvider</text></g><!--link DidLogUpdaterContext to DidMethodEnum--><g class="link" data-entity-1="DidLogUpdaterContext" data-entity-2="DidMethodEnum" data-source-line="128" data-uid="lnk37" id="link_DidLogUpdaterContext_DidMethodEnum"><path codeLine="128" d="M971.46,674.78 C1109.17,676.81 1350.58,684.07 1380.9,710 C1425.96,748.54 1374.55,793.15 1410.9,840 C1432.86,868.3 1462.8756,884.7974 1493.2956,896.4274" fill="none" id="DidLogUpdaterContext-to-DidMethodEnum" style="stroke:#181818;stroke-width:1;"/><polygon fill="#181818" points="1498.9,898.57,1491.9218,891.6198,1494.2297,896.7845,1489.065,899.0923,1498.9,898.57" style="stroke:#181818;stroke-width:1;"/><text fill="#000000" font-family="sans-serif" font-size="13" lengthAdjust="spacing" textLength="68.8721" x="1224.4" y="675.5169">didMethod</text></g><!--link DidLogUpdaterContext$DidLogUpdaterContextBuilder to VerificationMethodKeyProvider--><g class="link" data-entity-1="DidLogUpdaterContext.DidLogUpdaterContextBuilder" data-entity-2="VerificationMethodKeyProvider" data-source-line="129" data-uid="lnk38" id="link_DidLogUpdaterContext.DidLogUpdaterContextBuilder_VerificationMethodKeyProvider"><path codeLine="129" d="M1080.99,620.14 C1215.96,629.77 1369.81,643.01 1380.9,654 C1427.39,700.07 1367.85,897.7 1410.9,947 C1417.53,954.6 1420.2699,957.7675 1429.0199,962.6475" fill="none" id="DidLogUpdaterContext$DidLogUpdaterContextBuilder-to-VerificationMethodKeyProvider" style="stroke:#181818;stroke-width:1;"/><polygon fill="#181818" points="1434.26,965.57,1428.3481,957.6928,1429.8932,963.1346,1424.4515,964.6797,1434.26,965.57" style="stroke:#181818;stroke-width:1;"/><text fill="#000000" font-family="sans-serif" font-size="13" lengthAdjust="spacing" textLength="243.6421" x="1136.9" y="621.4069">verificationMethodKeyProvider$value</text></g><!--link DidLogUpdaterContext$DidLogUpdaterContextBuilder to DidMethodEnum--><g class="link" data-entity-1="DidLogUpdaterContext.DidLogUpdaterContextBuilder" data-entity-2="DidMethodEnum" data-source-line="130" data-uid="lnk39" id="link_DidLogUpdaterContext.DidLogUpdaterContextBuilder_DidMethodEnum"><path codeLine="130" d="M1067.83,590.52 C1200.48,581.18 1357.26,575.09 1380.9,596 C1421.82,632.2 1379.71,795.15 1410.9,840 C1430.86,868.71 1459.6568,885.0505 1489.9268,896.4805" fill="none" id="DidLogUpdaterContext$DidLogUpdaterContextBuilder-to-DidMethodEnum" style="stroke:#181818;stroke-width:1;"/><polygon fill="#181818" points="1495.54,898.6,1488.5333,891.6786,1490.8624,896.8337,1485.7072,899.1628,1495.54,898.6" style="stroke:#181818;stroke-width:1;"/><text fill="#000000" font-family="sans-serif" font-size="13" lengthAdjust="spacing" textLength="112.6519" x="1202.4" y="577.9869">didMethod$value</text></g><!--link PrimusEd25519VerificationMethodKeyProviderImpl to Ed25519VerificationMethodKeyProviderImpl--><g class="link" data-entity-1="PrimusEd25519VerificationMethodKeyProviderImpl" data-entity-2="Ed25519VerificationMethodKeyProviderImpl" data-source-line="131" data-uid="lnk40" id="link_PrimusEd25519VerificationMethodKeyProviderImpl_Ed25519VerificationMethodKeyProviderImpl"><path codeLine="131" d="M555.72,943.09 C604.58,945.38 638.6797,946.9771 686.2497,949.2071" fill="none" id="PrimusEd25519VerificationMethodKeyProviderImpl-to-Ed25519VerificationMethodKeyProviderImpl" style="stroke:#181818;stroke-width:1;"/><polygon fill="none" points="704.23,950.05,686.5307,943.2137,685.9688,955.2005,704.23,950.05" style="stroke:#181818;stroke-width:1;"/></g><!--SRC=[rLXTRvim57qUlyBIyh0fYzLqwiFwC6bfCgrggqNhbxG-H0Pk4dU08sEoHbt- -mo4558Im412dm3Rz_hutEjpZIqO2oGOudGo5SYa70n1cQDfcc4HrqN651FJfWxM7x7xbouyR59JC6Rfx0aFpEEJa-wNE-1qJ0tY6rw1c3Bp0XP3pkRK17vkpopqhBrx7bEmp2Lw_qVs4ShHANeaSu9TC3nEnG9VXEsnaRELYrT38zzoh1tCjqJj2JZ0YO1hEd68y3YW3sX6EB4VUbtfuA67FWQFf8s8OvS8hZnBK9suqjeVVYquTIPn4-h6Hvqxro2YYUHhDuBg2MfXly_teakwW3XnDt_bEc3ewHOrfBzlxX3ioCrtQi7Q3sNO_mxSp1arjQMC37K4y34nO7TqTeOb24a41pqJtHMS64ADo0txegGcpCiGlCoNjWQJ13u9tAVc9PkSSI22yREmCS5Bs_3xrWJS_hfSp- -0mF8RnHPKmUojjCQUHwtDYBNbDC0JaNKZc5TabgH9DWGuQu6L0EM9AJZY9V8DmAJxJM7YASyLzoTDGigZfVMZXe7ZsTsiQMncWeKJDllXOSou0J_dm0FfYS2lTaxtPHFj1uqZc-FviNLhruv4i73xRXDyRsPA2MW6rlbEHL_1sodxcVcvksZKjye2TIrr3Xau6QR9OdjT2xKyDCgfw2KzVGgxVZC7pBwqkA4s74U3XFp0YQwgQab4nU39W9aVHyc9ahy-oFNI-TRgQ4RzQpa9qNVNwqWdCyLmww6d31-lyRUsTQJMMBNIyTfviyf7SLQAoELRaoW5DfIbAkOoMwvUzaXIQF9jiLokiZPTMMJxrhyKVajhu6rG_jFrBpmQ5DI-f54jkfV4t4fhFCG_HNvO-_kdKCEaLXYIRfjL5DHugECKhuRaCATuDQnlhKGMMALoQLovoowBOI1BbyGqDuhbC1UYVPV23Jutoo3u4b5OKsAtkEsR_lteQFGvrd8_wDtz67L7HtaH1zUvp5suUCQfxRbu63mANIeNl_xrmKbubLnhO_plAogn4pNrQyfEfzJC_dNomP2bvTOfMXT1hPxhqvePQys9vS71i6TmMXnToiz_Wt9E2Ls5UQTmjT2u_Ajb3PNduSOFM8Doi32o2lElm2zUu_AkKkmLv5lPSqYdataAoEjBqwRo5GL7AZTy3qyuhlOV]--></g></svg>