<svg xmlns="http://www.w3.org/2000/svg" xmlns:xlink="http://www.w3.org/1999/xlink" contentStyleType="text/css" data-diagram-type="CLASS" height="1114px" preserveAspectRatio="none" style="width:1845px;height:1114px;background:#FFFFFF;" version="1.1" viewBox="0 0 1845 1114" width="1845px" zoomAndPan="magnify"><defs/><g><!--cluster ch--><g class="cluster" data-entity="ch" data-source-line="6" data-uid="ent0003" id="cluster_ch"><path d="M8.5,6 L27.7656,6 A3.75,3.75 0 0 1 30.2656,8.5 L37.2656,28.2969 L1836.06,28.2969 A2.5,2.5 0 0 1 1838.56,30.7969 L1838.56,1104.5 A2.5,2.5 0 0 1 1836.06,1107 L8.5,1107 A2.5,2.5 0 0 1 6,1104.5 L6,8.5 A2.5,2.5 0 0 1 8.5,6" fill="none" style="stroke:#000000;stroke-width:1.5;"/><line style="stroke:#000000;stroke-width:1.5;" x1="6" x2="37.2656" y1="28.2969" y2="28.2969"/><text fill="#000000" font-family="sans-serif" font-size="14" font-weight="bold" lengthAdjust="spacing" textLength="18.2656" x="10" y="20.9951">ch</text></g><!--cluster admin--><g class="cluster" data-entity="admin" data-source-line="6" data-uid="ent0004" id="cluster_admin"><path d="M32.5,49 L82.3223,49 A3.75,3.75 0 0 1 84.8223,51.5 L91.8223,71.2969 L1812.06,71.2969 A2.5,2.5 0 0 1 1814.56,73.7969 L1814.56,1080.5 A2.5,2.5 0 0 1 1812.06,1083 L32.5,1083 A2.5,2.5 0 0 1 30,1080.5 L30,51.5 A2.5,2.5 0 0 1 32.5,49" fill="none" style="stroke:#000000;stroke-width:1.5;"/><line style="stroke:#000000;stroke-width:1.5;" x1="30" x2="91.8223" y1="71.2969" y2="71.2969"/><text fill="#000000" font-family="sans-serif" font-size="14" font-weight="bold" lengthAdjust="spacing" textLength="48.8223" x="34" y="63.9951">admin</text></g><!--cluster bj--><g class="cluster" data-entity="bj" data-source-line="6" data-uid="ent0005" id="cluster_bj"><path d="M56.5,92 L72.3203,92 A3.75,3.75 0 0 1 74.8203,94.5 L81.8203,114.2969 L1788.06,114.2969 A2.5,2.5 0 0 1 1790.56,116.7969 L1790.56,1056.5 A2.5,2.5 0 0 1 1788.06,1059 L56.5,1059 A2.5,2.5 0 0 1 54,1056.5 L54,94.5 A2.5,2.5 0 0 1 56.5,92" fill="none" style="stroke:#000000;stroke-width:1.5;"/><line style="stroke:#000000;stroke-width:1.5;" x1="54" x2="81.8203" y1="114.2969" y2="114.2969"/><text fill="#000000" font-family="sans-serif" font-size="14" font-weight="bold" lengthAdjust="spacing" textLength="14.8203" x="58" y="106.9951">bj</text></g><!--cluster swiyu--><g class="cluster" data-entity="swiyu" data-source-line="6" data-uid="ent0006" id="cluster_swiyu"><path d="M80.5,135 L126.6582,135 A3.75,3.75 0 0 1 129.1582,137.5 L136.1582,157.2969 L1764.06,157.2969 A2.5,2.5 0 0 1 1766.56,159.7969 L1766.56,1032.5 A2.5,2.5 0 0 1 1764.06,1035 L80.5,1035 A2.5,2.5 0 0 1 78,1032.5 L78,137.5 A2.5,2.5 0 0 1 80.5,135" fill="none" style="stroke:#000000;stroke-width:1.5;"/><line style="stroke:#000000;stroke-width:1.5;" x1="78" x2="136.1582" y1="157.2969" y2="157.2969"/><text fill="#000000" font-family="sans-serif" font-size="14" font-weight="bold" lengthAdjust="spacing" textLength="45.1582" x="82" y="149.9951">swiyu</text></g><!--cluster didtoolbox--><g class="cluster" data-entity="didtoolbox" data-source-line="6" data-uid="ent0007" id="cluster_didtoolbox"><path d="M104.5,178 L189.7393,178 A3.75,3.75 0 0 1 192.2393,180.5 L199.2393,200.2969 L1740.06,200.2969 A2.5,2.5 0 0 1 1742.56,202.7969 L1742.56,1008.5 A2.5,2.5 0 0 1 1740.06,1011 L104.5,1011 A2.5,2.5 0 0 1 102,1008.5 L102,180.5 A2.5,2.5 0 0 1 104.5,178" fill="none" style="stroke:#000000;stroke-width:1.5;"/><line style="stroke:#000000;stroke-width:1.5;" x1="102" x2="199.2393" y1="200.2969" y2="200.2969"/><text fill="#000000" font-family="sans-serif" font-size="14" font-weight="bold" lengthAdjust="spacing" textLength="84.2393" x="106" y="192.9951">didtoolbox</text></g><!--cluster context--><g class="cluster" data-entity="context" data-source-line="40" data-uid="ent0012" id="cluster_context"><path d="M630.73,221 L691.5239,221 A3.75,3.75 0 0 1 694.0239,223.5 L701.0239,243.2969 L1716.06,243.2969 A2.5,2.5 0 0 1 1718.56,245.7969 L1718.56,837.5 A2.5,2.5 0 0 1 1716.06,840 L630.73,840 A2.5,2.5 0 0 1 628.23,837.5 L628.23,223.5 A2.5,2.5 0 0 1 630.73,221" fill="none" style="stroke:#000000;stroke-width:1.5;"/><line style="stroke:#000000;stroke-width:1.5;" x1="628.23" x2="701.0239" y1="243.2969" y2="243.2969"/><text fill="#000000" font-family="sans-serif" font-size="14" font-weight="bold" lengthAdjust="spacing" textLength="59.7939" x="632.23" y="235.9951">context</text></g><!--cluster model--><g class="cluster" data-entity="model" data-source-line="122" data-uid="ent0025" id="cluster_model"><path d="M1469.08,904 L1518.6015,904 A3.75,3.75 0 0 1 1521.1015,906.5 L1528.1015,926.2969 L1644.38,926.2969 A2.5,2.5 0 0 1 1646.88,928.7969 L1646.88,984.5 A2.5,2.5 0 0 1 1644.38,987 L1469.08,987 A2.5,2.5 0 0 1 1466.58,984.5 L1466.58,906.5 A2.5,2.5 0 0 1 1469.08,904" fill="none" style="stroke:#000000;stroke-width:1.5;"/><line style="stroke:#000000;stroke-width:1.5;" x1="1466.58" x2="1528.1015" y1="926.2969" y2="926.2969"/><text fill="#000000" font-family="sans-serif" font-size="14" font-weight="bold" lengthAdjust="spacing" textLength="48.5215" x="1470.58" y="918.9951">model</text></g><!--cluster securosys--><g class="cluster" data-entity="securosys" data-source-line="128" data-uid="ent0027" id="cluster_securosys"><path d="M128.5,837 L207.9082,837 A3.75,3.75 0 0 1 210.4082,839.5 L217.4082,859.2969 L592.73,859.2969 A2.5,2.5 0 0 1 595.23,861.7969 L595.23,984.5 A2.5,2.5 0 0 1 592.73,987 L128.5,987 A2.5,2.5 0 0 1 126,984.5 L126,839.5 A2.5,2.5 0 0 1 128.5,837" fill="none" style="stroke:#000000;stroke-width:1.5;"/><line style="stroke:#000000;stroke-width:1.5;" x1="126" x2="217.4082" y1="859.2969" y2="859.2969"/><text fill="#000000" font-family="sans-serif" font-size="14" font-weight="bold" lengthAdjust="spacing" textLength="78.4082" x="130" y="851.9951">securosys</text></g><!--cluster primus--><g class="cluster" data-entity="primus" data-source-line="128" data-uid="ent0028" id="cluster_primus"><path d="M152.5,880 L208.1123,880 A3.75,3.75 0 0 1 210.6123,882.5 L217.6123,902.2969 L568.73,902.2969 A2.5,2.5 0 0 1 571.23,904.7969 L571.23,960.5 A2.5,2.5 0 0 1 568.73,963 L152.5,963 A2.5,2.5 0 0 1 150,960.5 L150,882.5 A2.5,2.5 0 0 1 152.5,880" fill="none" style="stroke:#000000;stroke-width:1.5;"/><line style="stroke:#000000;stroke-width:1.5;" x1="150" x2="217.6123" y1="902.2969" y2="902.2969"/><text fill="#000000" font-family="sans-serif" font-size="14" font-weight="bold" lengthAdjust="spacing" textLength="54.6123" x="154" y="894.9951">primus</text></g><!--class DalekEd25519VerificationMethodKeyProviderImpl--><g class="entity" data-entity="DalekEd25519VerificationMethodKeyProviderImpl" data-source-line="6" data-uid="ent0002" id="entity_DalekEd25519VerificationMethodKeyProviderImpl"><rect fill="#F1F1F1" height="32" rx="2.5" ry="2.5" style="stroke:#181818;stroke-width:0.5;" width="381.3096" x="684.41" y="896"/><ellipse cx="699.41" cy="912" fill="#ADD1B2" rx="11" ry="11" style="stroke:#181818;stroke-width:1;"/><path d="M702.3788,917.6406 Q701.8006,917.9375 701.16,918.0781 Q700.5194,918.2344 699.8163,918.2344 Q697.3163,918.2344 695.9881,916.5938 Q694.6756,914.9375 694.6756,911.8125 Q694.6756,908.6875 695.9881,907.0313 Q697.3163,905.375 699.8163,905.375 Q700.5194,905.375 701.16,905.5313 Q701.8163,905.6875 702.3788,905.9844 L702.3788,908.7031 Q701.7538,908.125 701.16,907.8594 Q700.5663,907.5781 699.9413,907.5781 Q698.5975,907.5781 697.91,908.6563 Q697.2225,909.7188 697.2225,911.8125 Q697.2225,913.9063 697.91,914.9844 Q698.5975,916.0469 699.9413,916.0469 Q700.5663,916.0469 701.16,915.7813 Q701.7538,915.5 702.3788,914.9219 L702.3788,917.6406 Z " fill="#000000"/><text fill="#000000" font-family="sans-serif" font-size="14" lengthAdjust="spacing" textLength="349.3096" x="713.41" y="916.8467">DalekEd25519VerificationMethodKeyProviderImpl</text></g><!--class Ed25519VerificationMethodKeyProviderImpl--><g class="entity" data-entity="Ed25519VerificationMethodKeyProviderImpl" data-source-line="17" data-uid="ent0008" id="entity_Ed25519VerificationMethodKeyProviderImpl"><rect fill="#F1F1F1" height="32" rx="2.5" ry="2.5" style="stroke:#181818;stroke-width:0.5;" width="341.3398" x="704.4" y="963"/><ellipse cx="719.4" cy="979" fill="#ADD1B2" rx="11" ry="11" style="stroke:#181818;stroke-width:1;"/><path d="M722.3688,984.6406 Q721.7906,984.9375 721.15,985.0781 Q720.5094,985.2344 719.8063,985.2344 Q717.3063,985.2344 715.9781,983.5938 Q714.6656,981.9375 714.6656,978.8125 Q714.6656,975.6875 715.9781,974.0313 Q717.3063,972.375 719.8063,972.375 Q720.5094,972.375 721.15,972.5313 Q721.8063,972.6875 722.3688,972.9844 L722.3688,975.7031 Q721.7438,975.125 721.15,974.8594 Q720.5563,974.5781 719.9313,974.5781 Q718.5875,974.5781 717.9,975.6563 Q717.2125,976.7188 717.2125,978.8125 Q717.2125,980.9063 717.9,981.9844 Q718.5875,983.0469 719.9313,983.0469 Q720.5563,983.0469 721.15,982.7813 Q721.7438,982.5 722.3688,981.9219 L722.3688,984.6406 Z " fill="#000000"/><text fill="#000000" font-family="sans-serif" font-size="14" lengthAdjust="spacing" textLength="309.3398" x="733.4" y="983.8467">Ed25519VerificationMethodKeyProviderImpl</text></g><!--class VerificationMethodKeyProvider--><g class="entity" data-entity="VerificationMethodKeyProvider" data-source-line="28" data-uid="ent0009" id="entity_VerificationMethodKeyProvider"><rect fill="#F1F1F1" height="32" rx="2.5" ry="2.5" style="stroke:#181818;stroke-width:0.5;" width="248.5283" x="1432.47" y="856"/><ellipse cx="1447.47" cy="872" fill="#B4A7E5" rx="11" ry="11" style="stroke:#181818;stroke-width:1;"/><path d="M1443.3919,867.7656 L1443.3919,865.6094 L1450.7825,865.6094 L1450.7825,867.7656 L1448.3138,867.7656 L1448.3138,875.8438 L1450.7825,875.8438 L1450.7825,878 L1443.3919,878 L1443.3919,875.8438 L1445.8606,875.8438 L1445.8606,867.7656 L1443.3919,867.7656 Z " fill="#000000"/><text fill="#000000" font-family="sans-serif" font-size="14" font-style="italic" lengthAdjust="spacing" textLength="216.5283" x="1461.47" y="876.8467">VerificationMethodKeyProvider</text></g><!--class VerificationMethodKeyProviderException--><g class="entity" data-entity="VerificationMethodKeyProviderException" data-source-line="36" data-uid="ent0010" id="entity_VerificationMethodKeyProviderException"><rect fill="#F1F1F1" height="32" rx="2.5" ry="2.5" style="stroke:#181818;stroke-width:0.5;" width="317.6738" x="201.78" y="501"/><ellipse cx="216.78" cy="517" fill="#ADD1B2" rx="11" ry="11" style="stroke:#181818;stroke-width:1;"/><path d="M219.7488,522.6406 Q219.1706,522.9375 218.53,523.0781 Q217.8894,523.2344 217.1863,523.2344 Q214.6863,523.2344 213.3581,521.5938 Q212.0456,519.9375 212.0456,516.8125 Q212.0456,513.6875 213.3581,512.0313 Q214.6863,510.375 217.1863,510.375 Q217.8894,510.375 218.53,510.5313 Q219.1863,510.6875 219.7488,510.9844 L219.7488,513.7031 Q219.1238,513.125 218.53,512.8594 Q217.9363,512.5781 217.3113,512.5781 Q215.9675,512.5781 215.28,513.6563 Q214.5925,514.7188 214.5925,516.8125 Q214.5925,518.9063 215.28,519.9844 Q215.9675,521.0469 217.3113,521.0469 Q217.9363,521.0469 218.53,520.7813 Q219.1238,520.5 219.7488,519.9219 L219.7488,522.6406 Z " fill="#000000"/><text fill="#000000" font-family="sans-serif" font-size="14" lengthAdjust="spacing" textLength="285.6738" x="230.78" y="521.8467">VerificationMethodKeyProviderException</text></g><!--class DidLogCreatorContext--><g class="entity" data-entity="DidLogCreatorContext" data-source-line="40" data-uid="ent0011" id="entity_DidLogCreatorContext"><rect fill="#F1F1F1" height="32" rx="2.5" ry="2.5" style="stroke:#181818;stroke-width:0.5;" width="188.4336" x="780.85" y="591"/><ellipse cx="795.85" cy="607" fill="#ADD1B2" rx="11" ry="11" style="stroke:#181818;stroke-width:1;"/><path d="M798.8188,612.6406 Q798.2406,612.9375 797.6,613.0781 Q796.9594,613.2344 796.2563,613.2344 Q793.7563,613.2344 792.4281,611.5938 Q791.1156,609.9375 791.1156,606.8125 Q791.1156,603.6875 792.4281,602.0313 Q793.7563,600.375 796.2563,600.375 Q796.9594,600.375 797.6,600.5313 Q798.2563,600.6875 798.8188,600.9844 L798.8188,603.7031 Q798.1938,603.125 797.6,602.8594 Q797.0063,602.5781 796.3813,602.5781 Q795.0375,602.5781 794.35,603.6563 Q793.6625,604.7188 793.6625,606.8125 Q793.6625,608.9063 794.35,609.9844 Q795.0375,611.0469 796.3813,611.0469 Q797.0063,611.0469 797.6,610.7813 Q798.1938,610.5 798.8188,609.9219 L798.8188,612.6406 Z " fill="#000000"/><text fill="#000000" font-family="sans-serif" font-size="14" lengthAdjust="spacing" textLength="156.4336" x="809.85" y="611.8467">DidLogCreatorContext</text></g><!--class DidLogCreatorContext$DidLogCreatorContextBuilder--><g class="entity" data-entity="DidLogCreatorContext.DidLogCreatorContextBuilder" data-source-line="45" data-uid="ent0013" id="entity_DidLogCreatorContext.DidLogCreatorContextBuilder"><rect fill="#F1F1F1" height="32" rx="2.5" ry="2.5" style="stroke:#181818;stroke-width:0.5;" width="403.2871" x="673.42" y="658"/><ellipse cx="688.42" cy="674" fill="#ADD1B2" rx="11" ry="11" style="stroke:#181818;stroke-width:1;"/><path d="M691.3888,679.6406 Q690.8106,679.9375 690.17,680.0781 Q689.5294,680.2344 688.8263,680.2344 Q686.3263,680.2344 684.9981,678.5938 Q683.6856,676.9375 683.6856,673.8125 Q683.6856,670.6875 684.9981,669.0313 Q686.3263,667.375 688.8263,667.375 Q689.5294,667.375 690.17,667.5313 Q690.8263,667.6875 691.3888,667.9844 L691.3888,670.7031 Q690.7638,670.125 690.17,669.8594 Q689.5763,669.5781 688.9513,669.5781 Q687.6075,669.5781 686.92,670.6563 Q686.2325,671.7188 686.2325,673.8125 Q686.2325,675.9063 686.92,676.9844 Q687.6075,678.0469 688.9513,678.0469 Q689.5763,678.0469 690.17,677.7813 Q690.7638,677.5 691.3888,676.9219 L691.3888,679.6406 Z " fill="#000000"/><text fill="#000000" font-family="sans-serif" font-size="14" lengthAdjust="spacing" textLength="371.2871" x="702.42" y="678.8467">DidLogCreatorContext$DidLogCreatorContextBuilder</text></g><!--class DidLogCreatorStrategy--><g class="entity" data-entity="DidLogCreatorStrategy" data-source-line="58" data-uid="ent0014" id="entity_DidLogCreatorStrategy"><rect fill="#F1F1F1" height="32" rx="2.5" ry="2.5" style="stroke:#181818;stroke-width:0.5;" width="193.3281" x="778.4" y="390"/><ellipse cx="793.4" cy="406" fill="#B4A7E5" rx="11" ry="11" style="stroke:#181818;stroke-width:1;"/><path d="M789.3219,401.7656 L789.3219,399.6094 L796.7125,399.6094 L796.7125,401.7656 L794.2438,401.7656 L794.2438,409.8438 L796.7125,409.8438 L796.7125,412 L789.3219,412 L789.3219,409.8438 L791.7906,409.8438 L791.7906,401.7656 L789.3219,401.7656 Z " fill="#000000"/><text fill="#000000" font-family="sans-serif" font-size="14" font-style="italic" lengthAdjust="spacing" textLength="161.3281" x="807.4" y="410.8467">DidLogCreatorStrategy</text></g><!--class DidLogCreatorStrategyException--><g class="entity" data-entity="DidLogCreatorStrategyException" data-source-line="64" data-uid="ent0015" id="entity_DidLogCreatorStrategyException"><rect fill="#F1F1F1" height="32" rx="2.5" ry="2.5" style="stroke:#181818;stroke-width:0.5;" width="262.4736" x="743.83" y="323"/><ellipse cx="758.83" cy="339" fill="#ADD1B2" rx="11" ry="11" style="stroke:#181818;stroke-width:1;"/><path d="M761.7988,344.6406 Q761.2206,344.9375 760.58,345.0781 Q759.9394,345.2344 759.2363,345.2344 Q756.7363,345.2344 755.4081,343.5938 Q754.0956,341.9375 754.0956,338.8125 Q754.0956,335.6875 755.4081,334.0313 Q756.7363,332.375 759.2363,332.375 Q759.9394,332.375 760.58,332.5313 Q761.2363,332.6875 761.7988,332.9844 L761.7988,335.7031 Q761.1738,335.125 760.58,334.8594 Q759.9863,334.5781 759.3613,334.5781 Q758.0175,334.5781 757.33,335.6563 Q756.6425,336.7188 756.6425,338.8125 Q756.6425,340.9063 757.33,341.9844 Q758.0175,343.0469 759.3613,343.0469 Q759.9863,343.0469 760.58,342.7813 Q761.1738,342.5 761.7988,341.9219 L761.7988,344.6406 Z " fill="#000000"/><text fill="#000000" font-family="sans-serif" font-size="14" lengthAdjust="spacing" textLength="230.4736" x="772.83" y="343.8467">DidLogCreatorStrategyException</text></g><!--class DidLogDeactivatorContext--><g class="entity" data-entity="DidLogDeactivatorContext" data-source-line="68" data-uid="ent0016" id="entity_DidLogDeactivatorContext"><rect fill="#F1F1F1" height="32" rx="2.5" ry="2.5" style="stroke:#181818;stroke-width:0.5;" width="217.623" x="766.25" y="524"/><ellipse cx="781.25" cy="540" fill="#ADD1B2" rx="11" ry="11" style="stroke:#181818;stroke-width:1;"/><path d="M784.2188,545.6406 Q783.6406,545.9375 783,546.0781 Q782.3594,546.2344 781.6563,546.2344 Q779.1563,546.2344 777.8281,544.5938 Q776.5156,542.9375 776.5156,539.8125 Q776.5156,536.6875 777.8281,535.0313 Q779.1563,533.375 781.6563,533.375 Q782.3594,533.375 783,533.5313 Q783.6563,533.6875 784.2188,533.9844 L784.2188,536.7031 Q783.5938,536.125 783,535.8594 Q782.4063,535.5781 781.7813,535.5781 Q780.4375,535.5781 779.75,536.6563 Q779.0625,537.7188 779.0625,539.8125 Q779.0625,541.9063 779.75,542.9844 Q780.4375,544.0469 781.7813,544.0469 Q782.4063,544.0469 783,543.7813 Q783.5938,543.5 784.2188,542.9219 L784.2188,545.6406 Z " fill="#000000"/><text fill="#000000" font-family="sans-serif" font-size="14" lengthAdjust="spacing" textLength="185.623" x="795.25" y="544.8467">DidLogDeactivatorContext</text></g><!--class DidLogDeactivatorContext$DidLogDeactivatorContextBuilder--><g class="entity" data-entity="DidLogDeactivatorContext.DidLogDeactivatorContextBuilder" data-source-line="74" data-uid="ent0017" id="entity_DidLogDeactivatorContext.DidLogDeactivatorContextBuilder"><rect fill="#F1F1F1" height="32" rx="2.5" ry="2.5" style="stroke:#181818;stroke-width:0.5;" width="461.666" x="644.23" y="457"/><ellipse cx="659.23" cy="473" fill="#ADD1B2" rx="11" ry="11" style="stroke:#181818;stroke-width:1;"/><path d="M662.1988,478.6406 Q661.6206,478.9375 660.98,479.0781 Q660.3394,479.2344 659.6363,479.2344 Q657.1363,479.2344 655.8081,477.5938 Q654.4956,475.9375 654.4956,472.8125 Q654.4956,469.6875 655.8081,468.0313 Q657.1363,466.375 659.6363,466.375 Q660.3394,466.375 660.98,466.5313 Q661.6363,466.6875 662.1988,466.9844 L662.1988,469.7031 Q661.5738,469.125 660.98,468.8594 Q660.3863,468.5781 659.7613,468.5781 Q658.4175,468.5781 657.73,469.6563 Q657.0425,470.7188 657.0425,472.8125 Q657.0425,474.9063 657.73,475.9844 Q658.4175,477.0469 659.7613,477.0469 Q660.3863,477.0469 660.98,476.7813 Q661.5738,476.5 662.1988,475.9219 L662.1988,478.6406 Z " fill="#000000"/><text fill="#000000" font-family="sans-serif" font-size="14" lengthAdjust="spacing" textLength="429.666" x="673.23" y="477.8467">DidLogDeactivatorContext$DidLogDeactivatorContextBuilder</text></g><!--class DidLogDeactivatorStrategy--><g class="entity" data-entity="DidLogDeactivatorStrategy" data-source-line="82" data-uid="ent0018" id="entity_DidLogDeactivatorStrategy"><rect fill="#F1F1F1" height="32" rx="2.5" ry="2.5" style="stroke:#181818;stroke-width:0.5;" width="222.5176" x="763.81" y="256"/><ellipse cx="778.81" cy="272" fill="#B4A7E5" rx="11" ry="11" style="stroke:#181818;stroke-width:1;"/><path d="M774.7319,267.7656 L774.7319,265.6094 L782.1225,265.6094 L782.1225,267.7656 L779.6538,267.7656 L779.6538,275.8438 L782.1225,275.8438 L782.1225,278 L774.7319,278 L774.7319,275.8438 L777.2006,275.8438 L777.2006,267.7656 L774.7319,267.7656 Z " fill="#000000"/><text fill="#000000" font-family="sans-serif" font-size="14" font-style="italic" lengthAdjust="spacing" textLength="190.5176" x="792.81" y="276.8467">DidLogDeactivatorStrategy</text></g><!--class DidLogDeactivatorStrategyException--><g class="entity" data-entity="DidLogDeactivatorStrategyException" data-source-line="89" data-uid="ent0019" id="entity_DidLogDeactivatorStrategyException"><rect fill="#F1F1F1" height="32" rx="2.5" ry="2.5" style="stroke:#181818;stroke-width:0.5;" width="291.6631" x="1410.9" y="390"/><ellipse cx="1425.9" cy="406" fill="#ADD1B2" rx="11" ry="11" style="stroke:#181818;stroke-width:1;"/><path d="M1428.8688,411.6406 Q1428.2906,411.9375 1427.65,412.0781 Q1427.0094,412.2344 1426.3063,412.2344 Q1423.8063,412.2344 1422.4781,410.5938 Q1421.1656,408.9375 1421.1656,405.8125 Q1421.1656,402.6875 1422.4781,401.0313 Q1423.8063,399.375 1426.3063,399.375 Q1427.0094,399.375 1427.65,399.5313 Q1428.3063,399.6875 1428.8688,399.9844 L1428.8688,402.7031 Q1428.2438,402.125 1427.65,401.8594 Q1427.0563,401.5781 1426.4313,401.5781 Q1425.0875,401.5781 1424.4,402.6563 Q1423.7125,403.7188 1423.7125,405.8125 Q1423.7125,407.9063 1424.4,408.9844 Q1425.0875,410.0469 1426.4313,410.0469 Q1427.0563,410.0469 1427.65,409.7813 Q1428.2438,409.5 1428.8688,408.9219 L1428.8688,411.6406 Z " fill="#000000"/><text fill="#000000" font-family="sans-serif" font-size="14" lengthAdjust="spacing" textLength="259.6631" x="1439.9" y="410.8467">DidLogDeactivatorStrategyException</text></g><!--class DidLogUpdaterContext--><g class="entity" data-entity="DidLogUpdaterContext" data-source-line="93" data-uid="ent0020" id="entity_DidLogUpdaterContext"><rect fill="#F1F1F1" height="32" rx="2.5" ry="2.5" style="stroke:#181818;stroke-width:0.5;" width="192.3574" x="778.89" y="792"/><ellipse cx="793.89" cy="808" fill="#ADD1B2" rx="11" ry="11" style="stroke:#181818;stroke-width:1;"/><path d="M796.8588,813.6406 Q796.2806,813.9375 795.64,814.0781 Q794.9994,814.2344 794.2963,814.2344 Q791.7963,814.2344 790.4681,812.5938 Q789.1556,810.9375 789.1556,807.8125 Q789.1556,804.6875 790.4681,803.0313 Q791.7963,801.375 794.2963,801.375 Q794.9994,801.375 795.64,801.5313 Q796.2963,801.6875 796.8588,801.9844 L796.8588,804.7031 Q796.2338,804.125 795.64,803.8594 Q795.0463,803.5781 794.4213,803.5781 Q793.0775,803.5781 792.39,804.6563 Q791.7025,805.7188 791.7025,807.8125 Q791.7025,809.9063 792.39,810.9844 Q793.0775,812.0469 794.4213,812.0469 Q795.0463,812.0469 795.64,811.7813 Q796.2338,811.5 796.8588,810.9219 L796.8588,813.6406 Z " fill="#000000"/><text fill="#000000" font-family="sans-serif" font-size="14" lengthAdjust="spacing" textLength="160.3574" x="807.89" y="812.8467">DidLogUpdaterContext</text></g><!--class DidLogUpdaterContext$DidLogUpdaterContextBuilder--><g class="entity" data-entity="DidLogUpdaterContext.DidLogUpdaterContextBuilder" data-source-line="99" data-uid="ent0021" id="entity_DidLogUpdaterContext.DidLogUpdaterContextBuilder"><rect fill="#F1F1F1" height="32" rx="2.5" ry="2.5" style="stroke:#181818;stroke-width:0.5;" width="411.1348" x="669.5" y="725"/><ellipse cx="684.5" cy="741" fill="#ADD1B2" rx="11" ry="11" style="stroke:#181818;stroke-width:1;"/><path d="M687.4688,746.6406 Q686.8906,746.9375 686.25,747.0781 Q685.6094,747.2344 684.9063,747.2344 Q682.4063,747.2344 681.0781,745.5938 Q679.7656,743.9375 679.7656,740.8125 Q679.7656,737.6875 681.0781,736.0313 Q682.4063,734.375 684.9063,734.375 Q685.6094,734.375 686.25,734.5313 Q686.9063,734.6875 687.4688,734.9844 L687.4688,737.7031 Q686.8438,737.125 686.25,736.8594 Q685.6563,736.5781 685.0313,736.5781 Q683.6875,736.5781 683,737.6563 Q682.3125,738.7188 682.3125,740.8125 Q682.3125,742.9063 683,743.9844 Q683.6875,745.0469 685.0313,745.0469 Q685.6563,745.0469 686.25,744.7813 Q686.8438,744.5 687.4688,743.9219 L687.4688,746.6406 Z " fill="#000000"/><text fill="#000000" font-family="sans-serif" font-size="14" lengthAdjust="spacing" textLength="379.1348" x="698.5" y="745.8467">DidLogUpdaterContext$DidLogUpdaterContextBuilder</text></g><!--class DidLogUpdaterStrategy--><g class="entity" data-entity="DidLogUpdaterStrategy" data-source-line="111" data-uid="ent0022" id="entity_DidLogUpdaterStrategy"><rect fill="#F1F1F1" height="32" rx="2.5" ry="2.5" style="stroke:#181818;stroke-width:0.5;" width="197.252" x="1458.1" y="323"/><ellipse cx="1473.1" cy="339" fill="#B4A7E5" rx="11" ry="11" style="stroke:#181818;stroke-width:1;"/><path d="M1469.0219,334.7656 L1469.0219,332.6094 L1476.4125,332.6094 L1476.4125,334.7656 L1473.9438,334.7656 L1473.9438,342.8438 L1476.4125,342.8438 L1476.4125,345 L1469.0219,345 L1469.0219,342.8438 L1471.4906,342.8438 L1471.4906,334.7656 L1469.0219,334.7656 Z " fill="#000000"/><text fill="#000000" font-family="sans-serif" font-size="14" font-style="italic" lengthAdjust="spacing" textLength="165.252" x="1487.1" y="343.8467">DidLogUpdaterStrategy</text></g><!--class DidLogUpdaterStrategyException--><g class="entity" data-entity="DidLogUpdaterStrategyException" data-source-line="118" data-uid="ent0023" id="entity_DidLogUpdaterStrategyException"><rect fill="#F1F1F1" height="32" rx="2.5" ry="2.5" style="stroke:#181818;stroke-width:0.5;" width="266.3975" x="1423.53" y="256"/><ellipse cx="1438.53" cy="272" fill="#ADD1B2" rx="11" ry="11" style="stroke:#181818;stroke-width:1;"/><path d="M1441.4988,277.6406 Q1440.9206,277.9375 1440.28,278.0781 Q1439.6394,278.2344 1438.9363,278.2344 Q1436.4363,278.2344 1435.1081,276.5938 Q1433.7956,274.9375 1433.7956,271.8125 Q1433.7956,268.6875 1435.1081,267.0313 Q1436.4363,265.375 1438.9363,265.375 Q1439.6394,265.375 1440.28,265.5313 Q1440.9363,265.6875 1441.4988,265.9844 L1441.4988,268.7031 Q1440.8738,268.125 1440.28,267.8594 Q1439.6863,267.5781 1439.0613,267.5781 Q1437.7175,267.5781 1437.03,268.6563 Q1436.3425,269.7188 1436.3425,271.8125 Q1436.3425,273.9063 1437.03,274.9844 Q1437.7175,276.0469 1439.0613,276.0469 Q1439.6863,276.0469 1440.28,275.7813 Q1440.8738,275.5 1441.4988,274.9219 L1441.4988,277.6406 Z " fill="#000000"/><text fill="#000000" font-family="sans-serif" font-size="14" lengthAdjust="spacing" textLength="234.3975" x="1452.53" y="276.8467">DidLogUpdaterStrategyException</text></g><!--class DidMethodEnum--><g class="entity" data-entity="DidMethodEnum" data-source-line="122" data-uid="ent0024" id="entity_DidMethodEnum"><rect fill="#F1F1F1" height="32" rx="2.5" ry="2.5" style="stroke:#181818;stroke-width:0.5;" width="148.293" x="1482.58" y="939"/><ellipse cx="1497.58" cy="955" fill="#EB937F" rx="11" ry="11" style="stroke:#181818;stroke-width:1;"/><path d="M1501.6894,961 L1493.9706,961 L1493.9706,948.6094 L1501.6894,948.6094 L1501.6894,950.7656 L1496.4238,950.7656 L1496.4238,953.4375 L1501.1894,953.4375 L1501.1894,955.5938 L1496.4238,955.5938 L1496.4238,958.8438 L1501.6894,958.8438 L1501.6894,961 Z " fill="#000000"/><text fill="#000000" font-family="sans-serif" font-size="14" lengthAdjust="spacing" textLength="116.293" x="1511.58" y="959.8467">DidMethodEnum</text></g><!--class PrimusEd25519VerificationMethodKeyProviderImpl--><g class="entity" data-entity="PrimusEd25519VerificationMethodKeyProviderImpl" data-source-line="128" data-uid="ent0026" id="entity_PrimusEd25519VerificationMethodKeyProviderImpl"><rect fill="#F1F1F1" height="32" rx="2.5" ry="2.5" style="stroke:#181818;stroke-width:0.5;" width="389.2324" x="166" y="915"/><ellipse cx="181" cy="931" fill="#ADD1B2" rx="11" ry="11" style="stroke:#181818;stroke-width:1;"/><path d="M183.9688,936.6406 Q183.3906,936.9375 182.75,937.0781 Q182.1094,937.2344 181.4063,937.2344 Q178.9063,937.2344 177.5781,935.5938 Q176.2656,933.9375 176.2656,930.8125 Q176.2656,927.6875 177.5781,926.0313 Q178.9063,924.375 181.4063,924.375 Q182.1094,924.375 182.75,924.5313 Q183.4063,924.6875 183.9688,924.9844 L183.9688,927.7031 Q183.3438,927.125 182.75,926.8594 Q182.1563,926.5781 181.5313,926.5781 Q180.1875,926.5781 179.5,927.6563 Q178.8125,928.7188 178.8125,930.8125 Q178.8125,932.9063 179.5,933.9844 Q180.1875,935.0469 181.5313,935.0469 Q182.1563,935.0469 182.75,934.7813 Q183.3438,934.5 183.9688,933.9219 L183.9688,936.6406 Z " fill="#000000"/><text fill="#000000" font-family="sans-serif" font-size="14" lengthAdjust="spacing" textLength="357.2324" x="195" y="935.8467">PrimusEd25519VerificationMethodKeyProviderImpl</text></g><!--link DalekEd25519VerificationMethodKeyProviderImpl to VerificationMethodKeyProvider--><g class="link" data-entity-1="DalekEd25519VerificationMethodKeyProviderImpl" data-entity-2="VerificationMethodKeyProvider" data-source-line="135" data-uid="lnk29" id="link_DalekEd25519VerificationMethodKeyProviderImpl_VerificationMethodKeyProvider"><path codeLine="135" d="M1065.49,928.43 C1079.59,933.11 1093.24,938.89 1105.9,946 C1124.06,956.19 1117.04,973.17 1135.9,982 C1160.55,993.55 1357.69,996.23 1380.9,982 C1405.97,966.62 1388.77,942.39 1410.9,923 C1429.04,907.1 1435.3965,901.8004 1458.0865,894.1804" fill="none" id="DalekEd25519VerificationMethodKeyProviderImpl-to-VerificationMethodKeyProvider" style="stroke:#181818;stroke-width:1;stroke-dasharray:7,7;"/><polygon fill="none" points="1475.15,888.45,1456.1764,888.4926,1459.9967,899.8683,1475.15,888.45" style="stroke:#181818;stroke-width:1;"/></g><!--link Ed25519VerificationMethodKeyProviderImpl to VerificationMethodKeyProvider--><g class="link" data-entity-1="Ed25519VerificationMethodKeyProviderImpl" data-entity-2="VerificationMethodKeyProvider" data-source-line="136" data-uid="lnk30" id="link_Ed25519VerificationMethodKeyProviderImpl_VerificationMethodKeyProvider"><path codeLine="136" d="M921.73,995.48 C1016.14,1026.46 1236.07,1082.26 1380.9,989 C1407.99,971.56 1387.13,944.76 1410.9,923 C1428.3,907.07 1433.9463,901.8784 1456.1663,894.2884" fill="none" id="Ed25519VerificationMethodKeyProviderImpl-to-VerificationMethodKeyProvider" style="stroke:#181818;stroke-width:1;stroke-dasharray:7,7;"/><polygon fill="none" points="1473.2,888.47,1454.2269,888.6105,1458.1058,899.9663,1473.2,888.47" style="stroke:#181818;stroke-width:1;"/></g><!--link DidLogCreatorContext to VerificationMethodKeyProvider--><g class="link" data-entity-1="DidLogCreatorContext" data-entity-2="VerificationMethodKeyProvider" data-source-line="137" data-uid="lnk31" id="link_DidLogCreatorContext_VerificationMethodKeyProvider"><path codeLine="137" d="M969.62,596.23 C1107.16,581.4 1350.98,559.41 1380.9,586 C1465.86,661.52 1334.63,755.71 1410.9,840 C1417.03,846.78 1419.0312,849.3296 1426.9112,853.7996" fill="none" id="DidLogCreatorContext-to-VerificationMethodKeyProvider" style="stroke:#181818;stroke-width:1;"/><polygon fill="#181818" points="1432.13,856.76,1426.2754,848.8402,1427.781,854.293,1422.3282,855.7986,1432.13,856.76" style="stroke:#181818;stroke-width:1;"/><text fill="#000000" font-family="sans-serif" font-size="13" lengthAdjust="spacing" textLength="199.8623" x="1158.9" y="569.6069">verificationMethodKeyProvider</text></g><!--link DidLogCreatorContext to DidMethodEnum--><g class="link" data-entity-1="DidLogCreatorContext" data-entity-2="DidMethodEnum" data-source-line="138" data-uid="lnk32" id="link_DidLogCreatorContext_DidMethodEnum"><path codeLine="138" d="M969.61,607.3 C1107.47,608.67 1352.09,615.08 1380.9,643 C1427.74,688.4 1365.58,888.08 1410.9,935 C1429.15,953.9 1450.33,960.433 1476.22,961.933" fill="none" id="DidLogCreatorContext-to-DidMethodEnum" style="stroke:#181818;stroke-width:1;"/><polygon fill="#181818" points="1482.21,962.28,1473.4564,957.7661,1477.2184,961.9908,1472.9937,965.7527,1482.21,962.28" style="stroke:#181818;stroke-width:1;"/><text fill="#000000" font-family="sans-serif" font-size="13" lengthAdjust="spacing" textLength="68.8721" x="1224.4" y="607.4769">didMethod</text></g><!--link DidLogCreatorContext$DidLogCreatorContextBuilder to VerificationMethodKeyProvider--><g class="link" data-entity-1="DidLogCreatorContext.DidLogCreatorContextBuilder" data-entity-2="VerificationMethodKeyProvider" data-source-line="139" data-uid="lnk33" id="link_DidLogCreatorContext.DidLogCreatorContextBuilder_VerificationMethodKeyProvider"><path codeLine="139" d="M1076.95,672.89 C1207.4,674.12 1357.41,679.99 1380.9,700 C1429.34,741.27 1366.05,794.86 1410.9,840 C1417.16,846.3 1419.0944,848.6136 1426.8744,852.8636" fill="none" id="DidLogCreatorContext$DidLogCreatorContextBuilder-to-VerificationMethodKeyProvider" style="stroke:#181818;stroke-width:1;"/><polygon fill="#181818" points="1432.14,855.74,1426.1593,847.915,1427.752,853.343,1422.324,854.9357,1432.14,855.74" style="stroke:#181818;stroke-width:1;"/><text fill="#000000" font-family="sans-serif" font-size="13" lengthAdjust="spacing" textLength="243.6421" x="1136.9" y="669.9669">verificationMethodKeyProvider$value</text></g><!--link DidLogCreatorContext$DidLogCreatorContextBuilder to DidMethodEnum--><g class="link" data-entity-1="DidLogCreatorContext.DidLogCreatorContextBuilder" data-entity-2="DidMethodEnum" data-source-line="140" data-uid="lnk34" id="link_DidLogCreatorContext.DidLogCreatorContextBuilder_DidMethodEnum"><path codeLine="140" d="M1038.91,690.44 C1061.73,694.95 1084.63,700.69 1105.9,708 C1120.39,712.98 1121.36,720.14 1135.9,725 C1187.97,742.41 1341.36,718.9 1380.9,757 C1438.67,812.67 1353.33,879.12 1410.9,935 C1429.57,953.12 1450.5126,959.5518 1476.1126,961.2118" fill="none" id="DidLogCreatorContext$DidLogCreatorContextBuilder-to-DidMethodEnum" style="stroke:#181818;stroke-width:1;"/><polygon fill="#181818" points="1482.1,961.6,1473.3777,957.026,1477.1105,961.2765,1472.86,965.0092,1482.1,961.6" style="stroke:#181818;stroke-width:1;"/><text fill="#000000" font-family="sans-serif" font-size="13" lengthAdjust="spacing" textLength="112.6519" x="1202.4" y="721.0669">didMethod$value</text></g><!--link DidLogDeactivatorContext to VerificationMethodKeyProvider--><g class="link" data-entity-1="DidLogDeactivatorContext" data-entity-2="VerificationMethodKeyProvider" data-source-line="141" data-uid="lnk35" id="link_DidLogDeactivatorContext_VerificationMethodKeyProvider"><path codeLine="141" d="M984.22,539.41 C1024.4,535.33 1069.12,525.97 1105.9,506 C1123.61,496.39 1117.53,480.29 1135.9,472 C1185.52,449.61 1340.87,435.1 1380.9,472 C1441.23,527.61 1356.96,778.17 1410.9,840 C1416.99,846.99 1419.0354,849.6547 1426.9854,854.2147" fill="none" id="DidLogDeactivatorContext-to-VerificationMethodKeyProvider" style="stroke:#181818;stroke-width:1;"/><polygon fill="#181818" points="1432.19,857.2,1426.3733,849.2523,1427.8528,854.7123,1422.3929,856.1918,1432.19,857.2" style="stroke:#181818;stroke-width:1;"/><text fill="#000000" font-family="sans-serif" font-size="13" lengthAdjust="spacing" textLength="199.8623" x="1158.9" y="445.5069">verificationMethodKeyProvider</text></g><!--link DidLogDeactivatorContext to DidMethodEnum--><g class="link" data-entity-1="DidLogDeactivatorContext" data-entity-2="DidMethodEnum" data-source-line="142" data-uid="lnk36" id="link_DidLogDeactivatorContext_DidMethodEnum"><path codeLine="142" d="M984.28,529.81 C1123.97,517.84 1352.6,502.71 1380.9,529 C1447.18,590.57 1348.99,869.03 1410.9,935 C1428.96,954.25 1450.2589,960.8333 1476.2989,962.2533" fill="none" id="DidLogDeactivatorContext-to-DidMethodEnum" style="stroke:#181818;stroke-width:1;"/><polygon fill="#181818" points="1482.29,962.58,1473.5212,958.0959,1477.2974,962.3077,1473.0855,966.084,1482.29,962.58" style="stroke:#181818;stroke-width:1;"/><text fill="#000000" font-family="sans-serif" font-size="13" lengthAdjust="spacing" textLength="68.8721" x="1224.4" y="510.5469">didMethod</text></g><!--link DidLogDeactivatorContext$DidLogDeactivatorContextBuilder to VerificationMethodKeyProvider--><g class="link" data-entity-1="DidLogDeactivatorContext.DidLogDeactivatorContextBuilder" data-entity-2="VerificationMethodKeyProvider" data-source-line="143" data-uid="lnk37" id="link_DidLogDeactivatorContext.DidLogDeactivatorContextBuilder_VerificationMethodKeyProvider"><path codeLine="143" d="M1078.46,456.52 C1088.21,451.65 1097.44,445.86 1105.9,439 C1135.71,414.82 1104.39,379.93 1135.9,358 C1180.58,326.9 1341.22,320.72 1380.9,358 C1459.11,431.49 1341.13,758.46 1410.9,840 C1416.93,847.04 1418.9288,849.7315 1426.8488,854.3215" fill="none" id="DidLogDeactivatorContext$DidLogDeactivatorContextBuilder-to-VerificationMethodKeyProvider" style="stroke:#181818;stroke-width:1;"/><polygon fill="#181818" points="1432.04,857.33,1426.2589,849.3564,1427.714,854.8229,1422.2475,856.278,1432.04,857.33" style="stroke:#181818;stroke-width:1;"/><text fill="#000000" font-family="sans-serif" font-size="13" lengthAdjust="spacing" textLength="243.6421" x="1136.9" y="328.3669">verificationMethodKeyProvider$value</text></g><!--link DidLogDeactivatorContext$DidLogDeactivatorContextBuilder to DidMethodEnum--><g class="link" data-entity-1="DidLogDeactivatorContext.DidLogDeactivatorContextBuilder" data-entity-2="DidMethodEnum" data-source-line="144" data-uid="lnk38" id="link_DidLogDeactivatorContext.DidLogDeactivatorContextBuilder_DidMethodEnum"><path codeLine="144" d="M1053.18,456.56 C1071.37,452 1089.26,446.25 1105.9,439 C1121.55,432.18 1119.79,420.65 1135.9,415 C1187.27,396.98 1341.31,377.63 1380.9,415 C1465.07,494.45 1332.37,849.96 1410.9,935 C1428.81,954.39 1450.0786,961.0081 1476.1386,962.4081" fill="none" id="DidLogDeactivatorContext$DidLogDeactivatorContextBuilder-to-DidMethodEnum" style="stroke:#181818;stroke-width:1;"/><polygon fill="#181818" points="1482.13,962.73,1473.3575,958.253,1477.1372,962.4618,1472.9284,966.2414,1482.13,962.73" style="stroke:#181818;stroke-width:1;"/><text fill="#000000" font-family="sans-serif" font-size="13" lengthAdjust="spacing" textLength="112.6519" x="1202.4" y="389.6969">didMethod$value</text></g><!--link DidLogUpdaterContext to VerificationMethodKeyProvider--><g class="link" data-entity-1="DidLogUpdaterContext" data-entity-2="VerificationMethodKeyProvider" data-source-line="145" data-uid="lnk39" id="link_DidLogUpdaterContext_VerificationMethodKeyProvider"><path codeLine="145" d="M971.49,795.56 C1015.95,794.66 1067.4,801.11 1105.9,828 C1131.65,845.99 1109.39,875.15 1135.9,892 C1227.79,950.41 1272.19,898.2 1380.9,892 C1397.52,891.05 1409.0188,890.1867 1426.2188,888.4967" fill="none" id="DidLogUpdaterContext-to-VerificationMethodKeyProvider" style="stroke:#181818;stroke-width:1;"/><polygon fill="#181818" points="1432.19,887.91,1422.842,884.8092,1427.214,888.3989,1423.6243,892.7709,1432.19,887.91" style="stroke:#181818;stroke-width:1;"/><text fill="#000000" font-family="sans-serif" font-size="13" lengthAdjust="spacing" textLength="199.8623" x="1158.9" y="888.0669">verificationMethodKeyProvider</text></g><!--link DidLogUpdaterContext to DidMethodEnum--><g class="link" data-entity-1="DidLogUpdaterContext" data-entity-2="DidMethodEnum" data-source-line="146" data-uid="lnk40" id="link_DidLogUpdaterContext_DidMethodEnum"><path codeLine="146" d="M971.48,792.35 C1017.14,790.33 1069.63,796.76 1105.9,828 C1149.19,865.29 1091.12,917.52 1135.9,953 C1245.02,1039.45 1419.2879,999.8147 1503.6579,973.2047" fill="none" id="DidLogUpdaterContext-to-DidMethodEnum" style="stroke:#181818;stroke-width:1;"/><polygon fill="#181818" points="1509.38,971.4,1499.5936,970.2924,1504.6115,972.904,1502,977.9219,1509.38,971.4" style="stroke:#181818;stroke-width:1;"/><text fill="#000000" font-family="sans-serif" font-size="13" lengthAdjust="spacing" textLength="68.8721" x="1224.4" y="949.0669">didMethod</text></g><!--link DidLogUpdaterContext$DidLogUpdaterContextBuilder to VerificationMethodKeyProvider--><g class="link" data-entity-1="DidLogUpdaterContext.DidLogUpdaterContextBuilder" data-entity-2="VerificationMethodKeyProvider" data-source-line="147" data-uid="lnk41" id="link_DidLogUpdaterContext.DidLogUpdaterContextBuilder_VerificationMethodKeyProvider"><path codeLine="147" d="M991.56,757.5 C1139.89,778.72 1378.68,812.99 1380.9,814 C1396.94,821.34 1395.13,832.08 1410.9,840 C1423.55,846.36 1431.6898,849.7908 1445.7198,853.8808" fill="none" id="DidLogUpdaterContext$DidLogUpdaterContextBuilder-to-VerificationMethodKeyProvider" style="stroke:#181818;stroke-width:1;"/><polygon fill="#181818" points="1451.48,855.56,1443.9591,849.201,1446.6798,854.1607,1441.7202,856.8813,1451.48,855.56" style="stroke:#181818;stroke-width:1;"/><text fill="#000000" font-family="sans-serif" font-size="13" lengthAdjust="spacing" textLength="243.6421" x="1136.9" y="775.1869">verificationMethodKeyProvider$value</text></g><!--link DidLogUpdaterContext$DidLogUpdaterContextBuilder to DidMethodEnum--><g class="link" data-entity-1="DidLogUpdaterContext.DidLogUpdaterContextBuilder" data-entity-2="DidMethodEnum" data-source-line="148" data-uid="lnk42" id="link_DidLogUpdaterContext.DidLogUpdaterContextBuilder_DidMethodEnum"><path codeLine="148" d="M1075.86,757.45 C1086.48,762.28 1096.59,768.08 1105.9,775 C1131.1,793.75 1110.54,820.46 1135.9,839 C1224.56,903.8 1292.24,806.2 1380.9,871 C1406.26,889.54 1385.6,916.37 1410.9,935 C1431.23,949.98 1451.6633,955.8023 1476.3533,957.9823" fill="none" id="DidLogUpdaterContext$DidLogUpdaterContextBuilder-to-DidMethodEnum" style="stroke:#181818;stroke-width:1;"/><polygon fill="#181818" points="1482.33,958.51,1473.7167,953.7339,1477.3494,958.0702,1473.0131,961.7029,1482.33,958.51" style="stroke:#181818;stroke-width:1;"/><text fill="#000000" font-family="sans-serif" font-size="13" lengthAdjust="spacing" textLength="112.6519" x="1202.4" y="835.0669">didMethod$value</text></g><!--link PrimusEd25519VerificationMethodKeyProviderImpl to Ed25519VerificationMethodKeyProviderImpl--><g class="link" data-entity-1="PrimusEd25519VerificationMethodKeyProviderImpl" data-entity-2="Ed25519VerificationMethodKeyProviderImpl" data-source-line="149" data-uid="lnk43" id="link_PrimusEd25519VerificationMethodKeyProviderImpl_Ed25519VerificationMethodKeyProviderImpl"><path codeLine="149" d="M537.61,947.49 C591.48,952.53 632.6985,956.3905 686.1585,961.4005" fill="none" id="PrimusEd25519VerificationMethodKeyProviderImpl-to-Ed25519VerificationMethodKeyProviderImpl" style="stroke:#181818;stroke-width:1;"/><polygon fill="none" points="704.08,963.08,686.7184,955.4267,685.5987,967.3743,704.08,963.08" style="stroke:#181818;stroke-width:1;"/></g><!--SRC=[xLbTRzem57rUVaMayR29OHMwFgmFaqPXMjTMgzOlQNr09hw0In8Zsw55NV_xxAI110BaWm2LzjJqElVUu-lZUnnZGq-QafcSzWVI99I39Ibp3SEmR2o4QGqG9WvrKVS1YKSwyH2XH39cTzaJQc4RXctIE3ggVxa5JdlKmjhx0kI0aJEON78sfWJugJEopMVZtNEFWarUpFSMdumak_Ae1FDubWGeqV4xGZaDgJKKg4s8m3yjqJXeD4vy9w6T8g44xRlKxQjiwoBvEA-chwiOZW_qnQnYGgAPMbZYKrT2drEf9y5wvWTpX3bshYHNtdMLAdWoFqNjZINsmmNx7-O2KMdWcZhmMGq_u356Kls3OaFcnwbh56yVNE3g5JqRB3qE8RxxfiPst_Jzxfjn7nbT95M12y-Mj8k5yavEGqNqhLFt2kIq423h8MnFKXlfCHsbgyW1s8s6ULHbX4klQrDBamASxzIU8jRFqqYK8NzC1nepIeoNT4pCHSAX6iEKXxa5M9vURtGMs2DlZbv3BBmQnlxFfTrmwPjGR4hF9AhMWVUm1QlPj996FeL2EEOpxWh9iINVtiB7iESWmPn_LaB4t8kG8sMBMBcexISBHdf4hMxAU1PJQ_iaKOkISzO_uO0buoU1CSQHggN7fWMz-Nq-dOyB4gd_e-kpWUoL96FJe_OyUwig3V1OGKG8ymAFucLN1XzdAR1Ye3mv05VEcBG7cBhQ510vTwveFEKIb3oSMYiqj5tFgQzBup02DehvRASEFSOj-3K6xhVX4FphJgpFDkLsqBZA7EN7qbPHEX9rbWqwynBnyqP4jO3zm3fUgMwly5PsoxNyN2sWvSqoWyOdvb0BfvQfFrckyK4l3vnITlI2aPAqlf5EwujeILYAmihO0ZLVEbwgZYGSXwN7e-GzjUYuz01Of1wB-2lB1X8rDfzqB0RVB_d8NfKixVAjjQWSrSZTgY8XrxUhsHw9DvfqMonLg7MRhYYoRVU_XFeMxe4tllmdzx_WQ92nzyMTIkbxSSoL9ECklYdImzhUDqK-JFc48HvslqGXNntAECNdGxARKtm-h6zD8ZFCChSqlePRBul1GXQMnAGmEUKm5Q9jI-5SFUTb47IBoDnJ8ZVmrUlMNUUWSnYntBMRjpywzSv1MiJ-LJmJ4u56d3gUG9V-dqm_26I_2jVW5BpD_JY6qD-lPe7jQ6pcvv5oOQoyCgtL2cNMr_mxGvR4ysDpAiX6ELUv9LUiCiQs1pl3lgQcsT4bN4Ji4UToeTiWxt9SS-mT_qgPmyPvEFSnk4SSp8niW_pByBcvTxpRAFODyAtecQXMMtiAI1lBC0RgqVIFTo9u3avRmlW7]--></g></svg>