<svg xmlns="http://www.w3.org/2000/svg" xmlns:xlink="http://www.w3.org/1999/xlink" contentStyleType="text/css" data-diagram-type="CLASS" height="1528.5px" preserveAspectRatio="none" style="width:2070px;height:1528px;background:#FFFFFF;" version="1.1" viewBox="0 0 2070 1528" width="2070.75px" zoomAndPan="magnify"><defs/><g><!--cluster ch--><g class="cluster" data-entity="ch" data-source-line="7" data-uid="ent0003" id="cluster_ch"><path d="M6.375,4.5 L20.8242,4.5 A2.8125,2.8125 0 0 1 22.6992,6.375 L27.9492,21.2227 L2064.3525,21.2227 A1.875,1.875 0 0 1 2066.2275,23.0977 L2066.2275,1521.375 A1.875,1.875 0 0 1 2064.3525,1523.25 L6.375,1523.25 A1.875,1.875 0 0 1 4.5,1521.375 L4.5,6.375 A1.875,1.875 0 0 1 6.375,4.5" fill="none" style="stroke:#000000;stroke-width:1.125;"/><line style="stroke:#000000;stroke-width:1.125;" x1="4.5" x2="27.9492" y1="21.2227" y2="21.2227"/><text fill="#000000" font-family="sans-serif" font-size="10.5" font-weight="bold" lengthAdjust="spacing" textLength="13.6992" x="7.5" y="15.7463">ch</text></g><!--cluster admin--><g class="cluster" data-entity="admin" data-source-line="7" data-uid="ent0004" id="cluster_admin"><path d="M24.375,36.75 L61.7417,36.75 A2.8125,2.8125 0 0 1 63.6167,38.625 L68.8667,53.4727 L2046.3525,53.4727 A1.875,1.875 0 0 1 2048.2275,55.3477 L2048.2275,1503.375 A1.875,1.875 0 0 1 2046.3525,1505.25 L24.375,1505.25 A1.875,1.875 0 0 1 22.5,1503.375 L22.5,38.625 A1.875,1.875 0 0 1 24.375,36.75" fill="none" style="stroke:#000000;stroke-width:1.125;"/><line style="stroke:#000000;stroke-width:1.125;" x1="22.5" x2="68.8667" y1="53.4727" y2="53.4727"/><text fill="#000000" font-family="sans-serif" font-size="10.5" font-weight="bold" lengthAdjust="spacing" textLength="36.6167" x="25.5" y="47.9963">admin</text></g><!--cluster bj--><g class="cluster" data-entity="bj" data-source-line="7" data-uid="ent0005" id="cluster_bj"><path d="M42.375,69 L54.2402,69 A2.8125,2.8125 0 0 1 56.1152,70.875 L61.3652,85.7227 L2028.3525,85.7227 A1.875,1.875 0 0 1 2030.2275,87.5977 L2030.2275,1485.375 A1.875,1.875 0 0 1 2028.3525,1487.25 L42.375,1487.25 A1.875,1.875 0 0 1 40.5,1485.375 L40.5,70.875 A1.875,1.875 0 0 1 42.375,69" fill="none" style="stroke:#000000;stroke-width:1.125;"/><line style="stroke:#000000;stroke-width:1.125;" x1="40.5" x2="61.3652" y1="85.7227" y2="85.7227"/><text fill="#000000" font-family="sans-serif" font-size="10.5" font-weight="bold" lengthAdjust="spacing" textLength="11.1152" x="43.5" y="80.2463">bj</text></g><!--cluster swiyu--><g class="cluster" data-entity="swiyu" data-source-line="7" data-uid="ent0006" id="cluster_swiyu"><path d="M60.375,101.25 L94.9937,101.25 A2.8125,2.8125 0 0 1 96.8687,103.125 L102.1187,117.9727 L2010.3525,117.9727 A1.875,1.875 0 0 1 2012.2275,119.8477 L2012.2275,1467.375 A1.875,1.875 0 0 1 2010.3525,1469.25 L60.375,1469.25 A1.875,1.875 0 0 1 58.5,1467.375 L58.5,103.125 A1.875,1.875 0 0 1 60.375,101.25" fill="none" style="stroke:#000000;stroke-width:1.125;"/><line style="stroke:#000000;stroke-width:1.125;" x1="58.5" x2="102.1187" y1="117.9727" y2="117.9727"/><text fill="#000000" font-family="sans-serif" font-size="10.5" font-weight="bold" lengthAdjust="spacing" textLength="33.8687" x="61.5" y="112.4963">swiyu</text></g><!--cluster didtoolbox--><g class="cluster" data-entity="didtoolbox" data-source-line="7" data-uid="ent0007" id="cluster_didtoolbox"><path d="M78.375,133.5 L142.3044,133.5 A2.8125,2.8125 0 0 1 144.1794,135.375 L149.4294,150.2227 L1992.3525,150.2227 A1.875,1.875 0 0 1 1994.2275,152.0977 L1994.2275,1449.375 A1.875,1.875 0 0 1 1992.3525,1451.25 L78.375,1451.25 A1.875,1.875 0 0 1 76.5,1449.375 L76.5,135.375 A1.875,1.875 0 0 1 78.375,133.5" fill="none" style="stroke:#000000;stroke-width:1.125;"/><line style="stroke:#000000;stroke-width:1.125;" x1="76.5" x2="149.4294" y1="150.2227" y2="150.2227"/><text fill="#000000" font-family="sans-serif" font-size="10.5" font-weight="bold" lengthAdjust="spacing" textLength="63.1794" x="79.5" y="144.7463">didtoolbox</text></g><!--cluster context--><g class="cluster" data-entity="context" data-source-line="114" data-uid="ent0025" id="cluster_context"><path d="M916.0425,687.75 L961.638,687.75 A2.8125,2.8125 0 0 1 963.513,689.625 L968.763,704.4727 L1641.6525,704.4727 A1.875,1.875 0 0 1 1643.5275,706.3477 L1643.5275,1099.875 A1.875,1.875 0 0 1 1641.6525,1101.75 L916.0425,1101.75 A1.875,1.875 0 0 1 914.1675,1099.875 L914.1675,689.625 A1.875,1.875 0 0 1 916.0425,687.75" fill="none" style="stroke:#000000;stroke-width:1.125;"/><line style="stroke:#000000;stroke-width:1.125;" x1="914.1675" x2="968.763" y1="704.4727" y2="704.4727"/><text fill="#000000" font-family="sans-serif" font-size="10.5" font-weight="bold" lengthAdjust="spacing" textLength="44.8455" x="917.1675" y="698.9963">context</text></g><!--cluster jcommander--><g class="cluster" data-entity="jcommander" data-source-line="163" data-uid="ent0035" id="cluster_jcommander"><path d="M162.2925,1028.25 L236.3374,1028.25 A2.8125,2.8125 0 0 1 238.2124,1030.125 L243.4624,1044.9727 L366.3075,1044.9727 A1.875,1.875 0 0 1 368.1825,1046.8477 L368.1825,1088.625 A1.875,1.875 0 0 1 366.3075,1090.5 L162.2925,1090.5 A1.875,1.875 0 0 1 160.4175,1088.625 L160.4175,1030.125 A1.875,1.875 0 0 1 162.2925,1028.25" fill="none" style="stroke:#000000;stroke-width:1.125;"/><line style="stroke:#000000;stroke-width:1.125;" x1="160.4175" x2="243.4624" y1="1044.9727" y2="1044.9727"/><text fill="#000000" font-family="sans-serif" font-size="10.5" font-weight="bold" lengthAdjust="spacing" textLength="73.2949" x="163.4175" y="1039.4963">jcommander</text></g><!--cluster model--><g class="cluster" data-entity="model" data-source-line="169" data-uid="ent0037" id="cluster_model"><path d="M1350.6675,1119.75 L1387.8086,1119.75 A2.8125,2.8125 0 0 1 1389.6836,1121.625 L1394.9336,1136.4727 L1974.3525,1136.4727 A1.875,1.875 0 0 1 1976.2275,1138.3477 L1976.2275,1431.375 A1.875,1.875 0 0 1 1974.3525,1433.25 L1350.6675,1433.25 A1.875,1.875 0 0 1 1348.7925,1431.375 L1348.7925,1121.625 A1.875,1.875 0 0 1 1350.6675,1119.75" fill="none" style="stroke:#000000;stroke-width:1.125;"/><line style="stroke:#000000;stroke-width:1.125;" x1="1348.7925" x2="1394.9336" y1="1136.4727" y2="1136.4727"/><text fill="#000000" font-family="sans-serif" font-size="10.5" font-weight="bold" lengthAdjust="spacing" textLength="36.3911" x="1351.7925" y="1130.9963">model</text></g><!--cluster securosys--><g class="cluster" data-entity="securosys" data-source-line="210" data-uid="ent0046" id="cluster_securosys"><path d="M96.375,296.25 L155.9312,296.25 A2.8125,2.8125 0 0 1 157.8062,298.125 L163.0562,312.9727 L839.6625,312.9727 A1.875,1.875 0 0 1 841.5375,314.8477 L841.5375,507.375 A1.875,1.875 0 0 1 839.6625,509.25 L96.375,509.25 A1.875,1.875 0 0 1 94.5,507.375 L94.5,298.125 A1.875,1.875 0 0 1 96.375,296.25" fill="none" style="stroke:#000000;stroke-width:1.125;"/><line style="stroke:#000000;stroke-width:1.125;" x1="94.5" x2="163.0562" y1="312.9727" y2="312.9727"/><text fill="#000000" font-family="sans-serif" font-size="10.5" font-weight="bold" lengthAdjust="spacing" textLength="58.8062" x="97.5" y="307.4963">securosys</text></g><!--cluster primus--><g class="cluster" data-entity="primus" data-source-line="210" data-uid="ent0047" id="cluster_primus"><path d="M114.375,328.5 L156.0842,328.5 A2.8125,2.8125 0 0 1 157.9592,330.375 L163.2092,345.2227 L821.6625,345.2227 A1.875,1.875 0 0 1 823.5375,347.0977 L823.5375,489.375 A1.875,1.875 0 0 1 821.6625,491.25 L114.375,491.25 A1.875,1.875 0 0 1 112.5,489.375 L112.5,330.375 A1.875,1.875 0 0 1 114.375,328.5" fill="none" style="stroke:#000000;stroke-width:1.125;"/><line style="stroke:#000000;stroke-width:1.125;" x1="112.5" x2="163.2092" y1="345.2227" y2="345.2227"/><text fill="#000000" font-family="sans-serif" font-size="10.5" font-weight="bold" lengthAdjust="spacing" textLength="40.9592" x="115.5" y="339.7463">primus</text></g><!--cluster webvh--><g class="cluster" data-entity="webvh" data-source-line="236" data-uid="ent0053" id="cluster_webvh"><path d="M549.8775,735.75 L589.2847,735.75 A2.8125,2.8125 0 0 1 591.1597,737.625 L596.4097,752.4727 L766.2525,752.4727 A1.875,1.875 0 0 1 768.1275,754.3477 L768.1275,896.625 A1.875,1.875 0 0 1 766.2525,898.5 L549.8775,898.5 A1.875,1.875 0 0 1 548.0025,896.625 L548.0025,737.625 A1.875,1.875 0 0 1 549.8775,735.75" fill="none" style="stroke:#000000;stroke-width:1.125;"/><line style="stroke:#000000;stroke-width:1.125;" x1="548.0025" x2="596.4097" y1="752.4727" y2="752.4727"/><text fill="#000000" font-family="sans-serif" font-size="10.5" font-weight="bold" lengthAdjust="spacing" textLength="38.6572" x="551.0025" y="746.9963">webvh</text></g><!--class Ed25519ProofOfPossessionJWSSignerImpl--><g class="entity" data-entity="Ed25519ProofOfPossessionJWSSignerImpl" data-source-line="7" data-uid="ent0002" id="entity_Ed25519ProofOfPossessionJWSSignerImpl"><rect fill="#F1F1F1" height="24" rx="1.875" ry="1.875" style="stroke:#181818;stroke-width:0.375;" width="243.6797" x="536.2275" y="521.25"/><ellipse cx="547.4775" cy="533.25" fill="#ADD1B2" rx="8.25" ry="8.25" style="stroke:#181818;stroke-width:0.75;"/><path d="M549.7041,537.4805 Q549.2705,537.7031 548.79,537.8086 Q548.3095,537.9258 547.7822,537.9258 Q545.9072,537.9258 544.9111,536.6953 Q543.9267,535.4531 543.9267,533.1094 Q543.9267,530.7656 544.9111,529.5234 Q545.9072,528.2813 547.7822,528.2813 Q548.3095,528.2813 548.79,528.3984 Q549.2822,528.5156 549.7041,528.7383 L549.7041,530.7773 Q549.2353,530.3438 548.79,530.1445 Q548.3447,529.9336 547.8759,529.9336 Q546.8681,529.9336 546.3525,530.7422 Q545.8369,531.5391 545.8369,533.1094 Q545.8369,534.6797 546.3525,535.4883 Q546.8681,536.2852 547.8759,536.2852 Q548.3447,536.2852 548.79,536.0859 Q549.2353,535.875 549.7041,535.4414 L549.7041,537.4805 Z " fill="#000000"/><text fill="#000000" font-family="sans-serif" font-size="10.5" lengthAdjust="spacing" textLength="219.6797" x="557.9775" y="536.885">Ed25519ProofOfPossessionJWSSignerImpl</text></g><!--class Ed25519VerificationMethodKeyProviderImpl--><g class="entity" data-entity="Ed25519VerificationMethodKeyProviderImpl" data-source-line="12" data-uid="ent0008" id="entity_Ed25519VerificationMethodKeyProviderImpl"><rect fill="#F1F1F1" height="24" rx="1.875" ry="1.875" style="stroke:#181818;stroke-width:0.375;" width="256.0049" x="907.5375" y="210"/><ellipse cx="918.7875" cy="222" fill="#ADD1B2" rx="8.25" ry="8.25" style="stroke:#181818;stroke-width:0.75;"/><path d="M921.0141,226.2305 Q920.5805,226.4531 920.1,226.5586 Q919.6195,226.6758 919.0922,226.6758 Q917.2172,226.6758 916.2211,225.4453 Q915.2367,224.2031 915.2367,221.8594 Q915.2367,219.5156 916.2211,218.2734 Q917.2172,217.0313 919.0922,217.0313 Q919.6195,217.0313 920.1,217.1484 Q920.5922,217.2656 921.0141,217.4883 L921.0141,219.5273 Q920.5453,219.0938 920.1,218.8945 Q919.6547,218.6836 919.1859,218.6836 Q918.1781,218.6836 917.6625,219.4922 Q917.1469,220.2891 917.1469,221.8594 Q917.1469,223.4297 917.6625,224.2383 Q918.1781,225.0352 919.1859,225.0352 Q919.6547,225.0352 920.1,224.8359 Q920.5453,224.625 921.0141,224.1914 L921.0141,226.2305 Z " fill="#000000"/><text fill="#000000" font-family="sans-serif" font-size="10.5" lengthAdjust="spacing" textLength="232.0049" x="929.2875" y="225.635">Ed25519VerificationMethodKeyProviderImpl</text></g><!--class InvalidDidLogException--><g class="entity" data-entity="InvalidDidLogException" data-source-line="22" data-uid="ent0009" id="entity_InvalidDidLogException"><rect fill="#F1F1F1" height="24" rx="1.875" ry="1.875" style="stroke:#181818;stroke-width:0.375;" width="147.3647" x="190.62" y="260.25"/><ellipse cx="201.87" cy="272.25" fill="#ADD1B2" rx="8.25" ry="8.25" style="stroke:#181818;stroke-width:0.75;"/><path d="M204.0966,276.4805 Q203.663,276.7031 203.1825,276.8086 Q202.702,276.9258 202.1747,276.9258 Q200.2997,276.9258 199.3036,275.6953 Q198.3192,274.4531 198.3192,272.1094 Q198.3192,269.7656 199.3036,268.5234 Q200.2997,267.2813 202.1747,267.2813 Q202.702,267.2813 203.1825,267.3984 Q203.6747,267.5156 204.0966,267.7383 L204.0966,269.7773 Q203.6278,269.3438 203.1825,269.1445 Q202.7372,268.9336 202.2684,268.9336 Q201.2606,268.9336 200.745,269.7422 Q200.2294,270.5391 200.2294,272.1094 Q200.2294,273.6797 200.745,274.4883 Q201.2606,275.2852 202.2684,275.2852 Q202.7372,275.2852 203.1825,275.0859 Q203.6278,274.875 204.0966,274.4414 L204.0966,276.4805 Z " fill="#000000"/><text fill="#000000" font-family="sans-serif" font-size="10.5" lengthAdjust="spacing" textLength="123.3647" x="212.37" y="275.885">InvalidDidLogException</text></g><!--class JCSHasher--><g class="entity" data-entity="JCSHasher" data-source-line="26" data-uid="ent0010" id="entity_JCSHasher"><rect fill="#F1F1F1" height="24" rx="1.875" ry="1.875" style="stroke:#181818;stroke-width:0.375;" width="78.3252" x="225.135" y="210"/><ellipse cx="236.385" cy="222" fill="#ADD1B2" rx="8.25" ry="8.25" style="stroke:#181818;stroke-width:0.75;"/><path d="M238.6116,226.2305 Q238.178,226.4531 237.6975,226.5586 Q237.217,226.6758 236.6897,226.6758 Q234.8147,226.6758 233.8186,225.4453 Q232.8342,224.2031 232.8342,221.8594 Q232.8342,219.5156 233.8186,218.2734 Q234.8147,217.0313 236.6897,217.0313 Q237.217,217.0313 237.6975,217.1484 Q238.1897,217.2656 238.6116,217.4883 L238.6116,219.5273 Q238.1428,219.0938 237.6975,218.8945 Q237.2522,218.6836 236.7834,218.6836 Q235.7756,218.6836 235.26,219.4922 Q234.7444,220.2891 234.7444,221.8594 Q234.7444,223.4297 235.26,224.2383 Q235.7756,225.0352 236.7834,225.0352 Q237.2522,225.0352 237.6975,224.8359 Q238.1428,224.625 238.6116,224.1914 L238.6116,226.2305 Z " fill="#000000"/><text fill="#000000" font-family="sans-serif" font-size="10.5" lengthAdjust="spacing" textLength="54.3252" x="246.885" y="225.635">JCSHasher</text></g><!--class Main--><g class="entity" data-entity="Main" data-source-line="30" data-uid="ent0011" id="entity_Main"><rect fill="#F1F1F1" height="24" rx="1.875" ry="1.875" style="stroke:#181818;stroke-width:0.375;" width="49.0657" x="239.7675" y="159.75"/><ellipse cx="251.0175" cy="171.75" fill="#ADD1B2" rx="8.25" ry="8.25" style="stroke:#181818;stroke-width:0.75;"/><path d="M253.2441,175.9805 Q252.8105,176.2031 252.33,176.3086 Q251.8495,176.4258 251.3222,176.4258 Q249.4472,176.4258 248.4511,175.1953 Q247.4667,173.9531 247.4667,171.6094 Q247.4667,169.2656 248.4511,168.0234 Q249.4472,166.7813 251.3222,166.7813 Q251.8495,166.7813 252.33,166.8984 Q252.8222,167.0156 253.2441,167.2383 L253.2441,169.2773 Q252.7753,168.8438 252.33,168.6445 Q251.8847,168.4336 251.4159,168.4336 Q250.4081,168.4336 249.8925,169.2422 Q249.3769,170.0391 249.3769,171.6094 Q249.3769,173.1797 249.8925,173.9883 Q250.4081,174.7852 251.4159,174.7852 Q251.8847,174.7852 252.33,174.5859 Q252.7753,174.375 253.2441,173.9414 L253.2441,175.9805 Z " fill="#000000"/><text fill="#000000" font-family="sans-serif" font-size="10.5" lengthAdjust="spacing" textLength="25.0657" x="261.5175" y="175.385">Main</text></g><!--class ProofOfPossessionCreator--><g class="entity" data-entity="ProofOfPossessionCreator" data-source-line="34" data-uid="ent0012" id="entity_ProofOfPossessionCreator"><rect fill="#F1F1F1" height="24" rx="1.875" ry="1.875" style="stroke:#181818;stroke-width:0.375;" width="159.6489" x="578.2425" y="599.25"/><ellipse cx="589.4925" cy="611.25" fill="#ADD1B2" rx="8.25" ry="8.25" style="stroke:#181818;stroke-width:0.75;"/><path d="M591.7191,615.4805 Q591.2855,615.7031 590.805,615.8086 Q590.3245,615.9258 589.7972,615.9258 Q587.9222,615.9258 586.9261,614.6953 Q585.9417,613.4531 585.9417,611.1094 Q585.9417,608.7656 586.9261,607.5234 Q587.9222,606.2813 589.7972,606.2813 Q590.3245,606.2813 590.805,606.3984 Q591.2972,606.5156 591.7191,606.7383 L591.7191,608.7773 Q591.2503,608.3438 590.805,608.1445 Q590.3597,607.9336 589.8909,607.9336 Q588.8831,607.9336 588.3675,608.7422 Q587.8519,609.5391 587.8519,611.1094 Q587.8519,612.6797 588.3675,613.4883 Q588.8831,614.2852 589.8909,614.2852 Q590.3597,614.2852 590.805,614.0859 Q591.2503,613.875 591.7191,613.4414 L591.7191,615.4805 Z " fill="#000000"/><text fill="#000000" font-family="sans-serif" font-size="10.5" lengthAdjust="spacing" textLength="135.6489" x="599.9925" y="614.885">ProofOfPossessionCreator</text></g><!--class ProofOfPossessionCreatorException--><g class="entity" data-entity="ProofOfPossessionCreatorException" data-source-line="39" data-uid="ent0013" id="entity_ProofOfPossessionCreatorException"><rect fill="#F1F1F1" height="24" rx="1.875" ry="1.875" style="stroke:#181818;stroke-width:0.375;" width="211.5081" x="552.315" y="260.25"/><ellipse cx="563.565" cy="272.25" fill="#ADD1B2" rx="8.25" ry="8.25" style="stroke:#181818;stroke-width:0.75;"/><path d="M565.7916,276.4805 Q565.358,276.7031 564.8775,276.8086 Q564.397,276.9258 563.8697,276.9258 Q561.9947,276.9258 560.9986,275.6953 Q560.0142,274.4531 560.0142,272.1094 Q560.0142,269.7656 560.9986,268.5234 Q561.9947,267.2813 563.8697,267.2813 Q564.397,267.2813 564.8775,267.3984 Q565.3697,267.5156 565.7916,267.7383 L565.7916,269.7773 Q565.3228,269.3438 564.8775,269.1445 Q564.4322,268.9336 563.9634,268.9336 Q562.9556,268.9336 562.44,269.7422 Q561.9244,270.5391 561.9244,272.1094 Q561.9244,273.6797 562.44,274.4883 Q562.9556,275.2852 563.9634,275.2852 Q564.4322,275.2852 564.8775,275.0859 Q565.3228,274.875 565.7916,274.4414 L565.7916,276.4805 Z " fill="#000000"/><text fill="#000000" font-family="sans-serif" font-size="10.5" lengthAdjust="spacing" textLength="187.5081" x="574.065" y="275.885">ProofOfPossessionCreatorException</text></g><!--class ProofOfPossessionJWSSigner--><g class="entity" data-entity="ProofOfPossessionJWSSigner" data-source-line="43" data-uid="ent0014" id="entity_ProofOfPossessionJWSSigner"><rect fill="#F1F1F1" height="24" rx="1.875" ry="1.875" style="stroke:#181818;stroke-width:0.375;" width="174.071" x="948.5025" y="260.25"/><ellipse cx="959.7525" cy="272.25" fill="#B4A7E5" rx="8.25" ry="8.25" style="stroke:#181818;stroke-width:0.75;"/><path d="M956.6939,269.0742 L956.6939,267.457 L962.2369,267.457 L962.2369,269.0742 L960.3853,269.0742 L960.3853,275.1328 L962.2369,275.1328 L962.2369,276.75 L956.6939,276.75 L956.6939,275.1328 L958.5455,275.1328 L958.5455,269.0742 L956.6939,269.0742 Z " fill="#000000"/><text fill="#000000" font-family="sans-serif" font-size="10.5" font-style="italic" lengthAdjust="spacing" textLength="150.071" x="970.2525" y="275.885">ProofOfPossessionJWSSigner</text></g><!--class ProofOfPossessionVerifier--><g class="entity" data-entity="ProofOfPossessionVerifier" data-source-line="49" data-uid="ent0015" id="entity_ProofOfPossessionVerifier"><rect fill="#F1F1F1" height="24" rx="1.875" ry="1.875" style="stroke:#181818;stroke-width:0.375;" width="158.5159" x="578.8125" y="210"/><ellipse cx="590.0625" cy="222" fill="#ADD1B2" rx="8.25" ry="8.25" style="stroke:#181818;stroke-width:0.75;"/><path d="M592.2891,226.2305 Q591.8555,226.4531 591.375,226.5586 Q590.8945,226.6758 590.3672,226.6758 Q588.4922,226.6758 587.4961,225.4453 Q586.5117,224.2031 586.5117,221.8594 Q586.5117,219.5156 587.4961,218.2734 Q588.4922,217.0313 590.3672,217.0313 Q590.8945,217.0313 591.375,217.1484 Q591.8672,217.2656 592.2891,217.4883 L592.2891,219.5273 Q591.8203,219.0938 591.375,218.8945 Q590.9297,218.6836 590.4609,218.6836 Q589.4531,218.6836 588.9375,219.4922 Q588.4219,220.2891 588.4219,221.8594 Q588.4219,223.4297 588.9375,224.2383 Q589.4531,225.0352 590.4609,225.0352 Q590.9297,225.0352 591.375,224.8359 Q591.8203,224.625 592.2891,224.1914 L592.2891,226.2305 Z " fill="#000000"/><text fill="#000000" font-family="sans-serif" font-size="10.5" lengthAdjust="spacing" textLength="134.5159" x="600.5625" y="225.635">ProofOfPossessionVerifier</text></g><!--class ProofOfPossessionVerifierException--><g class="entity" data-entity="ProofOfPossessionVerifierException" data-source-line="55" data-uid="ent0016" id="entity_ProofOfPossessionVerifierException"><rect fill="#F1F1F1" height="24" rx="1.875" ry="1.875" style="stroke:#181818;stroke-width:0.375;" width="210.375" x="159.1125" y="649.5"/><ellipse cx="170.3625" cy="661.5" fill="#ADD1B2" rx="8.25" ry="8.25" style="stroke:#181818;stroke-width:0.75;"/><path d="M172.5891,665.7305 Q172.1555,665.9531 171.675,666.0586 Q171.1945,666.1758 170.6672,666.1758 Q168.7922,666.1758 167.7961,664.9453 Q166.8117,663.7031 166.8117,661.3594 Q166.8117,659.0156 167.7961,657.7734 Q168.7922,656.5313 170.6672,656.5313 Q171.1945,656.5313 171.675,656.6484 Q172.1672,656.7656 172.5891,656.9883 L172.5891,659.0273 Q172.1203,658.5938 171.675,658.3945 Q171.2297,658.1836 170.7609,658.1836 Q169.7531,658.1836 169.2375,658.9922 Q168.7219,659.7891 168.7219,661.3594 Q168.7219,662.9297 169.2375,663.7383 Q169.7531,664.5352 170.7609,664.5352 Q171.2297,664.5352 171.675,664.3359 Q172.1203,664.125 172.5891,663.6914 L172.5891,665.7305 Z " fill="#000000"/><text fill="#000000" font-family="sans-serif" font-size="10.5" lengthAdjust="spacing" textLength="186.375" x="180.8625" y="665.135">ProofOfPossessionVerifierException</text></g><!--class ProofOfPossessionVerifierException$ErrorCause--><g class="entity" data-entity="ProofOfPossessionVerifierException.ErrorCause" data-source-line="59" data-uid="ent0017" id="entity_ProofOfPossessionVerifierException.ErrorCause"><rect fill="#F1F1F1" height="24" rx="1.875" ry="1.875" style="stroke:#181818;stroke-width:0.375;" width="275.4155" x="520.3575" y="649.5"/><ellipse cx="531.6075" cy="661.5" fill="#EB937F" rx="8.25" ry="8.25" style="stroke:#181818;stroke-width:0.75;"/><path d="M534.6895,666 L528.9005,666 L528.9005,656.707 L534.6895,656.707 L534.6895,658.3242 L530.7403,658.3242 L530.7403,660.3281 L534.3145,660.3281 L534.3145,661.9453 L530.7403,661.9453 L530.7403,664.3828 L534.6895,664.3828 L534.6895,666 Z " fill="#000000"/><text fill="#000000" font-family="sans-serif" font-size="10.5" lengthAdjust="spacing" textLength="251.4155" x="542.1075" y="665.135">ProofOfPossessionVerifierException$ErrorCause</text></g><!--class TdwCreator--><g class="entity" data-entity="TdwCreator" data-source-line="71" data-uid="ent0018" id="entity_TdwCreator"><rect fill="#F1F1F1" height="24" rx="1.875" ry="1.875" style="stroke:#181818;stroke-width:0.375;" width="85.0671" x="615.5325" y="963"/><ellipse cx="626.7825" cy="975" fill="#ADD1B2" rx="8.25" ry="8.25" style="stroke:#181818;stroke-width:0.75;"/><path d="M629.0091,979.2305 Q628.5755,979.4531 628.095,979.5586 Q627.6145,979.6758 627.0872,979.6758 Q625.2122,979.6758 624.2161,978.4453 Q623.2317,977.2031 623.2317,974.8594 Q623.2317,972.5156 624.2161,971.2734 Q625.2122,970.0313 627.0872,970.0313 Q627.6145,970.0313 628.095,970.1484 Q628.5872,970.2656 629.0091,970.4883 L629.0091,972.5273 Q628.5403,972.0938 628.095,971.8945 Q627.6497,971.6836 627.1809,971.6836 Q626.1731,971.6836 625.6575,972.4922 Q625.1419,973.2891 625.1419,974.8594 Q625.1419,976.4297 625.6575,977.2383 Q626.1731,978.0352 627.1809,978.0352 Q627.6497,978.0352 628.095,977.8359 Q628.5403,977.625 629.0091,977.1914 L629.0091,979.2305 Z " fill="#000000"/><text fill="#000000" font-family="sans-serif" font-size="10.5" lengthAdjust="spacing" textLength="61.0671" x="637.2825" y="978.635">TdwCreator</text></g><!--class TdwDeactivator--><g class="entity" data-entity="TdwDeactivator" data-source-line="80" data-uid="ent0019" id="entity_TdwDeactivator"><rect fill="#F1F1F1" height="24" rx="1.875" ry="1.875" style="stroke:#181818;stroke-width:0.375;" width="106.9592" x="604.59" y="912.75"/><ellipse cx="615.84" cy="924.75" fill="#ADD1B2" rx="8.25" ry="8.25" style="stroke:#181818;stroke-width:0.75;"/><path d="M618.0666,928.9805 Q617.633,929.2031 617.1525,929.3086 Q616.672,929.4258 616.1447,929.4258 Q614.2697,929.4258 613.2736,928.1953 Q612.2892,926.9531 612.2892,924.6094 Q612.2892,922.2656 613.2736,921.0234 Q614.2697,919.7813 616.1447,919.7813 Q616.672,919.7813 617.1525,919.8984 Q617.6447,920.0156 618.0666,920.2383 L618.0666,922.2773 Q617.5978,921.8438 617.1525,921.6445 Q616.7072,921.4336 616.2384,921.4336 Q615.2306,921.4336 614.715,922.2422 Q614.1994,923.0391 614.1994,924.6094 Q614.1994,926.1797 614.715,926.9883 Q615.2306,927.7852 616.2384,927.7852 Q616.7072,927.7852 617.1525,927.5859 Q617.5978,927.375 618.0666,926.9414 L618.0666,928.9805 Z " fill="#000000"/><text fill="#000000" font-family="sans-serif" font-size="10.5" lengthAdjust="spacing" textLength="82.9592" x="626.34" y="928.385">TdwDeactivator</text></g><!--class TdwDeactivatorException--><g class="entity" data-entity="TdwDeactivatorException" data-source-line="90" data-uid="ent0020" id="entity_TdwDeactivatorException"><rect fill="#F1F1F1" height="24" rx="1.875" ry="1.875" style="stroke:#181818;stroke-width:0.375;" width="158.8184" x="578.655" y="159.75"/><ellipse cx="589.905" cy="171.75" fill="#ADD1B2" rx="8.25" ry="8.25" style="stroke:#181818;stroke-width:0.75;"/><path d="M592.1316,175.9805 Q591.698,176.2031 591.2175,176.3086 Q590.737,176.4258 590.2097,176.4258 Q588.3347,176.4258 587.3386,175.1953 Q586.3542,173.9531 586.3542,171.6094 Q586.3542,169.2656 587.3386,168.0234 Q588.3347,166.7813 590.2097,166.7813 Q590.737,166.7813 591.2175,166.8984 Q591.7097,167.0156 592.1316,167.2383 L592.1316,169.2773 Q591.6628,168.8438 591.2175,168.6445 Q590.7722,168.4336 590.3034,168.4336 Q589.2956,168.4336 588.78,169.2422 Q588.2644,170.0391 588.2644,171.6094 Q588.2644,173.1797 588.78,173.9883 Q589.2956,174.7852 590.3034,174.7852 Q590.7722,174.7852 591.2175,174.5859 Q591.6628,174.375 592.1316,173.9414 L592.1316,175.9805 Z " fill="#000000"/><text fill="#000000" font-family="sans-serif" font-size="10.5" lengthAdjust="spacing" textLength="134.8184" x="600.405" y="175.385">TdwDeactivatorException</text></g><!--class TdwUpdater--><g class="entity" data-entity="TdwUpdater" data-source-line="94" data-uid="ent0021" id="entity_TdwUpdater"><rect fill="#F1F1F1" height="24" rx="1.875" ry="1.875" style="stroke:#181818;stroke-width:0.375;" width="88.01" x="614.0625" y="699.75"/><ellipse cx="625.3125" cy="711.75" fill="#ADD1B2" rx="8.25" ry="8.25" style="stroke:#181818;stroke-width:0.75;"/><path d="M627.5391,715.9805 Q627.1055,716.2031 626.625,716.3086 Q626.1445,716.4258 625.6172,716.4258 Q623.7422,716.4258 622.7461,715.1953 Q621.7617,713.9531 621.7617,711.6094 Q621.7617,709.2656 622.7461,708.0234 Q623.7422,706.7813 625.6172,706.7813 Q626.1445,706.7813 626.625,706.8984 Q627.1172,707.0156 627.5391,707.2383 L627.5391,709.2773 Q627.0703,708.8438 626.625,708.6445 Q626.1797,708.4336 625.7109,708.4336 Q624.7031,708.4336 624.1875,709.2422 Q623.6719,710.0391 623.6719,711.6094 Q623.6719,713.1797 624.1875,713.9883 Q624.7031,714.7852 625.7109,714.7852 Q626.1797,714.7852 626.625,714.5859 Q627.0703,714.375 627.5391,713.9414 L627.5391,715.9805 Z " fill="#000000"/><text fill="#000000" font-family="sans-serif" font-size="10.5" lengthAdjust="spacing" textLength="64.01" x="635.8125" y="715.385">TdwUpdater</text></g><!--class TdwUpdaterException--><g class="entity" data-entity="TdwUpdaterException" data-source-line="103" data-uid="ent0022" id="entity_TdwUpdaterException"><rect fill="#F1F1F1" height="24" rx="1.875" ry="1.875" style="stroke:#181818;stroke-width:0.375;" width="139.8691" x="965.6025" y="159.75"/><ellipse cx="976.8525" cy="171.75" fill="#ADD1B2" rx="8.25" ry="8.25" style="stroke:#181818;stroke-width:0.75;"/><path d="M979.0791,175.9805 Q978.6455,176.2031 978.165,176.3086 Q977.6845,176.4258 977.1572,176.4258 Q975.2822,176.4258 974.2861,175.1953 Q973.3017,173.9531 973.3017,171.6094 Q973.3017,169.2656 974.2861,168.0234 Q975.2822,166.7813 977.1572,166.7813 Q977.6845,166.7813 978.165,166.8984 Q978.6572,167.0156 979.0791,167.2383 L979.0791,169.2773 Q978.6103,168.8438 978.165,168.6445 Q977.7197,168.4336 977.2509,168.4336 Q976.2431,168.4336 975.7275,169.2422 Q975.2119,170.0391 975.2119,171.6094 Q975.2119,173.1797 975.7275,173.9883 Q976.2431,174.7852 977.2509,174.7852 Q977.7197,174.7852 978.165,174.5859 Q978.6103,174.375 979.0791,173.9414 L979.0791,175.9805 Z " fill="#000000"/><text fill="#000000" font-family="sans-serif" font-size="10.5" lengthAdjust="spacing" textLength="115.8691" x="987.3525" y="175.385">TdwUpdaterException</text></g><!--class VerificationMethodKeyProvider--><g class="entity" data-entity="VerificationMethodKeyProvider" data-source-line="107" data-uid="ent0023" id="entity_VerificationMethodKeyProvider"><rect fill="#F1F1F1" height="24" rx="1.875" ry="1.875" style="stroke:#181818;stroke-width:0.375;" width="186.3962" x="1438.4325" y="507"/><ellipse cx="1449.6825" cy="519" fill="#B4A7E5" rx="8.25" ry="8.25" style="stroke:#181818;stroke-width:0.75;"/><path d="M1446.6239,515.8242 L1446.6239,514.207 L1452.1669,514.207 L1452.1669,515.8242 L1450.3153,515.8242 L1450.3153,521.8828 L1452.1669,521.8828 L1452.1669,523.5 L1446.6239,523.5 L1446.6239,521.8828 L1448.4755,521.8828 L1448.4755,515.8242 L1446.6239,515.8242 Z " fill="#000000"/><text fill="#000000" font-family="sans-serif" font-size="10.5" font-style="italic" lengthAdjust="spacing" textLength="162.3962" x="1460.1825" y="522.635">VerificationMethodKeyProvider</text></g><!--class DidLogCreatorContext--><g class="entity" data-entity="DidLogCreatorContext" data-source-line="114" data-uid="ent0024" id="entity_DidLogCreatorContext"><rect fill="#F1F1F1" height="24" rx="1.875" ry="1.875" style="stroke:#181818;stroke-width:0.375;" width="141.3252" x="964.875" y="1015.5"/><ellipse cx="976.125" cy="1027.5" fill="#ADD1B2" rx="8.25" ry="8.25" style="stroke:#181818;stroke-width:0.75;"/><path d="M978.3516,1031.7305 Q977.918,1031.9531 977.4375,1032.0586 Q976.957,1032.1758 976.4297,1032.1758 Q974.5547,1032.1758 973.5586,1030.9453 Q972.5742,1029.7031 972.5742,1027.3594 Q972.5742,1025.0156 973.5586,1023.7734 Q974.5547,1022.5313 976.4297,1022.5313 Q976.957,1022.5313 977.4375,1022.6484 Q977.9297,1022.7656 978.3516,1022.9883 L978.3516,1025.0273 Q977.8828,1024.5938 977.4375,1024.3945 Q976.9922,1024.1836 976.5234,1024.1836 Q975.5156,1024.1836 975,1024.9922 Q974.4844,1025.7891 974.4844,1027.3594 Q974.4844,1028.9297 975,1029.7383 Q975.5156,1030.5352 976.5234,1030.5352 Q976.9922,1030.5352 977.4375,1030.3359 Q977.8828,1030.125 978.3516,1029.6914 L978.3516,1031.7305 Z " fill="#000000"/><text fill="#000000" font-family="sans-serif" font-size="10.5" lengthAdjust="spacing" textLength="117.3252" x="986.625" y="1031.135">DidLogCreatorContext</text></g><!--class DidLogCreatorStrategy--><g class="entity" data-entity="DidLogCreatorStrategy" data-source-line="119" data-uid="ent0026" id="entity_DidLogCreatorStrategy"><rect fill="#F1F1F1" height="24" rx="1.875" ry="1.875" style="stroke:#181818;stroke-width:0.375;" width="144.9961" x="963.0375" y="915"/><ellipse cx="974.2875" cy="927" fill="#B4A7E5" rx="8.25" ry="8.25" style="stroke:#181818;stroke-width:0.75;"/><path d="M971.2289,923.8242 L971.2289,922.207 L976.7719,922.207 L976.7719,923.8242 L974.9203,923.8242 L974.9203,929.8828 L976.7719,929.8828 L976.7719,931.5 L971.2289,931.5 L971.2289,929.8828 L973.0805,929.8828 L973.0805,923.8242 L971.2289,923.8242 Z " fill="#000000"/><text fill="#000000" font-family="sans-serif" font-size="10.5" font-style="italic" lengthAdjust="spacing" textLength="120.9961" x="984.7875" y="930.635">DidLogCreatorStrategy</text></g><!--class DidLogCreatorStrategyException--><g class="entity" data-entity="DidLogCreatorStrategyException" data-source-line="125" data-uid="ent0027" id="entity_DidLogCreatorStrategyException"><rect fill="#F1F1F1" height="24" rx="1.875" ry="1.875" style="stroke:#181818;stroke-width:0.375;" width="196.8552" x="937.11" y="965.25"/><ellipse cx="948.36" cy="977.25" fill="#ADD1B2" rx="8.25" ry="8.25" style="stroke:#181818;stroke-width:0.75;"/><path d="M950.5866,981.4805 Q950.153,981.7031 949.6725,981.8086 Q949.192,981.9258 948.6647,981.9258 Q946.7897,981.9258 945.7936,980.6953 Q944.8092,979.4531 944.8092,977.1094 Q944.8092,974.7656 945.7936,973.5234 Q946.7897,972.2813 948.6647,972.2813 Q949.192,972.2813 949.6725,972.3984 Q950.1647,972.5156 950.5866,972.7383 L950.5866,974.7773 Q950.1178,974.3438 949.6725,974.1445 Q949.2272,973.9336 948.7584,973.9336 Q947.7506,973.9336 947.235,974.7422 Q946.7194,975.5391 946.7194,977.1094 Q946.7194,978.6797 947.235,979.4883 Q947.7506,980.2852 948.7584,980.2852 Q949.2272,980.2852 949.6725,980.0859 Q950.1178,979.875 950.5866,979.4414 L950.5866,981.4805 Z " fill="#000000"/><text fill="#000000" font-family="sans-serif" font-size="10.5" lengthAdjust="spacing" textLength="172.8552" x="958.86" y="980.885">DidLogCreatorStrategyException</text></g><!--class DidLogDeactivatorContext--><g class="entity" data-entity="DidLogDeactivatorContext" data-source-line="129" data-uid="ent0028" id="entity_DidLogDeactivatorContext"><rect fill="#F1F1F1" height="24" rx="1.875" ry="1.875" style="stroke:#181818;stroke-width:0.375;" width="163.2173" x="953.9325" y="764.25"/><ellipse cx="965.1825" cy="776.25" fill="#ADD1B2" rx="8.25" ry="8.25" style="stroke:#181818;stroke-width:0.75;"/><path d="M967.4091,780.4805 Q966.9755,780.7031 966.495,780.8086 Q966.0145,780.9258 965.4872,780.9258 Q963.6122,780.9258 962.6161,779.6953 Q961.6317,778.4531 961.6317,776.1094 Q961.6317,773.7656 962.6161,772.5234 Q963.6122,771.2813 965.4872,771.2813 Q966.0145,771.2813 966.495,771.3984 Q966.9872,771.5156 967.4091,771.7383 L967.4091,773.7773 Q966.9403,773.3438 966.495,773.1445 Q966.0497,772.9336 965.5809,772.9336 Q964.5731,772.9336 964.0575,773.7422 Q963.5419,774.5391 963.5419,776.1094 Q963.5419,777.6797 964.0575,778.4883 Q964.5731,779.2852 965.5809,779.2852 Q966.0497,779.2852 966.495,779.0859 Q966.9403,778.875 967.4091,778.4414 L967.4091,780.4805 Z " fill="#000000"/><text fill="#000000" font-family="sans-serif" font-size="10.5" lengthAdjust="spacing" textLength="139.2173" x="975.6825" y="779.885">DidLogDeactivatorContext</text></g><!--class DidLogDeactivatorStrategy--><g class="entity" data-entity="DidLogDeactivatorStrategy" data-source-line="135" data-uid="ent0029" id="entity_DidLogDeactivatorStrategy"><rect fill="#F1F1F1" height="24" rx="1.875" ry="1.875" style="stroke:#181818;stroke-width:0.375;" width="166.8882" x="952.095" y="814.5"/><ellipse cx="963.345" cy="826.5" fill="#B4A7E5" rx="8.25" ry="8.25" style="stroke:#181818;stroke-width:0.75;"/><path d="M960.2864,823.3242 L960.2864,821.707 L965.8294,821.707 L965.8294,823.3242 L963.9778,823.3242 L963.9778,829.3828 L965.8294,829.3828 L965.8294,831 L960.2864,831 L960.2864,829.3828 L962.138,829.3828 L962.138,823.3242 L960.2864,823.3242 Z " fill="#000000"/><text fill="#000000" font-family="sans-serif" font-size="10.5" font-style="italic" lengthAdjust="spacing" textLength="142.8882" x="973.845" y="830.135">DidLogDeactivatorStrategy</text></g><!--class DidLogDeactivatorStrategyException--><g class="entity" data-entity="DidLogDeactivatorStrategyException" data-source-line="142" data-uid="ent0030" id="entity_DidLogDeactivatorStrategyException"><rect fill="#F1F1F1" height="24" rx="1.875" ry="1.875" style="stroke:#181818;stroke-width:0.375;" width="218.7473" x="926.1675" y="864.75"/><ellipse cx="937.4175" cy="876.75" fill="#ADD1B2" rx="8.25" ry="8.25" style="stroke:#181818;stroke-width:0.75;"/><path d="M939.6441,880.9805 Q939.2105,881.2031 938.73,881.3086 Q938.2495,881.4258 937.7222,881.4258 Q935.8472,881.4258 934.8511,880.1953 Q933.8667,878.9531 933.8667,876.6094 Q933.8667,874.2656 934.8511,873.0234 Q935.8472,871.7813 937.7222,871.7813 Q938.2495,871.7813 938.73,871.8984 Q939.2222,872.0156 939.6441,872.2383 L939.6441,874.2773 Q939.1753,873.8438 938.73,873.6445 Q938.2847,873.4336 937.8159,873.4336 Q936.8081,873.4336 936.2925,874.2422 Q935.7769,875.0391 935.7769,876.6094 Q935.7769,878.1797 936.2925,878.9883 Q936.8081,879.7852 937.8159,879.7852 Q938.2847,879.7852 938.73,879.5859 Q939.1753,879.375 939.6441,878.9414 L939.6441,880.9805 Z " fill="#000000"/><text fill="#000000" font-family="sans-serif" font-size="10.5" lengthAdjust="spacing" textLength="194.7473" x="947.9175" y="880.385">DidLogDeactivatorStrategyException</text></g><!--class DidLogUpdaterContext--><g class="entity" data-entity="DidLogUpdaterContext" data-source-line="146" data-uid="ent0031" id="entity_DidLogUpdaterContext"><rect fill="#F1F1F1" height="24" rx="1.875" ry="1.875" style="stroke:#181818;stroke-width:0.375;" width="144.2681" x="963.405" y="1065.75"/><ellipse cx="974.655" cy="1077.75" fill="#ADD1B2" rx="8.25" ry="8.25" style="stroke:#181818;stroke-width:0.75;"/><path d="M976.8816,1081.9805 Q976.448,1082.2031 975.9675,1082.3086 Q975.487,1082.4258 974.9597,1082.4258 Q973.0847,1082.4258 972.0886,1081.1953 Q971.1042,1079.9531 971.1042,1077.6094 Q971.1042,1075.2656 972.0886,1074.0234 Q973.0847,1072.7813 974.9597,1072.7813 Q975.487,1072.7813 975.9675,1072.8984 Q976.4597,1073.0156 976.8816,1073.2383 L976.8816,1075.2773 Q976.4128,1074.8438 975.9675,1074.6445 Q975.5222,1074.4336 975.0534,1074.4336 Q974.0456,1074.4336 973.53,1075.2422 Q973.0144,1076.0391 973.0144,1077.6094 Q973.0144,1079.1797 973.53,1079.9883 Q974.0456,1080.7852 975.0534,1080.7852 Q975.5222,1080.7852 975.9675,1080.5859 Q976.4128,1080.375 976.8816,1079.9414 L976.8816,1081.9805 Z " fill="#000000"/><text fill="#000000" font-family="sans-serif" font-size="10.5" lengthAdjust="spacing" textLength="120.2681" x="985.155" y="1081.385">DidLogUpdaterContext</text></g><!--class DidLogUpdaterStrategy--><g class="entity" data-entity="DidLogUpdaterStrategy" data-source-line="152" data-uid="ent0032" id="entity_DidLogUpdaterStrategy"><rect fill="#F1F1F1" height="24" rx="1.875" ry="1.875" style="stroke:#181818;stroke-width:0.375;" width="147.939" x="961.5675" y="714"/><ellipse cx="972.8175" cy="726" fill="#B4A7E5" rx="8.25" ry="8.25" style="stroke:#181818;stroke-width:0.75;"/><path d="M969.7589,722.8242 L969.7589,721.207 L975.3019,721.207 L975.3019,722.8242 L973.4503,722.8242 L973.4503,728.8828 L975.3019,728.8828 L975.3019,730.5 L969.7589,730.5 L969.7589,728.8828 L971.6105,728.8828 L971.6105,722.8242 L969.7589,722.8242 Z " fill="#000000"/><text fill="#000000" font-family="sans-serif" font-size="10.5" font-style="italic" lengthAdjust="spacing" textLength="123.939" x="983.3175" y="729.635">DidLogUpdaterStrategy</text></g><!--class DidLogUpdaterStrategyException--><g class="entity" data-entity="DidLogUpdaterStrategyException" data-source-line="159" data-uid="ent0033" id="entity_DidLogUpdaterStrategyException"><rect fill="#F1F1F1" height="24" rx="1.875" ry="1.875" style="stroke:#181818;stroke-width:0.375;" width="199.7981" x="1431.7275" y="965.25"/><ellipse cx="1442.9775" cy="977.25" fill="#ADD1B2" rx="8.25" ry="8.25" style="stroke:#181818;stroke-width:0.75;"/><path d="M1445.2041,981.4805 Q1444.7705,981.7031 1444.29,981.8086 Q1443.8095,981.9258 1443.2822,981.9258 Q1441.4072,981.9258 1440.4111,980.6953 Q1439.4267,979.4531 1439.4267,977.1094 Q1439.4267,974.7656 1440.4111,973.5234 Q1441.4072,972.2813 1443.2822,972.2813 Q1443.8095,972.2813 1444.29,972.3984 Q1444.7822,972.5156 1445.2041,972.7383 L1445.2041,974.7773 Q1444.7353,974.3438 1444.29,974.1445 Q1443.8447,973.9336 1443.3759,973.9336 Q1442.3681,973.9336 1441.8525,974.7422 Q1441.3369,975.5391 1441.3369,977.1094 Q1441.3369,978.6797 1441.8525,979.4883 Q1442.3681,980.2852 1443.3759,980.2852 Q1443.8447,980.2852 1444.29,980.0859 Q1444.7353,979.875 1445.2041,979.4414 L1445.2041,981.4805 Z " fill="#000000"/><text fill="#000000" font-family="sans-serif" font-size="10.5" lengthAdjust="spacing" textLength="175.7981" x="1453.4775" y="980.885">DidLogUpdaterStrategyException</text></g><!--class VerificationMethodParameters--><g class="entity" data-entity="VerificationMethodParameters" data-source-line="163" data-uid="ent0034" id="entity_VerificationMethodParameters"><rect fill="#F1F1F1" height="24" rx="1.875" ry="1.875" style="stroke:#181818;stroke-width:0.375;" width="183.761" x="172.4175" y="1054.5"/><ellipse cx="183.6675" cy="1066.5" fill="#ADD1B2" rx="8.25" ry="8.25" style="stroke:#181818;stroke-width:0.75;"/><path d="M185.8941,1070.7305 Q185.4605,1070.9531 184.98,1071.0586 Q184.4995,1071.1758 183.9722,1071.1758 Q182.0972,1071.1758 181.1011,1069.9453 Q180.1167,1068.7031 180.1167,1066.3594 Q180.1167,1064.0156 181.1011,1062.7734 Q182.0972,1061.5313 183.9722,1061.5313 Q184.4995,1061.5313 184.98,1061.6484 Q185.4722,1061.7656 185.8941,1061.9883 L185.8941,1064.0273 Q185.4253,1063.5938 184.98,1063.3945 Q184.5347,1063.1836 184.0659,1063.1836 Q183.0581,1063.1836 182.5425,1063.9922 Q182.0269,1064.7891 182.0269,1066.3594 Q182.0269,1067.9297 182.5425,1068.7383 Q183.0581,1069.5352 184.0659,1069.5352 Q184.5347,1069.5352 184.98,1069.3359 Q185.4253,1069.125 185.8941,1068.6914 L185.8941,1070.7305 Z " fill="#000000"/><text fill="#000000" font-family="sans-serif" font-size="10.5" lengthAdjust="spacing" textLength="159.761" x="194.1675" y="1070.135">VerificationMethodParameters</text></g><!--class DidLogMeta--><g class="entity" data-entity="DidLogMeta" data-source-line="169" data-uid="ent0036" id="entity_DidLogMeta"><rect fill="#F1F1F1" height="24" rx="1.875" ry="1.875" style="stroke:#181818;stroke-width:0.375;" width="86.677" x="1488.2925" y="1397.25"/><ellipse cx="1499.5425" cy="1409.25" fill="#ADD1B2" rx="8.25" ry="8.25" style="stroke:#181818;stroke-width:0.75;"/><path d="M1501.7691,1413.4805 Q1501.3355,1413.7031 1500.855,1413.8086 Q1500.3745,1413.9258 1499.8472,1413.9258 Q1497.9722,1413.9258 1496.9761,1412.6953 Q1495.9917,1411.4531 1495.9917,1409.1094 Q1495.9917,1406.7656 1496.9761,1405.5234 Q1497.9722,1404.2813 1499.8472,1404.2813 Q1500.3745,1404.2813 1500.855,1404.3984 Q1501.3472,1404.5156 1501.7691,1404.7383 L1501.7691,1406.7773 Q1501.3003,1406.3438 1500.855,1406.1445 Q1500.4097,1405.9336 1499.9409,1405.9336 Q1498.9331,1405.9336 1498.4175,1406.7422 Q1497.9019,1407.5391 1497.9019,1409.1094 Q1497.9019,1410.6797 1498.4175,1411.4883 Q1498.9331,1412.2852 1499.9409,1412.2852 Q1500.4097,1412.2852 1500.855,1412.0859 Q1501.3003,1411.875 1501.7691,1411.4414 L1501.7691,1413.4805 Z " fill="#000000"/><text fill="#000000" font-family="sans-serif" font-size="10.5" lengthAdjust="spacing" textLength="62.677" x="1510.0425" y="1412.885">DidLogMeta</text></g><!--class DidLogMetaPeekerException--><g class="entity" data-entity="DidLogMetaPeekerException" data-source-line="176" data-uid="ent0038" id="entity_DidLogMetaPeekerException"><rect fill="#F1F1F1" height="24" rx="1.875" ry="1.875" style="stroke:#181818;stroke-width:0.375;" width="174.6453" x="1787.2725" y="1271.25"/><ellipse cx="1798.5225" cy="1283.25" fill="#ADD1B2" rx="8.25" ry="8.25" style="stroke:#181818;stroke-width:0.75;"/><path d="M1800.7491,1287.4805 Q1800.3155,1287.7031 1799.835,1287.8086 Q1799.3545,1287.9258 1798.8272,1287.9258 Q1796.9522,1287.9258 1795.9561,1286.6953 Q1794.9717,1285.4531 1794.9717,1283.1094 Q1794.9717,1280.7656 1795.9561,1279.5234 Q1796.9522,1278.2813 1798.8272,1278.2813 Q1799.3545,1278.2813 1799.835,1278.3984 Q1800.3272,1278.5156 1800.7491,1278.7383 L1800.7491,1280.7773 Q1800.2803,1280.3438 1799.835,1280.1445 Q1799.3897,1279.9336 1798.9209,1279.9336 Q1797.9131,1279.9336 1797.3975,1280.7422 Q1796.8819,1281.5391 1796.8819,1283.1094 Q1796.8819,1284.6797 1797.3975,1285.4883 Q1797.9131,1286.2852 1798.9209,1286.2852 Q1799.3897,1286.2852 1799.835,1286.0859 Q1800.2803,1285.875 1800.7491,1285.4414 L1800.7491,1287.4805 Z " fill="#000000"/><text fill="#000000" font-family="sans-serif" font-size="10.5" lengthAdjust="spacing" textLength="150.6453" x="1809.0225" y="1286.885">DidLogMetaPeekerException</text></g><!--class DidMethodEnum--><g class="entity" data-entity="DidMethodEnum" data-source-line="180" data-uid="ent0039" id="entity_DidMethodEnum"><rect fill="#F1F1F1" height="24" rx="1.875" ry="1.875" style="stroke:#181818;stroke-width:0.375;" width="111.2197" x="1476.015" y="1347"/><ellipse cx="1487.265" cy="1359" fill="#EB937F" rx="8.25" ry="8.25" style="stroke:#181818;stroke-width:0.75;"/><path d="M1490.347,1363.5 L1484.558,1363.5 L1484.558,1354.207 L1490.347,1354.207 L1490.347,1355.8242 L1486.3978,1355.8242 L1486.3978,1357.8281 L1489.972,1357.8281 L1489.972,1359.4453 L1486.3978,1359.4453 L1486.3978,1361.8828 L1490.347,1361.8828 L1490.347,1363.5 Z " fill="#000000"/><text fill="#000000" font-family="sans-serif" font-size="10.5" lengthAdjust="spacing" textLength="87.2197" x="1497.765" y="1362.635">DidMethodEnum</text></g><!--class MalformedTdwDidLogMetaPeekerException--><g class="entity" data-entity="MalformedTdwDidLogMetaPeekerException" data-source-line="186" data-uid="ent0040" id="entity_MalformedTdwDidLogMetaPeekerException"><rect fill="#F1F1F1" height="24" rx="1.875" ry="1.875" style="stroke:#181818;stroke-width:0.375;" width="252.5134" x="1405.3725" y="1246.5"/><ellipse cx="1416.6225" cy="1258.5" fill="#ADD1B2" rx="8.25" ry="8.25" style="stroke:#181818;stroke-width:0.75;"/><path d="M1418.8491,1262.7305 Q1418.4155,1262.9531 1417.935,1263.0586 Q1417.4545,1263.1758 1416.9272,1263.1758 Q1415.0522,1263.1758 1414.0561,1261.9453 Q1413.0717,1260.7031 1413.0717,1258.3594 Q1413.0717,1256.0156 1414.0561,1254.7734 Q1415.0522,1253.5313 1416.9272,1253.5313 Q1417.4545,1253.5313 1417.935,1253.6484 Q1418.4272,1253.7656 1418.8491,1253.9883 L1418.8491,1256.0273 Q1418.3803,1255.5938 1417.935,1255.3945 Q1417.4897,1255.1836 1417.0209,1255.1836 Q1416.0131,1255.1836 1415.4975,1255.9922 Q1414.9819,1256.7891 1414.9819,1258.3594 Q1414.9819,1259.9297 1415.4975,1260.7383 Q1416.0131,1261.5352 1417.0209,1261.5352 Q1417.4897,1261.5352 1417.935,1261.3359 Q1418.3803,1261.125 1418.8491,1260.6914 L1418.8491,1262.7305 Z " fill="#000000"/><text fill="#000000" font-family="sans-serif" font-size="10.5" lengthAdjust="spacing" textLength="228.5134" x="1427.1225" y="1262.135">MalformedTdwDidLogMetaPeekerException</text></g><!--class MalformedWebVerifiableHistoryDidLogMetaPeekerException--><g class="entity" data-entity="MalformedWebVerifiableHistoryDidLogMetaPeekerException" data-source-line="190" data-uid="ent0041" id="entity_MalformedWebVerifiableHistoryDidLogMetaPeekerException"><rect fill="#F1F1F1" height="24" rx="1.875" ry="1.875" style="stroke:#181818;stroke-width:0.375;" width="341.6763" x="1360.7925" y="1296.75"/><ellipse cx="1372.0425" cy="1308.75" fill="#ADD1B2" rx="8.25" ry="8.25" style="stroke:#181818;stroke-width:0.75;"/><path d="M1374.2691,1312.9805 Q1373.8355,1313.2031 1373.355,1313.3086 Q1372.8745,1313.4258 1372.3472,1313.4258 Q1370.4722,1313.4258 1369.4761,1312.1953 Q1368.4917,1310.9531 1368.4917,1308.6094 Q1368.4917,1306.2656 1369.4761,1305.0234 Q1370.4722,1303.7813 1372.3472,1303.7813 Q1372.8745,1303.7813 1373.355,1303.8984 Q1373.8472,1304.0156 1374.2691,1304.2383 L1374.2691,1306.2773 Q1373.8003,1305.8438 1373.355,1305.6445 Q1372.9097,1305.4336 1372.4409,1305.4336 Q1371.4331,1305.4336 1370.9175,1306.2422 Q1370.4019,1307.0391 1370.4019,1308.6094 Q1370.4019,1310.1797 1370.9175,1310.9883 Q1371.4331,1311.7852 1372.4409,1311.7852 Q1372.9097,1311.7852 1373.355,1311.5859 Q1373.8003,1311.375 1374.2691,1310.9414 L1374.2691,1312.9805 Z " fill="#000000"/><text fill="#000000" font-family="sans-serif" font-size="10.5" lengthAdjust="spacing" textLength="317.6763" x="1382.5425" y="1312.385">MalformedWebVerifiableHistoryDidLogMetaPeekerException</text></g><!--class NamedDidMethodParameters--><g class="entity" data-entity="NamedDidMethodParameters" data-source-line="194" data-uid="ent0042" id="entity_NamedDidMethodParameters"><rect fill="#F1F1F1" height="24" rx="1.875" ry="1.875" style="stroke:#181818;stroke-width:0.375;" width="179.2595" x="1784.97" y="1383"/><ellipse cx="1796.22" cy="1395" fill="#ADD1B2" rx="8.25" ry="8.25" style="stroke:#181818;stroke-width:0.75;"/><path d="M1798.4466,1399.2305 Q1798.013,1399.4531 1797.5325,1399.5586 Q1797.052,1399.6758 1796.5247,1399.6758 Q1794.6497,1399.6758 1793.6536,1398.4453 Q1792.6692,1397.2031 1792.6692,1394.8594 Q1792.6692,1392.5156 1793.6536,1391.2734 Q1794.6497,1390.0313 1796.5247,1390.0313 Q1797.052,1390.0313 1797.5325,1390.1484 Q1798.0247,1390.2656 1798.4466,1390.4883 L1798.4466,1392.5273 Q1797.9778,1392.0938 1797.5325,1391.8945 Q1797.0872,1391.6836 1796.6184,1391.6836 Q1795.6106,1391.6836 1795.095,1392.4922 Q1794.5794,1393.2891 1794.5794,1394.8594 Q1794.5794,1396.4297 1795.095,1397.2383 Q1795.6106,1398.0352 1796.6184,1398.0352 Q1797.0872,1398.0352 1797.5325,1397.8359 Q1797.9778,1397.625 1798.4466,1397.1914 L1798.4466,1399.2305 Z " fill="#000000"/><text fill="#000000" font-family="sans-serif" font-size="10.5" lengthAdjust="spacing" textLength="155.2595" x="1806.72" y="1398.635">NamedDidMethodParameters</text></g><!--class TdwDidLogMetaPeeker--><g class="entity" data-entity="TdwDidLogMetaPeeker" data-source-line="202" data-uid="ent0043" id="entity_TdwDidLogMetaPeeker"><rect fill="#F1F1F1" height="24" rx="1.875" ry="1.875" style="stroke:#181818;stroke-width:0.375;" width="144.4526" x="1459.4025" y="1196.25"/><ellipse cx="1470.6525" cy="1208.25" fill="#ADD1B2" rx="8.25" ry="8.25" style="stroke:#181818;stroke-width:0.75;"/><path d="M1472.8791,1212.4805 Q1472.4455,1212.7031 1471.965,1212.8086 Q1471.4845,1212.9258 1470.9572,1212.9258 Q1469.0822,1212.9258 1468.0861,1211.6953 Q1467.1017,1210.4531 1467.1017,1208.1094 Q1467.1017,1205.7656 1468.0861,1204.5234 Q1469.0822,1203.2813 1470.9572,1203.2813 Q1471.4845,1203.2813 1471.965,1203.3984 Q1472.4572,1203.5156 1472.8791,1203.7383 L1472.8791,1205.7773 Q1472.4103,1205.3438 1471.965,1205.1445 Q1471.5197,1204.9336 1471.0509,1204.9336 Q1470.0431,1204.9336 1469.5275,1205.7422 Q1469.0119,1206.5391 1469.0119,1208.1094 Q1469.0119,1209.6797 1469.5275,1210.4883 Q1470.0431,1211.2852 1471.0509,1211.2852 Q1471.5197,1211.2852 1471.965,1211.0859 Q1472.4103,1210.875 1472.8791,1210.4414 L1472.8791,1212.4805 Z " fill="#000000"/><text fill="#000000" font-family="sans-serif" font-size="10.5" lengthAdjust="spacing" textLength="120.4526" x="1481.1525" y="1211.885">TdwDidLogMetaPeeker</text></g><!--class WebVerifiableHistoryDidLogMetaPeeker--><g class="entity" data-entity="WebVerifiableHistoryDidLogMetaPeeker" data-source-line="206" data-uid="ent0044" id="entity_WebVerifiableHistoryDidLogMetaPeeker"><rect fill="#F1F1F1" height="24" rx="1.875" ry="1.875" style="stroke:#181818;stroke-width:0.375;" width="233.6155" x="1414.8225" y="1146"/><ellipse cx="1426.0725" cy="1158" fill="#ADD1B2" rx="8.25" ry="8.25" style="stroke:#181818;stroke-width:0.75;"/><path d="M1428.2991,1162.2305 Q1427.8655,1162.4531 1427.385,1162.5586 Q1426.9045,1162.6758 1426.3772,1162.6758 Q1424.5022,1162.6758 1423.5061,1161.4453 Q1422.5217,1160.2031 1422.5217,1157.8594 Q1422.5217,1155.5156 1423.5061,1154.2734 Q1424.5022,1153.0313 1426.3772,1153.0313 Q1426.9045,1153.0313 1427.385,1153.1484 Q1427.8772,1153.2656 1428.2991,1153.4883 L1428.2991,1155.5273 Q1427.8303,1155.0938 1427.385,1154.8945 Q1426.9397,1154.6836 1426.4709,1154.6836 Q1425.4631,1154.6836 1424.9475,1155.4922 Q1424.4319,1156.2891 1424.4319,1157.8594 Q1424.4319,1159.4297 1424.9475,1160.2383 Q1425.4631,1161.0352 1426.4709,1161.0352 Q1426.9397,1161.0352 1427.385,1160.8359 Q1427.8303,1160.625 1428.2991,1160.1914 L1428.2991,1162.2305 Z " fill="#000000"/><text fill="#000000" font-family="sans-serif" font-size="10.5" lengthAdjust="spacing" textLength="209.6155" x="1436.5725" y="1161.635">WebVerifiableHistoryDidLogMetaPeeker</text></g><!--class PrimusEd25519ProofOfPossessionJWSSignerImpl--><g class="entity" data-entity="PrimusEd25519ProofOfPossessionJWSSignerImpl" data-source-line="210" data-uid="ent0045" id="entity_PrimusEd25519ProofOfPossessionJWSSignerImpl"><rect fill="#F1F1F1" height="24" rx="1.875" ry="1.875" style="stroke:#181818;stroke-width:0.375;" width="279.5991" x="124.5" y="455.25"/><ellipse cx="135.75" cy="467.25" fill="#ADD1B2" rx="8.25" ry="8.25" style="stroke:#181818;stroke-width:0.75;"/><path d="M137.9766,471.4805 Q137.543,471.7031 137.0625,471.8086 Q136.582,471.9258 136.0547,471.9258 Q134.1797,471.9258 133.1836,470.6953 Q132.1992,469.4531 132.1992,467.1094 Q132.1992,464.7656 133.1836,463.5234 Q134.1797,462.2813 136.0547,462.2813 Q136.582,462.2813 137.0625,462.3984 Q137.5547,462.5156 137.9766,462.7383 L137.9766,464.7773 Q137.5078,464.3438 137.0625,464.1445 Q136.6172,463.9336 136.1484,463.9336 Q135.1406,463.9336 134.625,464.7422 Q134.1094,465.5391 134.1094,467.1094 Q134.1094,468.6797 134.625,469.4883 Q135.1406,470.2852 136.1484,470.2852 Q136.6172,470.2852 137.0625,470.0859 Q137.5078,469.875 137.9766,469.4414 L137.9766,471.4805 Z " fill="#000000"/><text fill="#000000" font-family="sans-serif" font-size="10.5" lengthAdjust="spacing" textLength="255.5991" x="146.25" y="470.885">PrimusEd25519ProofOfPossessionJWSSignerImpl</text></g><!--class PrimusEd25519VerificationMethodKeyProviderImpl--><g class="entity" data-entity="PrimusEd25519VerificationMethodKeyProviderImpl" data-source-line="215" data-uid="ent0048" id="entity_PrimusEd25519VerificationMethodKeyProviderImpl"><rect fill="#F1F1F1" height="24" rx="1.875" ry="1.875" style="stroke:#181818;stroke-width:0.375;" width="291.9243" x="512.1075" y="455.25"/><ellipse cx="523.3575" cy="467.25" fill="#ADD1B2" rx="8.25" ry="8.25" style="stroke:#181818;stroke-width:0.75;"/><path d="M525.5841,471.4805 Q525.1505,471.7031 524.67,471.8086 Q524.1895,471.9258 523.6622,471.9258 Q521.7872,471.9258 520.7911,470.6953 Q519.8067,469.4531 519.8067,467.1094 Q519.8067,464.7656 520.7911,463.5234 Q521.7872,462.2813 523.6622,462.2813 Q524.1895,462.2813 524.67,462.3984 Q525.1622,462.5156 525.5841,462.7383 L525.5841,464.7773 Q525.1153,464.3438 524.67,464.1445 Q524.2247,463.9336 523.7559,463.9336 Q522.7481,463.9336 522.2325,464.7422 Q521.7169,465.5391 521.7169,467.1094 Q521.7169,468.6797 522.2325,469.4883 Q522.7481,470.2852 523.7559,470.2852 Q524.2247,470.2852 524.67,470.0859 Q525.1153,469.875 525.5841,469.4414 L525.5841,471.4805 Z " fill="#000000"/><text fill="#000000" font-family="sans-serif" font-size="10.5" lengthAdjust="spacing" textLength="267.9243" x="533.8575" y="470.885">PrimusEd25519VerificationMethodKeyProviderImpl</text></g><!--class PrimusKeyStoreInitializationException--><g class="entity" data-entity="PrimusKeyStoreInitializationException" data-source-line="220" data-uid="ent0049" id="entity_PrimusKeyStoreInitializationException"><rect fill="#F1F1F1" height="24" rx="1.875" ry="1.875" style="stroke:#181818;stroke-width:0.375;" width="223.3513" x="152.625" y="405"/><ellipse cx="163.875" cy="417" fill="#ADD1B2" rx="8.25" ry="8.25" style="stroke:#181818;stroke-width:0.75;"/><path d="M166.1016,421.2305 Q165.668,421.4531 165.1875,421.5586 Q164.707,421.6758 164.1797,421.6758 Q162.3047,421.6758 161.3086,420.4453 Q160.3242,419.2031 160.3242,416.8594 Q160.3242,414.5156 161.3086,413.2734 Q162.3047,412.0313 164.1797,412.0313 Q164.707,412.0313 165.1875,412.1484 Q165.6797,412.2656 166.1016,412.4883 L166.1016,414.5273 Q165.6328,414.0938 165.1875,413.8945 Q164.7422,413.6836 164.2734,413.6836 Q163.2656,413.6836 162.75,414.4922 Q162.2344,415.2891 162.2344,416.8594 Q162.2344,418.4297 162.75,419.2383 Q163.2656,420.0352 164.2734,420.0352 Q164.7422,420.0352 165.1875,419.8359 Q165.6328,419.625 166.1016,419.1914 L166.1016,421.2305 Z " fill="#000000"/><text fill="#000000" font-family="sans-serif" font-size="10.5" lengthAdjust="spacing" textLength="199.3513" x="174.375" y="420.635">PrimusKeyStoreInitializationException</text></g><!--class PrimusKeyStoreLoader--><g class="entity" data-entity="PrimusKeyStoreLoader" data-source-line="224" data-uid="ent0050" id="entity_PrimusKeyStoreLoader"><rect fill="#F1F1F1" height="24" rx="1.875" ry="1.875" style="stroke:#181818;stroke-width:0.375;" width="143.6118" x="192.495" y="354.75"/><ellipse cx="203.745" cy="366.75" fill="#ADD1B2" rx="8.25" ry="8.25" style="stroke:#181818;stroke-width:0.75;"/><path d="M205.9716,370.9805 Q205.538,371.2031 205.0575,371.3086 Q204.577,371.4258 204.0497,371.4258 Q202.1747,371.4258 201.1786,370.1953 Q200.1942,368.9531 200.1942,366.6094 Q200.1942,364.2656 201.1786,363.0234 Q202.1747,361.7813 204.0497,361.7813 Q204.577,361.7813 205.0575,361.8984 Q205.5497,362.0156 205.9716,362.2383 L205.9716,364.2773 Q205.5028,363.8438 205.0575,363.6445 Q204.6122,363.4336 204.1434,363.4336 Q203.1356,363.4336 202.62,364.2422 Q202.1044,365.0391 202.1044,366.6094 Q202.1044,368.1797 202.62,368.9883 Q203.1356,369.7852 204.1434,369.7852 Q204.6122,369.7852 205.0575,369.5859 Q205.5028,369.375 205.9716,368.9414 L205.9716,370.9805 Z " fill="#000000"/><text fill="#000000" font-family="sans-serif" font-size="10.5" lengthAdjust="spacing" textLength="119.6118" x="214.245" y="370.385">PrimusKeyStoreLoader</text></g><!--class PrimusKeyStoreLoader$SecurosysPrimusEnvironment--><g class="entity" data-entity="PrimusKeyStoreLoader.SecurosysPrimusEnvironment" data-source-line="228" data-uid="ent0051" id="entity_PrimusKeyStoreLoader.SecurosysPrimusEnvironment"><rect fill="#F1F1F1" height="24" rx="1.875" ry="1.875" style="stroke:#181818;stroke-width:0.375;" width="306.936" x="504.6" y="405"/><ellipse cx="515.85" cy="417" fill="#EB937F" rx="8.25" ry="8.25" style="stroke:#181818;stroke-width:0.75;"/><path d="M518.932,421.5 L513.143,421.5 L513.143,412.207 L518.932,412.207 L518.932,413.8242 L514.9828,413.8242 L514.9828,415.8281 L518.557,415.8281 L518.557,417.4453 L514.9828,417.4453 L514.9828,419.8828 L518.932,419.8828 L518.932,421.5 Z " fill="#000000"/><text fill="#000000" font-family="sans-serif" font-size="10.5" lengthAdjust="spacing" textLength="282.936" x="526.35" y="420.635">PrimusKeyStoreLoader$SecurosysPrimusEnvironment</text></g><!--class WebVerifiableHistoryCreator--><g class="entity" data-entity="WebVerifiableHistoryCreator" data-source-line="236" data-uid="ent0052" id="entity_WebVerifiableHistoryCreator"><rect fill="#F1F1F1" height="24" rx="1.875" ry="1.875" style="stroke:#181818;stroke-width:0.375;" width="174.23" x="570.9525" y="862.5"/><ellipse cx="582.2025" cy="874.5" fill="#ADD1B2" rx="8.25" ry="8.25" style="stroke:#181818;stroke-width:0.75;"/><path d="M584.4291,878.7305 Q583.9955,878.9531 583.515,879.0586 Q583.0345,879.1758 582.5072,879.1758 Q580.6322,879.1758 579.6361,877.9453 Q578.6517,876.7031 578.6517,874.3594 Q578.6517,872.0156 579.6361,870.7734 Q580.6322,869.5313 582.5072,869.5313 Q583.0345,869.5313 583.515,869.6484 Q584.0072,869.7656 584.4291,869.9883 L584.4291,872.0273 Q583.9603,871.5938 583.515,871.3945 Q583.0697,871.1836 582.6009,871.1836 Q581.5931,871.1836 581.0775,871.9922 Q580.5619,872.7891 580.5619,874.3594 Q580.5619,875.9297 581.0775,876.7383 Q581.5931,877.5352 582.6009,877.5352 Q583.0697,877.5352 583.515,877.3359 Q583.9603,877.125 584.4291,876.6914 L584.4291,878.7305 Z " fill="#000000"/><text fill="#000000" font-family="sans-serif" font-size="10.5" lengthAdjust="spacing" textLength="150.23" x="592.7025" y="878.135">WebVerifiableHistoryCreator</text></g><!--class WebVerifiableHistoryDeactivator--><g class="entity" data-entity="WebVerifiableHistoryDeactivator" data-source-line="243" data-uid="ent0054" id="entity_WebVerifiableHistoryDeactivator"><rect fill="#F1F1F1" height="24" rx="1.875" ry="1.875" style="stroke:#181818;stroke-width:0.375;" width="196.1221" x="560.0025" y="812.25"/><ellipse cx="571.2525" cy="824.25" fill="#ADD1B2" rx="8.25" ry="8.25" style="stroke:#181818;stroke-width:0.75;"/><path d="M573.4791,828.4805 Q573.0455,828.7031 572.565,828.8086 Q572.0845,828.9258 571.5572,828.9258 Q569.6822,828.9258 568.6861,827.6953 Q567.7017,826.4531 567.7017,824.1094 Q567.7017,821.7656 568.6861,820.5234 Q569.6822,819.2813 571.5572,819.2813 Q572.0845,819.2813 572.565,819.3984 Q573.0572,819.5156 573.4791,819.7383 L573.4791,821.7773 Q573.0103,821.3438 572.565,821.1445 Q572.1197,820.9336 571.6509,820.9336 Q570.6431,820.9336 570.1275,821.7422 Q569.6119,822.5391 569.6119,824.1094 Q569.6119,825.6797 570.1275,826.4883 Q570.6431,827.2852 571.6509,827.2852 Q572.1197,827.2852 572.565,827.0859 Q573.0103,826.875 573.4791,826.4414 L573.4791,828.4805 Z " fill="#000000"/><text fill="#000000" font-family="sans-serif" font-size="10.5" lengthAdjust="spacing" textLength="172.1221" x="581.7525" y="827.885">WebVerifiableHistoryDeactivator</text></g><!--class WebVerifiableHistoryUpdater--><g class="entity" data-entity="WebVerifiableHistoryUpdater" data-source-line="251" data-uid="ent0055" id="entity_WebVerifiableHistoryUpdater"><rect fill="#F1F1F1" height="24" rx="1.875" ry="1.875" style="stroke:#181818;stroke-width:0.375;" width="177.1729" x="569.4825" y="762"/><ellipse cx="580.7325" cy="774" fill="#ADD1B2" rx="8.25" ry="8.25" style="stroke:#181818;stroke-width:0.75;"/><path d="M582.9591,778.2305 Q582.5255,778.4531 582.045,778.5586 Q581.5645,778.6758 581.0372,778.6758 Q579.1622,778.6758 578.1661,777.4453 Q577.1817,776.2031 577.1817,773.8594 Q577.1817,771.5156 578.1661,770.2734 Q579.1622,769.0313 581.0372,769.0313 Q581.5645,769.0313 582.045,769.1484 Q582.5372,769.2656 582.9591,769.4883 L582.9591,771.5273 Q582.4903,771.0938 582.045,770.8945 Q581.5997,770.6836 581.1309,770.6836 Q580.1231,770.6836 579.6075,771.4922 Q579.0919,772.2891 579.0919,773.8594 Q579.0919,775.4297 579.6075,776.2383 Q580.1231,777.0352 581.1309,777.0352 Q581.5997,777.0352 582.045,776.8359 Q582.4903,776.625 582.9591,776.1914 L582.9591,778.2305 Z " fill="#000000"/><text fill="#000000" font-family="sans-serif" font-size="10.5" lengthAdjust="spacing" textLength="153.1729" x="591.2325" y="777.635">WebVerifiableHistoryUpdater</text></g><!--link Ed25519ProofOfPossessionJWSSignerImpl to Ed25519VerificationMethodKeyProviderImpl--><g class="link" data-entity-1="Ed25519ProofOfPossessionJWSSignerImpl" data-entity-2="Ed25519VerificationMethodKeyProviderImpl" data-source-line="261" data-uid="lnk56" id="link_Ed25519ProofOfPossessionJWSSignerImpl_Ed25519VerificationMethodKeyProviderImpl"><path codeLine="261" d="M780.24,530.1525 C806.0475,523.5825 830.5875,511.755 847.5375,491.25 C861.7725,474.03 842.535,309.6975 853.5375,290.25 C861.7275,275.76 872.0775,280.4475 885.0375,270 C896.0475,261.1275 895.065,254.175 907.5375,247.5 C917.7675,242.025 916.0782,241.5448 927.5532,238.1548" fill="none" id="Ed25519ProofOfPossessionJWSSignerImpl-to-Ed25519VerificationMethodKeyProviderImpl" style="stroke:#181818;stroke-width:0.75;"/><polygon fill="none" points="940.5,234.33,926.2782,233.8392,928.8281,242.4704,940.5,234.33" style="stroke:#181818;stroke-width:0.75;"/></g><!--link Ed25519ProofOfPossessionJWSSignerImpl to ProofOfPossessionJWSSigner--><g class="link" data-entity-1="Ed25519ProofOfPossessionJWSSignerImpl" data-entity-2="ProofOfPossessionJWSSigner" data-source-line="262" data-uid="lnk57" id="link_Ed25519ProofOfPossessionJWSSignerImpl_ProofOfPossessionJWSSigner"><path codeLine="262" d="M780.195,530.115 C806.0025,523.545 830.5575,511.725 847.5375,491.25 C860.4675,475.6575 840.4575,324.4725 853.5375,309 C876.5475,281.7825 900.2367,272.4956 934.9167,269.3081" fill="none" id="Ed25519ProofOfPossessionJWSSignerImpl-to-ProofOfPossessionJWSSigner" style="stroke:#181818;stroke-width:0.75;stroke-dasharray:5.25,5.25;"/><polygon fill="none" points="948.36,268.0725,934.5048,264.827,935.3285,273.7892,948.36,268.0725" style="stroke:#181818;stroke-width:0.75;"/></g><!--link Ed25519VerificationMethodKeyProviderImpl to VerificationMethodKeyProvider--><g class="link" data-entity-1="Ed25519VerificationMethodKeyProviderImpl" data-entity-2="VerificationMethodKeyProvider" data-source-line="263" data-uid="lnk58" id="link_Ed25519VerificationMethodKeyProviderImpl_VerificationMethodKeyProvider"><path codeLine="263" d="M1163.58,231.39 C1219.9425,240.1425 1285.0275,256.8675 1336.7925,288.75 C1431.6075,347.1525 1496.5185,455.9293 1517.826,494.8018" fill="none" id="Ed25519VerificationMethodKeyProviderImpl-to-VerificationMethodKeyProvider" style="stroke:#181818;stroke-width:0.75;stroke-dasharray:5.25,5.25;"/><polygon fill="none" points="1524.315,506.64,1521.7721,492.6388,1513.88,496.9648,1524.315,506.64" style="stroke:#181818;stroke-width:0.75;"/></g><!--reverse link ProofOfPossessionCreator to ProofOfPossessionJWSSigner--><g class="link" data-entity-1="ProofOfPossessionCreator" data-entity-2="ProofOfPossessionJWSSigner" data-source-line="264" data-uid="lnk59" id="link_ProofOfPossessionCreator_ProofOfPossessionJWSSigner"><path codeLine="264" d="M747.2005,618.9748 C786.0355,618.1648 821.0175,609.57 847.5375,579 C855.4275,569.9025 848.3475,373.125 853.5375,362.25 C861.4725,345.6075 872.505,348.78 885.0375,335.25 C896.5425,322.8225 893.4975,313.9725 907.5375,304.5 C920.6625,295.6425 936.045,289.215 951.4875,284.55" fill="none" id="ProofOfPossessionCreator-backto-ProofOfPossessionJWSSigner" style="stroke:#181818;stroke-width:0.75;"/><polygon fill="#181818" points="738.2025,619.1625,742.7641,622.068,747.2005,618.9748,742.639,616.0693,738.2025,619.1625" style="stroke:#181818;stroke-width:0.75;"/><text fill="#000000" font-family="sans-serif" font-size="9.75" lengthAdjust="spacing" textLength="30.1641" x="854.2875" y="332.3002">signer</text></g><!--link ProofOfPossessionJWSSigner to VerificationMethodKeyProvider--><g class="link" data-entity-1="ProofOfPossessionJWSSigner" data-entity-2="VerificationMethodKeyProvider" data-source-line="265" data-uid="lnk60" id="link_ProofOfPossessionJWSSigner_VerificationMethodKeyProvider"><path codeLine="265" d="M1122.7275,270.3375 C1185.3675,272.34 1270.365,282.2175 1336.7925,316.5 C1428.0975,363.6225 1493.5615,459.2008 1516.279,495.3658" fill="none" id="ProofOfPossessionJWSSigner-to-VerificationMethodKeyProvider" style="stroke:#181818;stroke-width:0.75;stroke-dasharray:5.25,5.25;"/><polygon fill="none" points="1523.46,506.7975,1520.0896,492.9721,1512.4685,497.7595,1523.46,506.7975" style="stroke:#181818;stroke-width:0.75;"/></g><!--reverse link ProofOfPossessionVerifierException to ProofOfPossessionVerifierException$ErrorCause--><g class="link" data-entity-1="ProofOfPossessionVerifierException" data-entity-2="ProofOfPossessionVerifierException.ErrorCause" data-source-line="266" data-uid="lnk61" id="link_ProofOfPossessionVerifierException_ProofOfPossessionVerifierException.ErrorCause"><path codeLine="266" d="M378.6525,661.5 C424.8375,661.5 470.76,661.5 520.1625,661.5" fill="none" id="ProofOfPossessionVerifierException-backto-ProofOfPossessionVerifierException$ErrorCause" style="stroke:#181818;stroke-width:0.75;"/><polygon fill="#181818" points="369.6525,661.5,374.1525,664.5,378.6525,661.5,374.1525,658.5,369.6525,661.5" style="stroke:#181818;stroke-width:0.75;"/><text fill="#000000" font-family="sans-serif" font-size="9.75" lengthAdjust="spacing" textLength="54.0297" x="427.35" y="658.5502">errorCause</text></g><!--link TdwCreator to VerificationMethodKeyProvider--><g class="link" data-entity-1="TdwCreator" data-entity-2="VerificationMethodKeyProvider" data-source-line="267" data-uid="lnk62" id="link_TdwCreator_VerificationMethodKeyProvider"><path codeLine="267" d="M700.8225,982.2 C743.565,986.925 808.8675,986.5575 847.5375,949.5 C874.9125,923.2575 880.3725,639.96 907.5375,613.5 C908.745,612.3225 1274.6447,557.3843 1443.8447,532.0343" fill="none" id="TdwCreator-to-VerificationMethodKeyProvider" style="stroke:#181818;stroke-width:0.75;"/><polygon fill="#181818" points="1448.295,531.3675,1441.175,529.4008,1444.5864,531.9231,1442.064,535.3345,1448.295,531.3675" style="stroke:#181818;stroke-width:0.75;"/><text fill="#000000" font-family="sans-serif" font-size="9.75" lengthAdjust="spacing" textLength="149.8967" x="960.915" y="572.0602">verificationMethodKeyProvider</text></g><!--link TdwCreator to DidLogCreatorStrategy--><g class="link" data-entity-1="TdwCreator" data-entity-2="DidLogCreatorStrategy" data-source-line="268" data-uid="lnk63" id="link_TdwCreator_DidLogCreatorStrategy"><path codeLine="268" d="M700.8525,969.63 C764.28,961.5375 871.8712,947.797 949.4812,937.8895" fill="none" id="TdwCreator-to-DidLogCreatorStrategy" style="stroke:#181818;stroke-width:0.75;stroke-dasharray:5.25,5.25;"/><polygon fill="none" points="962.8725,936.18,948.9113,933.4257,950.051,942.3533,962.8725,936.18" style="stroke:#181818;stroke-width:0.75;"/></g><!--link TdwDeactivator to VerificationMethodKeyProvider--><g class="link" data-entity-1="TdwDeactivator" data-entity-2="VerificationMethodKeyProvider" data-source-line="269" data-uid="lnk64" id="link_TdwDeactivator_VerificationMethodKeyProvider"><path codeLine="269" d="M711.795,932.145 C753.735,934.8825 811.1175,931.2225 847.5375,898.5 C855.7125,891.15 850.56,885.0825 853.5375,874.5 C875.2875,797.1675 849.315,757.3575 907.5375,702 C943.2375,668.055 1289.79,605.7525 1336.7925,591 C1395.6,572.5425 1458.54,548.1755 1496.445,532.9955" fill="none" id="TdwDeactivator-to-VerificationMethodKeyProvider" style="stroke:#181818;stroke-width:0.75;"/><polygon fill="#181818" points="1500.6225,531.3225,1493.241,531.047,1497.1413,532.7166,1495.4716,536.6169,1500.6225,531.3225" style="stroke:#181818;stroke-width:0.75;"/><text fill="#000000" font-family="sans-serif" font-size="9.75" lengthAdjust="spacing" textLength="149.8967" x="960.915" y="626.4502">verificationMethodKeyProvider</text></g><!--link TdwDeactivator to DidLogDeactivatorStrategy--><g class="link" data-entity-1="TdwDeactivator" data-entity-2="DidLogDeactivatorStrategy" data-source-line="270" data-uid="lnk65" id="link_TdwDeactivator_DidLogDeactivatorStrategy"><path codeLine="270" d="M711.8025,924.63 C750.7275,922.845 804.1725,916.77 847.5375,898.5 C878.625,885.3975 876.8475,866.0175 907.5375,852 C921.3675,845.6775 923.62,844.0297 938.7775,840.4447" fill="none" id="TdwDeactivator-to-DidLogDeactivatorStrategy" style="stroke:#181818;stroke-width:0.75;stroke-dasharray:5.25,5.25;"/><polygon fill="none" points="951.915,837.3375,937.7417,836.0656,939.8132,844.8239,951.915,837.3375" style="stroke:#181818;stroke-width:0.75;"/></g><!--link TdwUpdater to VerificationMethodKeyProvider--><g class="link" data-entity-1="TdwUpdater" data-entity-2="VerificationMethodKeyProvider" data-source-line="271" data-uid="lnk66" id="link_TdwUpdater_VerificationMethodKeyProvider"><path codeLine="271" d="M702.2475,720.1575 C745.995,725.82 811.95,726.165 847.5375,686.25 C858.795,673.62 842.82,394.845 853.5375,381.75 C869.1075,362.7225 883.095,372.435 907.5375,369.75 C1097.25,348.9225 1157.01,317.685 1336.7925,381.75 C1415.1225,409.665 1487.1816,475.5046 1515.6816,503.6221" fill="none" id="TdwUpdater-to-VerificationMethodKeyProvider" style="stroke:#181818;stroke-width:0.75;"/><polygon fill="#181818" points="1518.885,506.7825,1516.1868,499.9063,1516.2155,504.1488,1511.973,504.1775,1518.885,506.7825" style="stroke:#181818;stroke-width:0.75;"/><text fill="#000000" font-family="sans-serif" font-size="9.75" lengthAdjust="spacing" textLength="149.8967" x="960.915" y="340.5727">verificationMethodKeyProvider</text></g><!--link TdwUpdater to DidLogUpdaterStrategy--><g class="link" data-entity-1="TdwUpdater" data-entity-2="DidLogUpdaterStrategy" data-source-line="272" data-uid="lnk67" id="link_TdwUpdater_DidLogUpdaterStrategy"><path codeLine="272" d="M702.345,720.0825 C745.995,725.64 811.7325,725.8575 847.5375,686.25 C860.895,671.4675 839.2125,520.8525 853.5375,507 C863.6025,497.265 874.605,497.6625 885.0375,507 C919.005,537.4275 875.4075,678.63 907.5375,711 C921.6375,725.2125 928.119,729.9929 948.009,731.8979" fill="none" id="TdwUpdater-to-DidLogUpdaterStrategy" style="stroke:#181818;stroke-width:0.75;stroke-dasharray:5.25,5.25;"/><polygon fill="none" points="961.4475,733.185,948.438,727.4184,947.58,736.3774,961.4475,733.185" style="stroke:#181818;stroke-width:0.75;"/></g><!--link DidLogCreatorContext to VerificationMethodKeyProvider--><g class="link" data-entity-1="DidLogCreatorContext" data-entity-2="VerificationMethodKeyProvider" data-source-line="273" data-uid="lnk68" id="link_DidLogCreatorContext_VerificationMethodKeyProvider"><path codeLine="273" d="M1106.4675,1028.325 C1127.46,1025.0175 1148.7825,1017.51 1163.5425,1002 C1210.2375,952.9275 1148.2275,907.455 1186.0425,851.25 C1229.505,786.645 1294.905,827.64 1336.7925,762 C1351.2075,739.41 1331.145,726.1425 1342.7925,702 C1381.5825,621.57 1467.4532,559.4716 1507.3382,533.6341" fill="none" id="DidLogCreatorContext-to-VerificationMethodKeyProvider" style="stroke:#181818;stroke-width:0.75;"/><polygon fill="#181818" points="1511.115,531.1875,1503.8187,532.3395,1507.9677,533.2263,1507.0809,537.3753,1511.115,531.1875" style="stroke:#181818;stroke-width:0.75;"/><text fill="#000000" font-family="sans-serif" font-size="9.75" lengthAdjust="spacing" textLength="149.8967" x="1186.7925" y="759.0502">verificationMethodKeyProvider</text></g><!--link DidLogCreatorContext to DidMethodEnum--><g class="link" data-entity-1="DidLogCreatorContext" data-entity-2="DidMethodEnum" data-source-line="274" data-uid="lnk69" id="link_DidLogCreatorContext_DidMethodEnum"><path codeLine="274" d="M1106.415,1034.1975 C1125.69,1037.9625 1146.0825,1043.8425 1163.5425,1053 C1175.8575,1059.4575 1175.9325,1065.195 1186.0425,1074.75 C1252.3575,1137.48 1298.1375,1131.5475 1336.7925,1214.25 C1342.41,1226.2725 1333.815,1323.7275 1342.7925,1333.5 C1375.62,1369.23 1428.4305,1372.6926 1471.1805,1368.8526" fill="none" id="DidLogCreatorContext-to-DidMethodEnum" style="stroke:#181818;stroke-width:0.75;"/><polygon fill="#181818" points="1475.6625,1368.45,1468.6712,1366.0659,1471.9275,1368.7855,1469.208,1372.0419,1475.6625,1368.45" style="stroke:#181818;stroke-width:0.75;"/><text fill="#000000" font-family="sans-serif" font-size="9.75" lengthAdjust="spacing" textLength="51.6541" x="1235.9175" y="1071.8002">didMethod</text></g><!--link DidLogDeactivatorContext to VerificationMethodKeyProvider--><g class="link" data-entity-1="DidLogDeactivatorContext" data-entity-2="VerificationMethodKeyProvider" data-source-line="275" data-uid="lnk70" id="link_DidLogDeactivatorContext_VerificationMethodKeyProvider"><path codeLine="275" d="M1113.45,763.92 C1130.1675,760.38 1147.605,756.0225 1163.5425,750.75 C1244.3775,724.02 1264.1775,713.46 1336.7925,669 C1409.2425,624.6375 1483.2726,561.3047 1513.9101,534.1922" fill="none" id="DidLogDeactivatorContext-to-VerificationMethodKeyProvider" style="stroke:#181818;stroke-width:0.75;"/><polygon fill="#181818" points="1517.28,531.21,1510.237,533.4367,1514.4717,533.6952,1514.2132,537.9299,1517.28,531.21" style="stroke:#181818;stroke-width:0.75;"/><text fill="#000000" font-family="sans-serif" font-size="9.75" lengthAdjust="spacing" textLength="149.8967" x="1186.7925" y="666.0502">verificationMethodKeyProvider</text></g><!--link DidLogDeactivatorContext to DidMethodEnum--><g class="link" data-entity-1="DidLogDeactivatorContext" data-entity-2="DidMethodEnum" data-source-line="276" data-uid="lnk71" id="link_DidLogDeactivatorContext_DidMethodEnum"><path codeLine="276" d="M1117.2225,776.94 C1134.7125,780.96 1151.535,788.46 1163.5425,801.75 C1198.4475,840.3975 1150.3725,997.0575 1186.0425,1035 C1232.5125,1084.4325 1292.19,1007.88 1336.7925,1059 C1346.82,1070.4975 1332.63,1322.1225 1342.7925,1333.5 C1375.2225,1369.815 1428.3873,1373.1242 1471.3398,1369.0817" fill="none" id="DidLogDeactivatorContext-to-DidMethodEnum" style="stroke:#181818;stroke-width:0.75;"/><polygon fill="#181818" points="1475.82,1368.66,1468.8186,1366.3057,1472.0865,1369.0114,1469.3808,1372.2793,1475.82,1368.66" style="stroke:#181818;stroke-width:0.75;"/><text fill="#000000" font-family="sans-serif" font-size="9.75" lengthAdjust="spacing" textLength="51.6541" x="1235.9175" y="1032.0502">didMethod</text></g><!--link DidLogUpdaterContext to VerificationMethodKeyProvider--><g class="link" data-entity-1="DidLogUpdaterContext" data-entity-2="VerificationMethodKeyProvider" data-source-line="277" data-uid="lnk72" id="link_DidLogUpdaterContext_VerificationMethodKeyProvider"><path codeLine="277" d="M1107.81,1074.465 C1127.3175,1070.7675 1147.485,1064.07 1163.5425,1052.25 C1180.3575,1039.8675 1173.255,1027.5075 1186.0425,1011 C1242.2175,938.475 1298.775,953.49 1336.7925,870 C1352.2725,836.0025 1327.6425,736.1475 1342.7925,702 C1378.8975,620.58 1465.7376,559.1833 1506.5676,533.5783" fill="none" id="DidLogUpdaterContext-to-VerificationMethodKeyProvider" style="stroke:#181818;stroke-width:0.75;"/><polygon fill="#181818" points="1510.38,531.1875,1503.0676,532.2321,1507.203,533.1798,1506.2553,537.3153,1510.38,531.1875" style="stroke:#181818;stroke-width:0.75;"/><text fill="#000000" font-family="sans-serif" font-size="9.75" lengthAdjust="spacing" textLength="149.8967" x="1186.7925" y="867.0502">verificationMethodKeyProvider</text></g><!--link DidLogUpdaterContext to DidMethodEnum--><g class="link" data-entity-1="DidLogUpdaterContext" data-entity-2="DidMethodEnum" data-source-line="278" data-uid="lnk73" id="link_DidLogUpdaterContext_DidMethodEnum"><path codeLine="278" d="M1046.3625,1090.11 C1081.7775,1132.5675 1205.805,1273.1325 1342.7925,1333.5 C1384.935,1352.07 1432.616,1357.7881 1471.3235,1359.3106" fill="none" id="DidLogUpdaterContext-to-DidMethodEnum" style="stroke:#181818;stroke-width:0.75;"/><polygon fill="#181818" points="1475.82,1359.4875,1469.1931,1356.2245,1472.0729,1359.3401,1468.9573,1362.2199,1475.82,1359.4875" style="stroke:#181818;stroke-width:0.75;"/><text fill="#000000" font-family="sans-serif" font-size="9.75" lengthAdjust="spacing" textLength="51.6541" x="1235.9175" y="1230.1702">didMethod</text></g><!--link DidLogMeta to NamedDidMethodParameters--><g class="link" data-entity-1="DidLogMeta" data-entity-2="NamedDidMethodParameters" data-source-line="279" data-uid="lnk74" id="link_DidLogMeta_NamedDidMethodParameters"><path codeLine="279" d="M1575.2775,1407.4575 C1627.5825,1405.275 1712.8464,1401.7204 1780.3164,1398.9004" fill="none" id="DidLogMeta-to-NamedDidMethodParameters" style="stroke:#181818;stroke-width:0.75;"/><polygon fill="#181818" points="1784.8125,1398.7125,1777.9431,1395.997,1781.0658,1398.8691,1778.1937,1401.9918,1784.8125,1398.7125" style="stroke:#181818;stroke-width:0.75;"/><text fill="#000000" font-family="sans-serif" font-size="9.75" lengthAdjust="spacing" textLength="36.7244" x="1725.72" y="1397.0677">params</text></g><!--link MalformedTdwDidLogMetaPeekerException to DidLogMetaPeekerException--><g class="link" data-entity-1="MalformedTdwDidLogMetaPeekerException" data-entity-2="DidLogMetaPeekerException" data-source-line="280" data-uid="lnk75" id="link_MalformedTdwDidLogMetaPeekerException_DidLogMetaPeekerException"><path codeLine="280" d="M1658.07,1267.6125 C1700.955,1270.7175 1734.4553,1273.1471 1773.5903,1275.9821" fill="none" id="MalformedTdwDidLogMetaPeekerException-to-DidLogMetaPeekerException" style="stroke:#181818;stroke-width:0.75;"/><polygon fill="none" points="1787.055,1276.9575,1773.9154,1271.4939,1773.2651,1280.4703,1787.055,1276.9575" style="stroke:#181818;stroke-width:0.75;"/></g><!--link MalformedWebVerifiableHistoryDidLogMetaPeekerException to DidLogMetaPeekerException--><g class="link" data-entity-1="MalformedWebVerifiableHistoryDidLogMetaPeekerException" data-entity-2="DidLogMetaPeekerException" data-source-line="281" data-uid="lnk76" id="link_MalformedWebVerifiableHistoryDidLogMetaPeekerException_DidLogMetaPeekerException"><path codeLine="281" d="M1697.8575,1296.39 C1728.7275,1294.0875 1746.3673,1292.7654 1773.6523,1290.7329" fill="none" id="MalformedWebVerifiableHistoryDidLogMetaPeekerException-to-DidLogMetaPeekerException" style="stroke:#181818;stroke-width:0.75;"/><polygon fill="none" points="1787.115,1289.73,1773.318,1286.2453,1773.9866,1295.2204,1787.115,1289.73" style="stroke:#181818;stroke-width:0.75;"/></g><!--link PrimusEd25519ProofOfPossessionJWSSignerImpl to PrimusEd25519VerificationMethodKeyProviderImpl--><g class="link" data-entity-1="PrimusEd25519ProofOfPossessionJWSSignerImpl" data-entity-2="PrimusEd25519VerificationMethodKeyProviderImpl" data-source-line="282" data-uid="lnk77" id="link_PrimusEd25519ProofOfPossessionJWSSignerImpl_PrimusEd25519VerificationMethodKeyProviderImpl"><path codeLine="282" d="M404.4525,467.25 C439.245,467.25 463.1475,467.25 498.2325,467.25" fill="none" id="PrimusEd25519ProofOfPossessionJWSSignerImpl-to-PrimusEd25519VerificationMethodKeyProviderImpl" style="stroke:#181818;stroke-width:0.75;"/><polygon fill="none" points="511.7325,467.25,498.2325,462.75,498.2325,471.75,511.7325,467.25" style="stroke:#181818;stroke-width:0.75;"/></g><!--link PrimusEd25519ProofOfPossessionJWSSignerImpl to ProofOfPossessionJWSSigner--><g class="link" data-entity-1="PrimusEd25519ProofOfPossessionJWSSignerImpl" data-entity-2="ProofOfPossessionJWSSigner" data-source-line="283" data-uid="lnk78" id="link_PrimusEd25519ProofOfPossessionJWSSignerImpl_ProofOfPossessionJWSSigner"><path codeLine="283" d="M396.8775,479.5875 C399.315,480.4275 401.73,481.3125 404.1,482.25 C456.1125,502.8225 451.56,540.2475 504.6,558 C540.735,570.09 820.2525,584.6025 847.5375,558 C857.025,548.745 845.19,329.7975 853.5375,319.5 C862.5975,308.3175 871.08,315.51 885.0375,312 C920.25,303.135 946.9364,296.0853 976.6139,288.0753" fill="none" id="PrimusEd25519ProofOfPossessionJWSSignerImpl-to-ProofOfPossessionJWSSigner" style="stroke:#181818;stroke-width:0.75;stroke-dasharray:5.25,5.25;"/><polygon fill="none" points="989.6475,284.5575,975.4413,283.7308,977.7865,292.4198,989.6475,284.5575" style="stroke:#181818;stroke-width:0.75;"/></g><!--link PrimusEd25519VerificationMethodKeyProviderImpl to Ed25519VerificationMethodKeyProviderImpl--><g class="link" data-entity-1="PrimusEd25519VerificationMethodKeyProviderImpl" data-entity-2="Ed25519VerificationMethodKeyProviderImpl" data-source-line="284" data-uid="lnk79" id="link_PrimusEd25519VerificationMethodKeyProviderImpl_Ed25519VerificationMethodKeyProviderImpl"><path codeLine="284" d="M804.21,469.17 C820.665,463.53 835.725,454.8075 847.5375,441.75 C860.5725,427.3425 842.1,282.705 853.5375,267 C860.535,257.385 905.8311,246.6345 954.5136,236.967" fill="none" id="PrimusEd25519VerificationMethodKeyProviderImpl-to-Ed25519VerificationMethodKeyProviderImpl" style="stroke:#181818;stroke-width:0.75;"/><polygon fill="none" points="967.755,234.3375,953.6371,232.5532,955.3901,241.3808,967.755,234.3375" style="stroke:#181818;stroke-width:0.75;"/></g><!--link WebVerifiableHistoryCreator to VerificationMethodKeyProvider--><g class="link" data-entity-1="WebVerifiableHistoryCreator" data-entity-2="VerificationMethodKeyProvider" data-source-line="285" data-uid="lnk80" id="link_WebVerifiableHistoryCreator_VerificationMethodKeyProvider"><path codeLine="285" d="M745.4175,885.6075 C782.25,885.2325 822.42,877.1025 847.5375,849 C857.5875,837.75 843.9675,589.1625 853.5375,577.5 C889.92,533.16 1257.038,522.4935 1433.8505,519.8985" fill="none" id="WebVerifiableHistoryCreator-to-VerificationMethodKeyProvider" style="stroke:#181818;stroke-width:0.75;"/><polygon fill="#181818" points="1438.35,519.8325,1431.5567,516.9319,1434.6004,519.8875,1431.6448,522.9312,1438.35,519.8325" style="stroke:#181818;stroke-width:0.75;"/><text fill="#000000" font-family="sans-serif" font-size="9.75" lengthAdjust="spacing" textLength="149.8967" x="960.915" y="525.8227">verificationMethodKeyProvider</text></g><!--link WebVerifiableHistoryCreator to DidLogCreatorStrategy--><g class="link" data-entity-1="WebVerifiableHistoryCreator" data-entity-2="DidLogCreatorStrategy" data-source-line="286" data-uid="lnk81" id="link_WebVerifiableHistoryCreator_DidLogCreatorStrategy"><path codeLine="286" d="M745.5525,885.5175 C782.3025,885.09 822.3675,876.945 847.5375,849 C862.485,832.395 837.5025,663.5625 853.5375,648 C863.58,638.25 874.71,638.55 885.0375,648 C926.7525,686.1825 869.79,859.3875 907.5375,901.5 C921.5175,917.1075 928.8228,922.5361 949.4028,925.9336" fill="none" id="WebVerifiableHistoryCreator-to-DidLogCreatorStrategy" style="stroke:#181818;stroke-width:0.75;stroke-dasharray:5.25,5.25;"/><polygon fill="none" points="962.7225,928.1325,950.1358,921.4937,948.6698,930.3735,962.7225,928.1325" style="stroke:#181818;stroke-width:0.75;"/></g><!--link WebVerifiableHistoryDeactivator to VerificationMethodKeyProvider--><g class="link" data-entity-1="WebVerifiableHistoryDeactivator" data-entity-2="VerificationMethodKeyProvider" data-source-line="287" data-uid="lnk82" id="link_WebVerifiableHistoryDeactivator_VerificationMethodKeyProvider"><path codeLine="287" d="M756.4125,835.02 C790.05,833.1975 824.9175,824.0925 847.5375,798.75 C858.135,786.87 849.18,527.565 853.5375,512.25 C866.4525,466.83 866.5275,444.165 907.5375,420.75 C990.4875,373.3875 1244.25,419.5575 1336.7925,443.25 C1399.1625,459.2175 1464.5563,487.6988 1501.0963,504.7313" fill="none" id="WebVerifiableHistoryDeactivator-to-VerificationMethodKeyProvider" style="stroke:#181818;stroke-width:0.75;"/><polygon fill="#181818" points="1505.175,506.6325,1500.3245,501.0616,1501.7761,505.0482,1497.7895,506.4998,1505.175,506.6325" style="stroke:#181818;stroke-width:0.75;"/><text fill="#000000" font-family="sans-serif" font-size="9.75" lengthAdjust="spacing" textLength="149.8967" x="960.915" y="397.2577">verificationMethodKeyProvider</text></g><!--link WebVerifiableHistoryDeactivator to DidLogDeactivatorStrategy--><g class="link" data-entity-1="WebVerifiableHistoryDeactivator" data-entity-2="DidLogDeactivatorStrategy" data-source-line="288" data-uid="lnk83" id="link_WebVerifiableHistoryDeactivator_DidLogDeactivatorStrategy"><path codeLine="288" d="M756.4425,834.81 C789.975,832.935 824.7675,823.845 847.5375,798.75 C859.5825,785.475 840.6225,649.9425 853.5375,637.5 C863.6175,627.7875 874.485,628.2975 885.0375,637.5 C940.3275,685.7025 857.2725,747.5775 907.5375,801 C919.2675,813.4725 922.1438,817.5482 938.8163,821.6657" fill="none" id="WebVerifiableHistoryDeactivator-to-DidLogDeactivatorStrategy" style="stroke:#181818;stroke-width:0.75;stroke-dasharray:5.25,5.25;"/><polygon fill="none" points="951.9225,824.9025,939.8952,817.297,937.7373,826.0345,951.9225,824.9025" style="stroke:#181818;stroke-width:0.75;"/></g><!--link WebVerifiableHistoryUpdater to VerificationMethodKeyProvider--><g class="link" data-entity-1="WebVerifiableHistoryUpdater" data-entity-2="VerificationMethodKeyProvider" data-source-line="289" data-uid="lnk84" id="link_WebVerifiableHistoryUpdater_VerificationMethodKeyProvider"><path codeLine="289" d="M709.5825,786.375 C752.6625,793.53 812.835,795.0525 847.5375,759 C858.81,747.285 849.6,628.53 853.5375,612.75 C866.9475,558.9375 860.595,529.785 907.5375,500.25 C1101.8025,378.0075 1397.5686,469.5449 1494.9561,505.1474" fill="none" id="WebVerifiableHistoryUpdater-to-VerificationMethodKeyProvider" style="stroke:#181818;stroke-width:0.75;"/><polygon fill="#181818" points="1499.1825,506.6925,1493.8729,501.5573,1495.6605,505.4049,1491.8128,507.1925,1499.1825,506.6925" style="stroke:#181818;stroke-width:0.75;"/><text fill="#000000" font-family="sans-serif" font-size="9.75" lengthAdjust="spacing" textLength="149.8967" x="960.915" y="436.2352">verificationMethodKeyProvider</text></g><!--link WebVerifiableHistoryUpdater to DidLogUpdaterStrategy--><g class="link" data-entity-1="WebVerifiableHistoryUpdater" data-entity-2="DidLogUpdaterStrategy" data-source-line="290" data-uid="lnk85" id="link_WebVerifiableHistoryUpdater_DidLogUpdaterStrategy"><path codeLine="290" d="M709.755,786.3675 C752.79,793.47 812.8125,794.9175 847.5375,759 C857.7375,748.4475 842.9175,637.14 853.5375,627 C911.04,572.0475 877.2675,684.8175 907.5375,711 C922.3425,723.81 928.5754,728.1602 948.0079,730.2227" fill="none" id="WebVerifiableHistoryUpdater-to-DidLogUpdaterStrategy" style="stroke:#181818;stroke-width:0.75;stroke-dasharray:5.25,5.25;"/><polygon fill="none" points="961.4325,731.6475,948.4828,725.7478,947.533,734.6975,961.4325,731.6475" style="stroke:#181818;stroke-width:0.75;"/></g><!--SRC=[xLfRRzf857vU_mfBxKExtNXBsgwqKHM9Yrj885Ws99lD0nhi0IQnFSXZax3P_lSzsDZOOCpOXWIj-WJCvLo-yysPcJEOUEIABXKTCfwuea4ShBk4sWBJaOd5Jxz_5WH1Dn5ZeZwHa64HMnhUI-oHp3t988PBgJcaJv9id7xvKlbJSIWTTKSAPGmp1d8kRZIDZ6tijAofAJuBlpnRs9rGuuVuWNdJANLSRC2OgZcc3d4d5XFVlHVFn7iqGvBd4bFIi2lyo6N3DNR8YEXeuKR7LtQ9vs3OZ1WnCqO4cs35cmVeGyG9TJAiUs38NBeCscCZfqiH6qD3sN7dnXXyHYvUE8zSpy7YEt6A76JTrIeWuAucllS_adFSkErWGSSpNJ9430UeQAv3x75y2c7nKIqRq0eLmTVAEfA-qY70XP4T5_C8Vc356vf41tbLfc0h5FEDc3YIGwYq-EsBcL5Yy4QcPS-GIOm6CTfqB3_fUBfm4EB0EV-YhZKHcm3st5CwYEHGiC7RkeEHIvqaO_L5OnJ981gLA2xYRq5xmtFy-9s6gBd4mbBOwcEdKqkoYJNqcC6a-qTNyjS8B8HUMOFNmIMsYvqHqd5EST6wJI805BseL-iKf3wv0IcJlb26fNiTIQjHYIKF8aFuG4CJ8rWsbLGXKNS8wrtjTBLmDiVx5A_18lZZSrzj5uOnM83hRXDslU1l5FamMfNCM8QM1_GuNH5boogSBNJFzwaapnhT2iKwfR3jMML5lPKTXpfrv45gYsNZ3_9VIakL6x6MRzLMMsuCUjt1jQosljt6kbfNrzLsgp6uwbxLvPHshVNzgjhhg_6-I_bsq6bfdMgltemrzw-KggfLQsqvqQZr5QMhza1_jVszgxPwpSwM_eLShL_htIeoB-0zuv4Zom2Pe_HhOrU2t-9gBn2_VZNm5FPic66Sdulvv2ofypS5AZLWR0yILJ9h9RfowGroFPyNHMONjpscxGtaCr0Ld1AMwImhP1Ori2b5CsHO2JcYtS08pbQppOWROSVslOKFUWv1XudvId4oSXb-y4pVUlZW5x5708w1E0KEJo2WFpN0dIJhzk5237_FLr6Ilu6GGXHAcvg3FboQIr0dTwmA7kGoBp-9-8lFQCXS1vXLxBgoDZ_lrIKnlSmrXXDPFJYDIa68bnjlU90jlF_c2Ksg1I06b8tdsqDJQZij9EdmDC-4ea2AIygBfSlK0EVQRhCdxiemXUaHys4tHShjlboY-5DfCSjUcdCf-9RctJ9pftAEUtlSFkbWN5lQlPjdnRVddM8Aykj8jkrCF0lmwXxk-nQoOSjEsT2LXJCO5B34rVd-yI4ELzZyWEUvtOcEUk0Cw4H9AYC7AmvMgRium0M-mkxDYjGT_Nq_50OELfV9OdaUJPsHeZkJYpdF2Uk-AnW_5Ac1f1oN4-7gDMu67mUVOYqtSkswEQWCFkOpjOFC4NKiR2mk2ZlCpY_q1Wy31gAXYPk4GRwSxqtB5V3OY23QmklL5c90D6iH9S9-6nOUSC2l3xEDfuFLE6_5rCr1yG9dCcO7lTi5KrC2bnT9dZ3no_HVDYYRCsdg4CjZak9_7CCRJxPfV4y_-HzfoXa7DcWG4BZN49SWa_pZsrTWrUoGtwR8YCAyEqDnINkhXQEMGDipub3RmhQRMAMQNE-hNUrM6oXggzFN1iskrilgLwgQTjDL6vbZkcgcZBucgxpOFUBXR9AwJZAAi3-BcBmWSjGsVrO6NomQBrRl-x-MwW3_ylzsE3dvzrpSpryMzc6E9EqqPxi4OJ__lE2m8LE8KEmL_zUJayAU0p4O1mGP0bxOwSrtsmBkPxxOdeau-Y7mld6Ud9G2OV6QNHoac1qSqSWiJmfvdlbUs-cuBRaTJwcH2RmlJQ_jU6X7RgVNYZT2yKU5LuMWf6LfrOipqGX_2-MgyKU4J27hzeZEMituY939RLafL3PAZhpwjjQGpe8J81FsLaFZEC_jg1uAXokz7TguKZKX3kDA5dOEQFm1pyrbgralTiFONJrvrSorsxp3dlhuwY972j7BdX5t5osE5AQzdIY52PWX-aLD5dmFIXjC-0y0]--></g></svg>