<svg xmlns="http://www.w3.org/2000/svg" xmlns:xlink="http://www.w3.org/1999/xlink" contentStyleType="text/css" data-diagram-type="CLASS" height="958.6667px" preserveAspectRatio="none" style="width:1301px;height:958px;background:#FFFFFF;" version="1.1" viewBox="0 0 1301 958" width="1301.3333px" zoomAndPan="magnify"><defs/><g><!--cluster ch--><g class="cluster" data-entity="ch" data-source-line="9" data-uid="ent0003" id="cluster_ch"><path d="M5.6667,4 L18.5104,4 A2.5,2.5 0 0 1 20.1771,5.6667 L24.8438,18.8646 L1295.5,18.8646 A1.6667,1.6667 0 0 1 1297.1667,20.5313 L1297.1667,952.3333 A1.6667,1.6667 0 0 1 1295.5,954 L5.6667,954 A1.6667,1.6667 0 0 1 4,952.3333 L4,5.6667 A1.6667,1.6667 0 0 1 5.6667,4" fill="none" style="stroke:#000000;stroke-width:1;"/><line style="stroke:#000000;stroke-width:1;" x1="4" x2="24.8438" y1="18.8646" y2="18.8646"/><text fill="#000000" font-family="sans-serif" font-size="9.3333" font-weight="bold" lengthAdjust="spacing" textLength="12.1771" x="6.6667" y="13.9967">ch</text></g><!--cluster admin--><g class="cluster" data-entity="admin" data-source-line="9" data-uid="ent0004" id="cluster_admin"><path d="M21.6667,32.6667 L54.8815,32.6667 A2.5,2.5 0 0 1 56.5482,34.3333 L61.2148,47.5313 L1279.5,47.5313 A1.6667,1.6667 0 0 1 1281.1667,49.1979 L1281.1667,936.3333 A1.6667,1.6667 0 0 1 1279.5,938 L21.6667,938 A1.6667,1.6667 0 0 1 20,936.3333 L20,34.3333 A1.6667,1.6667 0 0 1 21.6667,32.6667" fill="none" style="stroke:#000000;stroke-width:1;"/><line style="stroke:#000000;stroke-width:1;" x1="20" x2="61.2148" y1="47.5313" y2="47.5313"/><text fill="#000000" font-family="sans-serif" font-size="9.3333" font-weight="bold" lengthAdjust="spacing" textLength="32.5482" x="22.6667" y="42.6634">admin</text></g><!--cluster bj--><g class="cluster" data-entity="bj" data-source-line="9" data-uid="ent0005" id="cluster_bj"><path d="M37.6667,61.3333 L48.2135,61.3333 A2.5,2.5 0 0 1 49.8802,63 L54.5469,76.1979 L1263.5,76.1979 A1.6667,1.6667 0 0 1 1265.1667,77.8646 L1265.1667,920.3333 A1.6667,1.6667 0 0 1 1263.5,922 L37.6667,922 A1.6667,1.6667 0 0 1 36,920.3333 L36,63 A1.6667,1.6667 0 0 1 37.6667,61.3333" fill="none" style="stroke:#000000;stroke-width:1;"/><line style="stroke:#000000;stroke-width:1;" x1="36" x2="54.5469" y1="76.1979" y2="76.1979"/><text fill="#000000" font-family="sans-serif" font-size="9.3333" font-weight="bold" lengthAdjust="spacing" textLength="9.8802" x="38.6667" y="71.3301">bj</text></g><!--cluster swiyu--><g class="cluster" data-entity="swiyu" data-source-line="9" data-uid="ent0006" id="cluster_swiyu"><path d="M53.6667,90 L84.4388,90 A2.5,2.5 0 0 1 86.1055,91.6667 L90.7721,104.8646 L1247.5,104.8646 A1.6667,1.6667 0 0 1 1249.1667,106.5313 L1249.1667,904.3333 A1.6667,1.6667 0 0 1 1247.5,906 L53.6667,906 A1.6667,1.6667 0 0 1 52,904.3333 L52,91.6667 A1.6667,1.6667 0 0 1 53.6667,90" fill="none" style="stroke:#000000;stroke-width:1;"/><line style="stroke:#000000;stroke-width:1;" x1="52" x2="90.7721" y1="104.8646" y2="104.8646"/><text fill="#000000" font-family="sans-serif" font-size="9.3333" font-weight="bold" lengthAdjust="spacing" textLength="30.1055" x="54.6667" y="99.9967">swiyu</text></g><!--cluster didtoolbox--><g class="cluster" data-entity="didtoolbox" data-source-line="9" data-uid="ent0007" id="cluster_didtoolbox"><path d="M69.6667,118.6667 L126.4928,118.6667 A2.5,2.5 0 0 1 128.1595,120.3333 L132.8262,133.5313 L1231.5,133.5313 A1.6667,1.6667 0 0 1 1233.1667,135.1979 L1233.1667,888.3333 A1.6667,1.6667 0 0 1 1231.5,890 L69.6667,890 A1.6667,1.6667 0 0 1 68,888.3333 L68,120.3333 A1.6667,1.6667 0 0 1 69.6667,118.6667" fill="none" style="stroke:#000000;stroke-width:1;"/><line style="stroke:#000000;stroke-width:1;" x1="68" x2="132.8262" y1="133.5313" y2="133.5313"/><text fill="#000000" font-family="sans-serif" font-size="9.3333" font-weight="bold" lengthAdjust="spacing" textLength="56.1595" x="70.6667" y="128.6634">didtoolbox</text></g><!--cluster context--><g class="cluster" data-entity="context" data-source-line="100" data-uid="ent0019" id="cluster_context"><path d="M393.88,508.6667 L434.4093,508.6667 A2.5,2.5 0 0 1 436.076,510.3333 L440.7426,523.5313 L560.22,523.5313 A1.6667,1.6667 0 0 1 561.8867,525.1979 L561.8867,785.6667 A1.6667,1.6667 0 0 1 560.22,787.3333 L393.88,787.3333 A1.6667,1.6667 0 0 1 392.2133,785.6667 L392.2133,510.3333 A1.6667,1.6667 0 0 1 393.88,508.6667" fill="none" style="stroke:#000000;stroke-width:1;"/><line style="stroke:#000000;stroke-width:1;" x1="392.2133" x2="440.7426" y1="523.5313" y2="523.5313"/><text fill="#000000" font-family="sans-serif" font-size="9.3333" font-weight="bold" lengthAdjust="spacing" textLength="39.8626" x="394.88" y="518.6634">context</text></g><!--cluster jcommander--><g class="cluster" data-entity="jcommander" data-source-line="149" data-uid="ent0026" id="cluster_jcommander"><path d="M96.3,818.6667 L162.1177,818.6667 A2.5,2.5 0 0 1 163.7844,820.3333 L168.451,833.5313 L277.64,833.5313 A1.6667,1.6667 0 0 1 279.3067,835.1979 L279.3067,872.3333 A1.6667,1.6667 0 0 1 277.64,874 L96.3,874 A1.6667,1.6667 0 0 1 94.6333,872.3333 L94.6333,820.3333 A1.6667,1.6667 0 0 1 96.3,818.6667" fill="none" style="stroke:#000000;stroke-width:1;"/><line style="stroke:#000000;stroke-width:1;" x1="94.6333" x2="168.451" y1="833.5313" y2="833.5313"/><text fill="#000000" font-family="sans-serif" font-size="9.3333" font-weight="bold" lengthAdjust="spacing" textLength="65.151" x="97.3" y="828.6634">jcommander</text></g><!--cluster model--><g class="cluster" data-entity="model" data-source-line="155" data-uid="ent0028" id="cluster_model"><path d="M757.1667,553.3333 L790.181,553.3333 A2.5,2.5 0 0 1 791.8477,555 L796.5143,568.1979 L1215.5,568.1979 A1.6667,1.6667 0 0 1 1217.1667,569.8646 L1217.1667,741 A1.6667,1.6667 0 0 1 1215.5,742.6667 L757.1667,742.6667 A1.6667,1.6667 0 0 1 755.5,741 L755.5,555 A1.6667,1.6667 0 0 1 757.1667,553.3333" fill="none" style="stroke:#000000;stroke-width:1;"/><line style="stroke:#000000;stroke-width:1;" x1="755.5" x2="796.5143" y1="568.1979" y2="568.1979"/><text fill="#000000" font-family="sans-serif" font-size="9.3333" font-weight="bold" lengthAdjust="spacing" textLength="32.3477" x="758.1667" y="563.3301">model</text></g><!--cluster webvh--><g class="cluster" data-entity="webvh" data-source-line="190" data-uid="ent0034" id="cluster_webvh"><path d="M90.8067,398.6667 L125.8353,398.6667 A2.5,2.5 0 0 1 127.502,400.3333 L132.1686,413.5313 L283.1333,413.5313 A1.6667,1.6667 0 0 1 284.8,415.1979 L284.8,541.6667 A1.6667,1.6667 0 0 1 283.1333,543.3333 L90.8067,543.3333 A1.6667,1.6667 0 0 1 89.14,541.6667 L89.14,400.3333 A1.6667,1.6667 0 0 1 90.8067,398.6667" fill="none" style="stroke:#000000;stroke-width:1;"/><line style="stroke:#000000;stroke-width:1;" x1="89.14" x2="132.1686" y1="413.5313" y2="413.5313"/><text fill="#000000" font-family="sans-serif" font-size="9.3333" font-weight="bold" lengthAdjust="spacing" textLength="34.362" x="91.8067" y="408.6634">webvh</text></g><!--class Ed25519ProofOfPossessionJWSSignerImpl--><g class="entity" data-entity="Ed25519ProofOfPossessionJWSSignerImpl" data-source-line="9" data-uid="ent0002" id="entity_Ed25519ProofOfPossessionJWSSignerImpl"><rect fill="#F1F1F1" height="21.3333" rx="1.6667" ry="1.6667" style="stroke:#181818;stroke-width:0.3333;" width="216.6042" x="78.6667" y="142"/><ellipse cx="88.6667" cy="152.6667" fill="#ADD1B2" rx="7.3333" ry="7.3333" style="stroke:#181818;stroke-width:0.6667;"/><path d="M90.6458,156.4271 Q90.2604,156.625 89.8333,156.7188 Q89.4063,156.8229 88.9375,156.8229 Q87.2708,156.8229 86.3854,155.7292 Q85.5104,154.625 85.5104,152.5417 Q85.5104,150.4583 86.3854,149.3542 Q87.2708,148.25 88.9375,148.25 Q89.4063,148.25 89.8333,148.3542 Q90.2708,148.4583 90.6458,148.6563 L90.6458,150.4688 Q90.2292,150.0833 89.8333,149.9063 Q89.4375,149.7188 89.0208,149.7188 Q88.125,149.7188 87.6667,150.4375 Q87.2083,151.1458 87.2083,152.5417 Q87.2083,153.9375 87.6667,154.6563 Q88.125,155.3646 89.0208,155.3646 Q89.4375,155.3646 89.8333,155.1875 Q90.2292,155 90.6458,154.6146 L90.6458,156.4271 Z " fill="#000000"/><text fill="#000000" font-family="sans-serif" font-size="9.3333" lengthAdjust="spacing" textLength="195.2708" x="98" y="155.8978">Ed25519ProofOfPossessionJWSSignerImpl</text></g><!--class Ed25519VerificationMethodKeyProviderImpl--><g class="entity" data-entity="Ed25519VerificationMethodKeyProviderImpl" data-source-line="14" data-uid="ent0008" id="entity_Ed25519VerificationMethodKeyProviderImpl"><rect fill="#F1F1F1" height="21.3333" rx="1.6667" ry="1.6667" style="stroke:#181818;stroke-width:0.3333;" width="227.5599" x="363.2733" y="142"/><ellipse cx="373.2733" cy="152.6667" fill="#ADD1B2" rx="7.3333" ry="7.3333" style="stroke:#181818;stroke-width:0.6667;"/><path d="M375.2525,156.4271 Q374.8671,156.625 374.44,156.7188 Q374.0129,156.8229 373.5442,156.8229 Q371.8775,156.8229 370.9921,155.7292 Q370.1171,154.625 370.1171,152.5417 Q370.1171,150.4583 370.9921,149.3542 Q371.8775,148.25 373.5442,148.25 Q374.0129,148.25 374.44,148.3542 Q374.8775,148.4583 375.2525,148.6563 L375.2525,150.4688 Q374.8358,150.0833 374.44,149.9063 Q374.0442,149.7188 373.6275,149.7188 Q372.7317,149.7188 372.2733,150.4375 Q371.815,151.1458 371.815,152.5417 Q371.815,153.9375 372.2733,154.6563 Q372.7317,155.3646 373.6275,155.3646 Q374.0442,155.3646 374.44,155.1875 Q374.8358,155 375.2525,154.6146 L375.2525,156.4271 Z " fill="#000000"/><text fill="#000000" font-family="sans-serif" font-size="9.3333" lengthAdjust="spacing" textLength="206.2266" x="382.6067" y="155.8978">Ed25519VerificationMethodKeyProviderImpl</text></g><!--class JCSHasher--><g class="entity" data-entity="JCSHasher" data-source-line="26" data-uid="ent0009" id="entity_JCSHasher"><rect fill="#F1F1F1" height="21.3333" rx="1.6667" ry="1.6667" style="stroke:#181818;stroke-width:0.3333;" width="69.6224" x="152.16" y="786.6667"/><ellipse cx="162.16" cy="797.3333" fill="#ADD1B2" rx="7.3333" ry="7.3333" style="stroke:#181818;stroke-width:0.6667;"/><path d="M164.1392,801.0938 Q163.7538,801.2917 163.3267,801.3854 Q162.8996,801.4896 162.4308,801.4896 Q160.7642,801.4896 159.8788,800.3958 Q159.0038,799.2917 159.0038,797.2083 Q159.0038,795.125 159.8788,794.0208 Q160.7642,792.9167 162.4308,792.9167 Q162.8996,792.9167 163.3267,793.0208 Q163.7642,793.125 164.1392,793.3229 L164.1392,795.1354 Q163.7225,794.75 163.3267,794.5729 Q162.9308,794.3854 162.5142,794.3854 Q161.6183,794.3854 161.16,795.1042 Q160.7017,795.8125 160.7017,797.2083 Q160.7017,798.6042 161.16,799.3229 Q161.6183,800.0313 162.5142,800.0313 Q162.9308,800.0313 163.3267,799.8542 Q163.7225,799.6667 164.1392,799.2813 L164.1392,801.0938 Z " fill="#000000"/><text fill="#000000" font-family="sans-serif" font-size="9.3333" lengthAdjust="spacing" textLength="48.2891" x="171.4933" y="800.5645">JCSHasher</text></g><!--class Main--><g class="entity" data-entity="Main" data-source-line="30" data-uid="ent0010" id="entity_Main"><rect fill="#F1F1F1" height="21.3333" rx="1.6667" ry="1.6667" style="stroke:#181818;stroke-width:0.3333;" width="43.6139" x="165.16" y="742"/><ellipse cx="175.16" cy="752.6667" fill="#ADD1B2" rx="7.3333" ry="7.3333" style="stroke:#181818;stroke-width:0.6667;"/><path d="M177.1392,756.4271 Q176.7538,756.625 176.3267,756.7188 Q175.8996,756.8229 175.4308,756.8229 Q173.7642,756.8229 172.8788,755.7292 Q172.0038,754.625 172.0038,752.5417 Q172.0038,750.4583 172.8788,749.3542 Q173.7642,748.25 175.4308,748.25 Q175.8996,748.25 176.3267,748.3542 Q176.7642,748.4583 177.1392,748.6563 L177.1392,750.4688 Q176.7225,750.0833 176.3267,749.9063 Q175.9308,749.7188 175.5142,749.7188 Q174.6183,749.7188 174.16,750.4375 Q173.7017,751.1458 173.7017,752.5417 Q173.7017,753.9375 174.16,754.6563 Q174.6183,755.3646 175.5142,755.3646 Q175.9308,755.3646 176.3267,755.1875 Q176.7225,755 177.1392,754.6146 L177.1392,756.4271 Z " fill="#000000"/><text fill="#000000" font-family="sans-serif" font-size="9.3333" lengthAdjust="spacing" textLength="22.2806" x="184.4933" y="755.8978">Main</text></g><!--class ProofOfPossessionCreator--><g class="entity" data-entity="ProofOfPossessionCreator" data-source-line="36" data-uid="ent0011" id="entity_ProofOfPossessionCreator"><rect fill="#F1F1F1" height="21.3333" rx="1.6667" ry="1.6667" style="stroke:#181818;stroke-width:0.3333;" width="141.9102" x="116.0133" y="186.6667"/><ellipse cx="126.0133" cy="197.3333" fill="#ADD1B2" rx="7.3333" ry="7.3333" style="stroke:#181818;stroke-width:0.6667;"/><path d="M127.9925,201.0938 Q127.6071,201.2917 127.18,201.3854 Q126.7529,201.4896 126.2842,201.4896 Q124.6175,201.4896 123.7321,200.3958 Q122.8571,199.2917 122.8571,197.2083 Q122.8571,195.125 123.7321,194.0208 Q124.6175,192.9167 126.2842,192.9167 Q126.7529,192.9167 127.18,193.0208 Q127.6175,193.125 127.9925,193.3229 L127.9925,195.1354 Q127.5758,194.75 127.18,194.5729 Q126.7842,194.3854 126.3675,194.3854 Q125.4717,194.3854 125.0133,195.1042 Q124.555,195.8125 124.555,197.2083 Q124.555,198.6042 125.0133,199.3229 Q125.4717,200.0313 126.3675,200.0313 Q126.7842,200.0313 127.18,199.8542 Q127.5758,199.6667 127.9925,199.2813 L127.9925,201.0938 Z " fill="#000000"/><text fill="#000000" font-family="sans-serif" font-size="9.3333" lengthAdjust="spacing" textLength="120.5768" x="135.3467" y="200.5645">ProofOfPossessionCreator</text></g><!--class ProofOfPossessionJWSSigner--><g class="entity" data-entity="ProofOfPossessionJWSSigner" data-source-line="41" data-uid="ent0012" id="entity_ProofOfPossessionJWSSigner"><rect fill="#F1F1F1" height="21.3333" rx="1.6667" ry="1.6667" style="stroke:#181818;stroke-width:0.3333;" width="154.7298" x="399.6867" y="186.6667"/><ellipse cx="409.6867" cy="197.3333" fill="#B4A7E5" rx="7.3333" ry="7.3333" style="stroke:#181818;stroke-width:0.6667;"/><path d="M406.9679,194.5104 L406.9679,193.0729 L411.895,193.0729 L411.895,194.5104 L410.2492,194.5104 L410.2492,199.8958 L411.895,199.8958 L411.895,201.3333 L406.9679,201.3333 L406.9679,199.8958 L408.6138,199.8958 L408.6138,194.5104 L406.9679,194.5104 Z " fill="#000000"/><text fill="#000000" font-family="sans-serif" font-size="9.3333" font-style="italic" lengthAdjust="spacing" textLength="133.3965" x="419.02" y="200.5645">ProofOfPossessionJWSSigner</text></g><!--class ProofOfPossessionVerifier--><g class="entity" data-entity="ProofOfPossessionVerifier" data-source-line="47" data-uid="ent0013" id="entity_ProofOfPossessionVerifier"><rect fill="#F1F1F1" height="21.3333" rx="1.6667" ry="1.6667" style="stroke:#181818;stroke-width:0.3333;" width="140.903" x="406.6" y="858"/><ellipse cx="416.6" cy="868.6667" fill="#ADD1B2" rx="7.3333" ry="7.3333" style="stroke:#181818;stroke-width:0.6667;"/><path d="M418.5792,872.4271 Q418.1937,872.625 417.7667,872.7188 Q417.3396,872.8229 416.8708,872.8229 Q415.2042,872.8229 414.3187,871.7292 Q413.4437,870.625 413.4437,868.5417 Q413.4437,866.4583 414.3187,865.3542 Q415.2042,864.25 416.8708,864.25 Q417.3396,864.25 417.7667,864.3542 Q418.2042,864.4583 418.5792,864.6563 L418.5792,866.4688 Q418.1625,866.0833 417.7667,865.9063 Q417.3708,865.7188 416.9542,865.7188 Q416.0583,865.7188 415.6,866.4375 Q415.1417,867.1458 415.1417,868.5417 Q415.1417,869.9375 415.6,870.6563 Q416.0583,871.3646 416.9542,871.3646 Q417.3708,871.3646 417.7667,871.1875 Q418.1625,871 418.5792,870.6146 L418.5792,872.4271 Z " fill="#000000"/><text fill="#000000" font-family="sans-serif" font-size="9.3333" lengthAdjust="spacing" textLength="119.5697" x="425.9333" y="871.8978">ProofOfPossessionVerifier</text></g><!--class TdwCreator--><g class="entity" data-entity="TdwCreator" data-source-line="54" data-uid="ent0014" id="entity_TdwCreator"><rect fill="#F1F1F1" height="21.3333" rx="1.6667" ry="1.6667" style="stroke:#181818;stroke-width:0.3333;" width="75.6152" x="149.16" y="244"/><ellipse cx="159.16" cy="254.6667" fill="#ADD1B2" rx="7.3333" ry="7.3333" style="stroke:#181818;stroke-width:0.6667;"/><path d="M161.1392,258.4271 Q160.7538,258.625 160.3267,258.7188 Q159.8996,258.8229 159.4308,258.8229 Q157.7642,258.8229 156.8788,257.7292 Q156.0038,256.625 156.0038,254.5417 Q156.0038,252.4583 156.8788,251.3542 Q157.7642,250.25 159.4308,250.25 Q159.8996,250.25 160.3267,250.3542 Q160.7642,250.4583 161.1392,250.6563 L161.1392,252.4688 Q160.7225,252.0833 160.3267,251.9063 Q159.9308,251.7188 159.5142,251.7188 Q158.6183,251.7188 158.16,252.4375 Q157.7017,253.1458 157.7017,254.5417 Q157.7017,255.9375 158.16,256.6563 Q158.6183,257.3646 159.5142,257.3646 Q159.9308,257.3646 160.3267,257.1875 Q160.7225,257 161.1392,256.6146 L161.1392,258.4271 Z " fill="#000000"/><text fill="#000000" font-family="sans-serif" font-size="9.3333" lengthAdjust="spacing" textLength="54.2819" x="168.4933" y="257.8978">TdwCreator</text></g><!--class TdwDeactivator--><g class="entity" data-entity="TdwDeactivator" data-source-line="67" data-uid="ent0015" id="entity_TdwDeactivator"><rect fill="#F1F1F1" height="21.3333" rx="1.6667" ry="1.6667" style="stroke:#181818;stroke-width:0.3333;" width="95.0749" x="139.4333" y="309.3333"/><ellipse cx="149.4333" cy="320" fill="#ADD1B2" rx="7.3333" ry="7.3333" style="stroke:#181818;stroke-width:0.6667;"/><path d="M151.4125,323.7604 Q151.0271,323.9583 150.6,324.0521 Q150.1729,324.1563 149.7042,324.1563 Q148.0375,324.1563 147.1521,323.0625 Q146.2771,321.9583 146.2771,319.875 Q146.2771,317.7917 147.1521,316.6875 Q148.0375,315.5833 149.7042,315.5833 Q150.1729,315.5833 150.6,315.6875 Q151.0375,315.7917 151.4125,315.9896 L151.4125,317.8021 Q150.9958,317.4167 150.6,317.2396 Q150.2042,317.0521 149.7875,317.0521 Q148.8917,317.0521 148.4333,317.7708 Q147.975,318.4792 147.975,319.875 Q147.975,321.2708 148.4333,321.9896 Q148.8917,322.6979 149.7875,322.6979 Q150.2042,322.6979 150.6,322.5208 Q150.9958,322.3333 151.4125,321.9479 L151.4125,323.7604 Z " fill="#000000"/><text fill="#000000" font-family="sans-serif" font-size="9.3333" lengthAdjust="spacing" textLength="73.7415" x="158.7667" y="323.2311">TdwDeactivator</text></g><!--class TdwUpdater--><g class="entity" data-entity="TdwUpdater" data-source-line="78" data-uid="ent0016" id="entity_TdwUpdater"><rect fill="#F1F1F1" height="21.3333" rx="1.6667" ry="1.6667" style="stroke:#181818;stroke-width:0.3333;" width="78.2311" x="147.8533" y="697.3333"/><ellipse cx="157.8533" cy="708" fill="#ADD1B2" rx="7.3333" ry="7.3333" style="stroke:#181818;stroke-width:0.6667;"/><path d="M159.8325,711.7604 Q159.4471,711.9583 159.02,712.0521 Q158.5929,712.1563 158.1242,712.1563 Q156.4575,712.1563 155.5721,711.0625 Q154.6971,709.9583 154.6971,707.875 Q154.6971,705.7917 155.5721,704.6875 Q156.4575,703.5833 158.1242,703.5833 Q158.5929,703.5833 159.02,703.6875 Q159.4575,703.7917 159.8325,703.9896 L159.8325,705.8021 Q159.4158,705.4167 159.02,705.2396 Q158.6242,705.0521 158.2075,705.0521 Q157.3117,705.0521 156.8533,705.7708 Q156.395,706.4792 156.395,707.875 Q156.395,709.2708 156.8533,709.9896 Q157.3117,710.6979 158.2075,710.6979 Q158.6242,710.6979 159.02,710.5208 Q159.4158,710.3333 159.8325,709.9479 L159.8325,711.7604 Z " fill="#000000"/><text fill="#000000" font-family="sans-serif" font-size="9.3333" lengthAdjust="spacing" textLength="56.8978" x="167.1867" y="711.2311">TdwUpdater</text></g><!--class VerificationMethodKeyProvider--><g class="entity" data-entity="VerificationMethodKeyProvider" data-source-line="93" data-uid="ent0017" id="entity_VerificationMethodKeyProvider"><rect fill="#F1F1F1" height="21.3333" rx="1.6667" ry="1.6667" style="stroke:#181818;stroke-width:0.3333;" width="165.6855" x="787.1533" y="406"/><ellipse cx="797.1533" cy="416.6667" fill="#B4A7E5" rx="7.3333" ry="7.3333" style="stroke:#181818;stroke-width:0.6667;"/><path d="M794.4346,413.8438 L794.4346,412.4063 L799.3617,412.4063 L799.3617,413.8438 L797.7158,413.8438 L797.7158,419.2292 L799.3617,419.2292 L799.3617,420.6667 L794.4346,420.6667 L794.4346,419.2292 L796.0804,419.2292 L796.0804,413.8438 L794.4346,413.8438 Z " fill="#000000"/><text fill="#000000" font-family="sans-serif" font-size="9.3333" font-style="italic" lengthAdjust="spacing" textLength="144.3522" x="806.4867" y="419.8978">VerificationMethodKeyProvider</text></g><!--class DidLogCreatorContext--><g class="entity" data-entity="DidLogCreatorContext" data-source-line="100" data-uid="ent0018" id="entity_DidLogCreatorContext"><rect fill="#F1F1F1" height="21.3333" rx="1.6667" ry="1.6667" style="stroke:#181818;stroke-width:0.3333;" width="125.6224" x="414.24" y="666"/><ellipse cx="424.24" cy="676.6667" fill="#ADD1B2" rx="7.3333" ry="7.3333" style="stroke:#181818;stroke-width:0.6667;"/><path d="M426.2192,680.4271 Q425.8338,680.625 425.4067,680.7188 Q424.9796,680.8229 424.5108,680.8229 Q422.8442,680.8229 421.9588,679.7292 Q421.0838,678.625 421.0838,676.5417 Q421.0838,674.4583 421.9588,673.3542 Q422.8442,672.25 424.5108,672.25 Q424.9796,672.25 425.4067,672.3542 Q425.8442,672.4583 426.2192,672.6563 L426.2192,674.4688 Q425.8025,674.0833 425.4067,673.9063 Q425.0108,673.7188 424.5942,673.7188 Q423.6983,673.7188 423.24,674.4375 Q422.7817,675.1458 422.7817,676.5417 Q422.7817,677.9375 423.24,678.6563 Q423.6983,679.3646 424.5942,679.3646 Q425.0108,679.3646 425.4067,679.1875 Q425.8025,679 426.2192,678.6146 L426.2192,680.4271 Z " fill="#000000"/><text fill="#000000" font-family="sans-serif" font-size="9.3333" lengthAdjust="spacing" textLength="104.2891" x="433.5733" y="679.8978">DidLogCreatorContext</text></g><!--class DidLogCreatorStrategy--><g class="entity" data-entity="DidLogCreatorStrategy" data-source-line="111" data-uid="ent0020" id="entity_DidLogCreatorStrategy"><rect fill="#F1F1F1" height="21.3333" rx="1.6667" ry="1.6667" style="stroke:#181818;stroke-width:0.3333;" width="128.8854" x="412.6067" y="532"/><ellipse cx="422.6067" cy="542.6667" fill="#B4A7E5" rx="7.3333" ry="7.3333" style="stroke:#181818;stroke-width:0.6667;"/><path d="M419.8879,539.8438 L419.8879,538.4063 L424.815,538.4063 L424.815,539.8438 L423.1692,539.8438 L423.1692,545.2292 L424.815,545.2292 L424.815,546.6667 L419.8879,546.6667 L419.8879,545.2292 L421.5337,545.2292 L421.5337,539.8438 L419.8879,539.8438 Z " fill="#000000"/><text fill="#000000" font-family="sans-serif" font-size="9.3333" font-style="italic" lengthAdjust="spacing" textLength="107.5521" x="431.94" y="545.8978">DidLogCreatorStrategy</text></g><!--class DidLogDeactivatorContext--><g class="entity" data-entity="DidLogDeactivatorContext" data-source-line="117" data-uid="ent0021" id="entity_DidLogDeactivatorContext"><rect fill="#F1F1F1" height="21.3333" rx="1.6667" ry="1.6667" style="stroke:#181818;stroke-width:0.3333;" width="145.082" x="404.5067" y="755.3333"/><ellipse cx="414.5067" cy="766" fill="#ADD1B2" rx="7.3333" ry="7.3333" style="stroke:#181818;stroke-width:0.6667;"/><path d="M416.4858,769.7604 Q416.1004,769.9583 415.6733,770.0521 Q415.2463,770.1563 414.7775,770.1563 Q413.1108,770.1563 412.2254,769.0625 Q411.3504,767.9583 411.3504,765.875 Q411.3504,763.7917 412.2254,762.6875 Q413.1108,761.5833 414.7775,761.5833 Q415.2463,761.5833 415.6733,761.6875 Q416.1108,761.7917 416.4858,761.9896 L416.4858,763.8021 Q416.0692,763.4167 415.6733,763.2396 Q415.2775,763.0521 414.8608,763.0521 Q413.965,763.0521 413.5067,763.7708 Q413.0483,764.4792 413.0483,765.875 Q413.0483,767.2708 413.5067,767.9896 Q413.965,768.6979 414.8608,768.6979 Q415.2775,768.6979 415.6733,768.5208 Q416.0692,768.3333 416.4858,767.9479 L416.4858,769.7604 Z " fill="#000000"/><text fill="#000000" font-family="sans-serif" font-size="9.3333" lengthAdjust="spacing" textLength="123.7487" x="423.84" y="769.2311">DidLogDeactivatorContext</text></g><!--class DidLogDeactivatorStrategy--><g class="entity" data-entity="DidLogDeactivatorStrategy" data-source-line="124" data-uid="ent0022" id="entity_DidLogDeactivatorStrategy"><rect fill="#F1F1F1" height="21.3333" rx="1.6667" ry="1.6667" style="stroke:#181818;stroke-width:0.3333;" width="148.3451" x="402.88" y="621.3333"/><ellipse cx="412.88" cy="632" fill="#B4A7E5" rx="7.3333" ry="7.3333" style="stroke:#181818;stroke-width:0.6667;"/><path d="M410.1613,629.1771 L410.1613,627.7396 L415.0883,627.7396 L415.0883,629.1771 L413.4425,629.1771 L413.4425,634.5625 L415.0883,634.5625 L415.0883,636 L410.1613,636 L410.1613,634.5625 L411.8071,634.5625 L411.8071,629.1771 L410.1613,629.1771 Z " fill="#000000"/><text fill="#000000" font-family="sans-serif" font-size="9.3333" font-style="italic" lengthAdjust="spacing" textLength="127.0117" x="422.2133" y="635.2311">DidLogDeactivatorStrategy</text></g><!--class DidLogUpdaterContext--><g class="entity" data-entity="DidLogUpdaterContext" data-source-line="131" data-uid="ent0023" id="entity_DidLogUpdaterContext"><rect fill="#F1F1F1" height="21.3333" rx="1.6667" ry="1.6667" style="stroke:#181818;stroke-width:0.3333;" width="128.2383" x="412.9333" y="576.6667"/><ellipse cx="422.9333" cy="587.3333" fill="#ADD1B2" rx="7.3333" ry="7.3333" style="stroke:#181818;stroke-width:0.6667;"/><path d="M424.9125,591.0938 Q424.5271,591.2917 424.1,591.3854 Q423.6729,591.4896 423.2042,591.4896 Q421.5375,591.4896 420.6521,590.3958 Q419.7771,589.2917 419.7771,587.2083 Q419.7771,585.125 420.6521,584.0208 Q421.5375,582.9167 423.2042,582.9167 Q423.6729,582.9167 424.1,583.0208 Q424.5375,583.125 424.9125,583.3229 L424.9125,585.1354 Q424.4958,584.75 424.1,584.5729 Q423.7042,584.3854 423.2875,584.3854 Q422.3917,584.3854 421.9333,585.1042 Q421.475,585.8125 421.475,587.2083 Q421.475,588.6042 421.9333,589.3229 Q422.3917,590.0313 423.2875,590.0313 Q423.7042,590.0313 424.1,589.8542 Q424.4958,589.6667 424.9125,589.2813 L424.9125,591.0938 Z " fill="#000000"/><text fill="#000000" font-family="sans-serif" font-size="9.3333" lengthAdjust="spacing" textLength="106.9049" x="432.2667" y="590.5645">DidLogUpdaterContext</text></g><!--class DidLogUpdaterStrategy--><g class="entity" data-entity="DidLogUpdaterStrategy" data-source-line="142" data-uid="ent0024" id="entity_DidLogUpdaterStrategy"><rect fill="#F1F1F1" height="21.3333" rx="1.6667" ry="1.6667" style="stroke:#181818;stroke-width:0.3333;" width="131.5013" x="411.3" y="710.6667"/><ellipse cx="421.3" cy="721.3333" fill="#B4A7E5" rx="7.3333" ry="7.3333" style="stroke:#181818;stroke-width:0.6667;"/><path d="M418.5813,718.5104 L418.5813,717.0729 L423.5083,717.0729 L423.5083,718.5104 L421.8625,718.5104 L421.8625,723.8958 L423.5083,723.8958 L423.5083,725.3333 L418.5813,725.3333 L418.5813,723.8958 L420.2271,723.8958 L420.2271,718.5104 L418.5813,718.5104 Z " fill="#000000"/><text fill="#000000" font-family="sans-serif" font-size="9.3333" font-style="italic" lengthAdjust="spacing" textLength="110.168" x="430.6333" y="724.5645">DidLogUpdaterStrategy</text></g><!--class VerificationMethodParameters--><g class="entity" data-entity="VerificationMethodParameters" data-source-line="149" data-uid="ent0025" id="entity_VerificationMethodParameters"><rect fill="#F1F1F1" height="21.3333" rx="1.6667" ry="1.6667" style="stroke:#181818;stroke-width:0.3333;" width="163.3431" x="105.3" y="842"/><ellipse cx="115.3" cy="852.6667" fill="#ADD1B2" rx="7.3333" ry="7.3333" style="stroke:#181818;stroke-width:0.6667;"/><path d="M117.2792,856.4271 Q116.8937,856.625 116.4667,856.7188 Q116.0396,856.8229 115.5708,856.8229 Q113.9042,856.8229 113.0187,855.7292 Q112.1437,854.625 112.1437,852.5417 Q112.1437,850.4583 113.0187,849.3542 Q113.9042,848.25 115.5708,848.25 Q116.0396,848.25 116.4667,848.3542 Q116.9042,848.4583 117.2792,848.6563 L117.2792,850.4688 Q116.8625,850.0833 116.4667,849.9063 Q116.0708,849.7188 115.6542,849.7188 Q114.7583,849.7188 114.3,850.4375 Q113.8417,851.1458 113.8417,852.5417 Q113.8417,853.9375 114.3,854.6563 Q114.7583,855.3646 115.6542,855.3646 Q116.0708,855.3646 116.4667,855.1875 Q116.8625,855 117.2792,854.6146 L117.2792,856.4271 Z " fill="#000000"/><text fill="#000000" font-family="sans-serif" font-size="9.3333" lengthAdjust="spacing" textLength="142.0098" x="124.6333" y="855.8978">VerificationMethodParameters</text></g><!--class DidLogMeta--><g class="entity" data-entity="DidLogMeta" data-source-line="155" data-uid="ent0027" id="entity_DidLogMeta"><rect fill="#F1F1F1" height="21.3333" rx="1.6667" ry="1.6667" style="stroke:#181818;stroke-width:0.3333;" width="77.0462" x="831.4733" y="710.6667"/><ellipse cx="841.4733" cy="721.3333" fill="#ADD1B2" rx="7.3333" ry="7.3333" style="stroke:#181818;stroke-width:0.6667;"/><path d="M843.4525,725.0938 Q843.0671,725.2917 842.64,725.3854 Q842.2129,725.4896 841.7442,725.4896 Q840.0775,725.4896 839.1921,724.3958 Q838.3171,723.2917 838.3171,721.2083 Q838.3171,719.125 839.1921,718.0208 Q840.0775,716.9167 841.7442,716.9167 Q842.2129,716.9167 842.64,717.0208 Q843.0775,717.125 843.4525,717.3229 L843.4525,719.1354 Q843.0358,718.75 842.64,718.5729 Q842.2442,718.3854 841.8275,718.3854 Q840.9317,718.3854 840.4733,719.1042 Q840.015,719.8125 840.015,721.2083 Q840.015,722.6042 840.4733,723.3229 Q840.9317,724.0313 841.8275,724.0313 Q842.2442,724.0313 842.64,723.8542 Q843.0358,723.6667 843.4525,723.2813 L843.4525,725.0938 Z " fill="#000000"/><text fill="#000000" font-family="sans-serif" font-size="9.3333" lengthAdjust="spacing" textLength="55.7129" x="850.8067" y="724.5645">DidLogMeta</text></g><!--class DidMethodEnum--><g class="entity" data-entity="DidMethodEnum" data-source-line="166" data-uid="ent0029" id="entity_DidMethodEnum"><rect fill="#F1F1F1" height="21.3333" rx="1.6667" ry="1.6667" style="stroke:#181818;stroke-width:0.3333;" width="98.862" x="820.56" y="666"/><ellipse cx="830.56" cy="676.6667" fill="#EB937F" rx="7.3333" ry="7.3333" style="stroke:#181818;stroke-width:0.6667;"/><path d="M833.2996,680.6667 L828.1538,680.6667 L828.1538,672.4063 L833.2996,672.4063 L833.2996,673.8438 L829.7892,673.8438 L829.7892,675.625 L832.9663,675.625 L832.9663,677.0625 L829.7892,677.0625 L829.7892,679.2292 L833.2996,679.2292 L833.2996,680.6667 Z " fill="#000000"/><text fill="#000000" font-family="sans-serif" font-size="9.3333" lengthAdjust="spacing" textLength="77.5286" x="839.8933" y="679.8978">DidMethodEnum</text></g><!--class NamedDidMethodParameters--><g class="entity" data-entity="NamedDidMethodParameters" data-source-line="172" data-uid="ent0030" id="entity_NamedDidMethodParameters"><rect fill="#F1F1F1" height="21.3333" rx="1.6667" ry="1.6667" style="stroke:#181818;stroke-width:0.3333;" width="159.3418" x="1047.1533" y="698"/><ellipse cx="1057.1533" cy="708.6667" fill="#ADD1B2" rx="7.3333" ry="7.3333" style="stroke:#181818;stroke-width:0.6667;"/><path d="M1059.1325,712.4271 Q1058.7471,712.625 1058.32,712.7188 Q1057.8929,712.8229 1057.4242,712.8229 Q1055.7575,712.8229 1054.8721,711.7292 Q1053.9971,710.625 1053.9971,708.5417 Q1053.9971,706.4583 1054.8721,705.3542 Q1055.7575,704.25 1057.4242,704.25 Q1057.8929,704.25 1058.32,704.3542 Q1058.7575,704.4583 1059.1325,704.6563 L1059.1325,706.4688 Q1058.7158,706.0833 1058.32,705.9063 Q1057.9242,705.7188 1057.5075,705.7188 Q1056.6117,705.7188 1056.1533,706.4375 Q1055.695,707.1458 1055.695,708.5417 Q1055.695,709.9375 1056.1533,710.6563 Q1056.6117,711.3646 1057.5075,711.3646 Q1057.9242,711.3646 1058.32,711.1875 Q1058.7158,711 1059.1325,710.6146 L1059.1325,712.4271 Z " fill="#000000"/><text fill="#000000" font-family="sans-serif" font-size="9.3333" lengthAdjust="spacing" textLength="138.0085" x="1066.4867" y="711.8978">NamedDidMethodParameters</text></g><!--class TdwDidLogMetaPeeker--><g class="entity" data-entity="TdwDidLogMetaPeeker" data-source-line="182" data-uid="ent0031" id="entity_TdwDidLogMetaPeeker"><rect fill="#F1F1F1" height="21.3333" rx="1.6667" ry="1.6667" style="stroke:#181818;stroke-width:0.3333;" width="128.4023" x="805.7933" y="621.3333"/><ellipse cx="815.7933" cy="632" fill="#ADD1B2" rx="7.3333" ry="7.3333" style="stroke:#181818;stroke-width:0.6667;"/><path d="M817.7725,635.7604 Q817.3871,635.9583 816.96,636.0521 Q816.5329,636.1563 816.0642,636.1563 Q814.3975,636.1563 813.5121,635.0625 Q812.6371,633.9583 812.6371,631.875 Q812.6371,629.7917 813.5121,628.6875 Q814.3975,627.5833 816.0642,627.5833 Q816.5329,627.5833 816.96,627.6875 Q817.3975,627.7917 817.7725,627.9896 L817.7725,629.8021 Q817.3558,629.4167 816.96,629.2396 Q816.5642,629.0521 816.1475,629.0521 Q815.2517,629.0521 814.7933,629.7708 Q814.335,630.4792 814.335,631.875 Q814.335,633.2708 814.7933,633.9896 Q815.2517,634.6979 816.1475,634.6979 Q816.5642,634.6979 816.96,634.5208 Q817.3558,634.3333 817.7725,633.9479 L817.7725,635.7604 Z " fill="#000000"/><text fill="#000000" font-family="sans-serif" font-size="9.3333" lengthAdjust="spacing" textLength="107.069" x="825.1267" y="635.2311">TdwDidLogMetaPeeker</text></g><!--class WebVerifiableHistoryDidLogMetaPeeker--><g class="entity" data-entity="WebVerifiableHistoryDidLogMetaPeeker" data-source-line="186" data-uid="ent0032" id="entity_WebVerifiableHistoryDidLogMetaPeeker"><rect fill="#F1F1F1" height="21.3333" rx="1.6667" ry="1.6667" style="stroke:#181818;stroke-width:0.3333;" width="207.6582" x="766.1667" y="576.6667"/><ellipse cx="776.1667" cy="587.3333" fill="#ADD1B2" rx="7.3333" ry="7.3333" style="stroke:#181818;stroke-width:0.6667;"/><path d="M778.1458,591.0938 Q777.7604,591.2917 777.3333,591.3854 Q776.9063,591.4896 776.4375,591.4896 Q774.7708,591.4896 773.8854,590.3958 Q773.0104,589.2917 773.0104,587.2083 Q773.0104,585.125 773.8854,584.0208 Q774.7708,582.9167 776.4375,582.9167 Q776.9063,582.9167 777.3333,583.0208 Q777.7708,583.125 778.1458,583.3229 L778.1458,585.1354 Q777.7292,584.75 777.3333,584.5729 Q776.9375,584.3854 776.5208,584.3854 Q775.625,584.3854 775.1667,585.1042 Q774.7083,585.8125 774.7083,587.2083 Q774.7083,588.6042 775.1667,589.3229 Q775.625,590.0313 776.5208,590.0313 Q776.9375,590.0313 777.3333,589.8542 Q777.7292,589.6667 778.1458,589.2813 L778.1458,591.0938 Z " fill="#000000"/><text fill="#000000" font-family="sans-serif" font-size="9.3333" lengthAdjust="spacing" textLength="186.3249" x="785.5" y="590.5645">WebVerifiableHistoryDidLogMetaPeeker</text></g><!--class WebVerifiableHistoryCreator--><g class="entity" data-entity="WebVerifiableHistoryCreator" data-source-line="190" data-uid="ent0033" id="entity_WebVerifiableHistoryCreator"><rect fill="#F1F1F1" height="21.3333" rx="1.6667" ry="1.6667" style="stroke:#181818;stroke-width:0.3333;" width="154.8711" x="109.5333" y="422"/><ellipse cx="119.5333" cy="432.6667" fill="#ADD1B2" rx="7.3333" ry="7.3333" style="stroke:#181818;stroke-width:0.6667;"/><path d="M121.5125,436.4271 Q121.1271,436.625 120.7,436.7188 Q120.2729,436.8229 119.8042,436.8229 Q118.1375,436.8229 117.2521,435.7292 Q116.3771,434.625 116.3771,432.5417 Q116.3771,430.4583 117.2521,429.3542 Q118.1375,428.25 119.8042,428.25 Q120.2729,428.25 120.7,428.3542 Q121.1375,428.4583 121.5125,428.6563 L121.5125,430.4688 Q121.0958,430.0833 120.7,429.9063 Q120.3042,429.7188 119.8875,429.7188 Q118.9917,429.7188 118.5333,430.4375 Q118.075,431.1458 118.075,432.5417 Q118.075,433.9375 118.5333,434.6563 Q118.9917,435.3646 119.8875,435.3646 Q120.3042,435.3646 120.7,435.1875 Q121.0958,435 121.5125,434.6146 L121.5125,436.4271 Z " fill="#000000"/><text fill="#000000" font-family="sans-serif" font-size="9.3333" lengthAdjust="spacing" textLength="133.5378" x="128.8667" y="435.8978">WebVerifiableHistoryCreator</text></g><!--class WebVerifiableHistoryDeactivator--><g class="entity" data-entity="WebVerifiableHistoryDeactivator" data-source-line="202" data-uid="ent0035" id="entity_WebVerifiableHistoryDeactivator"><rect fill="#F1F1F1" height="21.3333" rx="1.6667" ry="1.6667" style="stroke:#181818;stroke-width:0.3333;" width="174.3307" x="99.8067" y="466.6667"/><ellipse cx="109.8067" cy="477.3333" fill="#ADD1B2" rx="7.3333" ry="7.3333" style="stroke:#181818;stroke-width:0.6667;"/><path d="M111.7858,481.0938 Q111.4004,481.2917 110.9733,481.3854 Q110.5463,481.4896 110.0775,481.4896 Q108.4108,481.4896 107.5254,480.3958 Q106.6504,479.2917 106.6504,477.2083 Q106.6504,475.125 107.5254,474.0208 Q108.4108,472.9167 110.0775,472.9167 Q110.5463,472.9167 110.9733,473.0208 Q111.4108,473.125 111.7858,473.3229 L111.7858,475.1354 Q111.3692,474.75 110.9733,474.5729 Q110.5775,474.3854 110.1608,474.3854 Q109.265,474.3854 108.8067,475.1042 Q108.3483,475.8125 108.3483,477.2083 Q108.3483,478.6042 108.8067,479.3229 Q109.265,480.0313 110.1608,480.0313 Q110.5775,480.0313 110.9733,479.8542 Q111.3692,479.6667 111.7858,479.2813 L111.7858,481.0938 Z " fill="#000000"/><text fill="#000000" font-family="sans-serif" font-size="9.3333" lengthAdjust="spacing" textLength="152.9974" x="119.14" y="480.5645">WebVerifiableHistoryDeactivator</text></g><!--class WebVerifiableHistoryUpdater--><g class="entity" data-entity="WebVerifiableHistoryUpdater" data-source-line="210" data-uid="ent0036" id="entity_WebVerifiableHistoryUpdater"><rect fill="#F1F1F1" height="21.3333" rx="1.6667" ry="1.6667" style="stroke:#181818;stroke-width:0.3333;" width="157.487" x="108.2267" y="511.3333"/><ellipse cx="118.2267" cy="522" fill="#ADD1B2" rx="7.3333" ry="7.3333" style="stroke:#181818;stroke-width:0.6667;"/><path d="M120.2058,525.7604 Q119.8204,525.9583 119.3933,526.0521 Q118.9663,526.1563 118.4975,526.1563 Q116.8308,526.1563 115.9454,525.0625 Q115.0704,523.9583 115.0704,521.875 Q115.0704,519.7917 115.9454,518.6875 Q116.8308,517.5833 118.4975,517.5833 Q118.9663,517.5833 119.3933,517.6875 Q119.8308,517.7917 120.2058,517.9896 L120.2058,519.8021 Q119.7892,519.4167 119.3933,519.2396 Q118.9975,519.0521 118.5808,519.0521 Q117.685,519.0521 117.2267,519.7708 Q116.7683,520.4792 116.7683,521.875 Q116.7683,523.2708 117.2267,523.9896 Q117.685,524.6979 118.5808,524.6979 Q118.9975,524.6979 119.3933,524.5208 Q119.7892,524.3333 120.2058,523.9479 L120.2058,525.7604 Z " fill="#000000"/><text fill="#000000" font-family="sans-serif" font-size="9.3333" lengthAdjust="spacing" textLength="136.1536" x="127.56" y="525.2311">WebVerifiableHistoryUpdater</text></g><!--link Ed25519ProofOfPossessionJWSSignerImpl to Ed25519VerificationMethodKeyProviderImpl--><g class="link" data-entity-1="Ed25519ProofOfPossessionJWSSignerImpl" data-entity-2="Ed25519VerificationMethodKeyProviderImpl" data-source-line="227" data-uid="lnk37" id="link_Ed25519ProofOfPossessionJWSSignerImpl_Ed25519VerificationMethodKeyProviderImpl"><path codeLine="227" d="M295.5667,152.6667 C317.5933,152.6667 328.8267,152.6667 351.0333,152.6667" fill="none" id="Ed25519ProofOfPossessionJWSSignerImpl-to-Ed25519VerificationMethodKeyProviderImpl" style="stroke:#181818;stroke-width:0.6667;"/><polygon fill="none" points="363.0333,152.6667,351.0333,148.6667,351.0333,156.6667,363.0333,152.6667" style="stroke:#181818;stroke-width:0.6667;"/></g><!--link Ed25519ProofOfPossessionJWSSignerImpl to ProofOfPossessionJWSSigner--><g class="link" data-entity-1="Ed25519ProofOfPossessionJWSSignerImpl" data-entity-2="ProofOfPossessionJWSSigner" data-source-line="228" data-uid="lnk38" id="link_Ed25519ProofOfPossessionJWSSignerImpl_ProofOfPossessionJWSSigner"><path codeLine="228" d="M258.64,163.6533 C303.3067,170.56 348.881,177.6127 393.541,184.5193" fill="none" id="Ed25519ProofOfPossessionJWSSignerImpl-to-ProofOfPossessionJWSSigner" style="stroke:#181818;stroke-width:0.6667;stroke-dasharray:4.6667,4.6667;"/><polygon fill="none" points="405.4,186.3533,394.1523,180.5663,392.9296,188.4723,405.4,186.3533" style="stroke:#181818;stroke-width:0.6667;"/></g><!--link Ed25519VerificationMethodKeyProviderImpl to VerificationMethodKeyProvider--><g class="link" data-entity-1="Ed25519VerificationMethodKeyProviderImpl" data-entity-2="VerificationMethodKeyProvider" data-source-line="229" data-uid="lnk39" id="link_Ed25519VerificationMethodKeyProviderImpl_VerificationMethodKeyProvider"><path codeLine="229" d="M590.98,156.9133 C641.9733,163.66 700.52,178.6067 744.8333,210.6667 C817.1133,262.9667 851.8597,359.8536 862.5864,394.3803" fill="none" id="Ed25519VerificationMethodKeyProviderImpl-to-VerificationMethodKeyProvider" style="stroke:#181818;stroke-width:0.6667;stroke-dasharray:4.6667,4.6667;"/><polygon fill="none" points="866.1467,405.84,866.4063,393.1936,858.7665,395.5671,866.1467,405.84" style="stroke:#181818;stroke-width:0.6667;"/></g><!--reverse link ProofOfPossessionCreator to ProofOfPossessionJWSSigner--><g class="link" data-entity-1="ProofOfPossessionCreator" data-entity-2="ProofOfPossessionJWSSigner" data-source-line="230" data-uid="lnk40" id="link_ProofOfPossessionCreator_ProofOfPossessionJWSSigner"><path codeLine="230" d="M266.0867,197.3333 C308.9067,197.3333 355.6133,197.3333 399.5467,197.3333" fill="none" id="ProofOfPossessionCreator-backto-ProofOfPossessionJWSSigner" style="stroke:#181818;stroke-width:0.6667;"/><polygon fill="#181818" points="258.0867,197.3333,262.0867,200,266.0867,197.3333,262.0867,194.6667,258.0867,197.3333" style="stroke:#181818;stroke-width:0.6667;"/><text fill="#000000" font-family="sans-serif" font-size="8.6667" lengthAdjust="spacing" textLength="26.8125" x="315.94" y="194.7113">signer</text></g><!--link ProofOfPossessionJWSSigner to VerificationMethodKeyProvider--><g class="link" data-entity-1="ProofOfPossessionJWSSigner" data-entity-2="VerificationMethodKeyProvider" data-source-line="231" data-uid="lnk41" id="link_ProofOfPossessionJWSSigner_VerificationMethodKeyProvider"><path codeLine="231" d="M554.6267,192.88 C611.22,193.1667 687.8933,201.2933 744.8333,236.6667 C812.9267,278.98 849.105,362.5946 861.2117,394.6346" fill="none" id="ProofOfPossessionJWSSigner-to-VerificationMethodKeyProvider" style="stroke:#181818;stroke-width:0.6667;stroke-dasharray:4.6667,4.6667;"/><polygon fill="none" points="865.4533,405.86,864.9535,393.2208,857.4699,396.0485,865.4533,405.86" style="stroke:#181818;stroke-width:0.6667;"/></g><!--link TdwCreator to VerificationMethodKeyProvider--><g class="link" data-entity-1="TdwCreator" data-entity-2="VerificationMethodKeyProvider" data-source-line="232" data-uid="lnk42" id="link_TdwCreator_VerificationMethodKeyProvider"><path codeLine="232" d="M225.0133,258.8733 C296.6933,267.3933 458.14,288.7467 590.8333,322 C660.9067,339.56 676.44,350.7333 744.8333,374 C776.4133,384.74 808.6837,395.8136 833.8304,404.4536" fill="none" id="TdwCreator-to-VerificationMethodKeyProvider" style="stroke:#181818;stroke-width:0.6667;"/><polygon fill="#181818" points="837.6133,405.7533,832.8054,401.2817,834.4609,404.6702,831.0724,406.3257,837.6133,405.7533" style="stroke:#181818;stroke-width:0.6667;"/><text fill="#000000" font-family="sans-serif" font-size="8.6667" lengthAdjust="spacing" textLength="133.2415" x="410.72" y="275.7046">verificationMethodKeyProvider</text></g><!--link TdwCreator to DidLogCreatorStrategy--><g class="link" data-entity-1="TdwCreator" data-entity-2="DidLogCreatorStrategy" data-source-line="233" data-uid="lnk43" id="link_TdwCreator_DidLogCreatorStrategy"><path codeLine="233" d="M225.08,259.7067 C262.0533,266.8667 316.78,283.8467 343.2733,323.3333 C368.9,361.5267 331.0867,496.48 363.2733,529.3333 C376.0733,542.4 382.4284,546.7669 400.6084,548.2869" fill="none" id="TdwCreator-to-DidLogCreatorStrategy" style="stroke:#181818;stroke-width:0.6667;stroke-dasharray:4.6667,4.6667;"/><polygon fill="none" points="412.5667,549.2867,400.9417,544.3008,400.2751,552.2729,412.5667,549.2867" style="stroke:#181818;stroke-width:0.6667;"/></g><!--link TdwDeactivator to VerificationMethodKeyProvider--><g class="link" data-entity-1="TdwDeactivator" data-entity-2="VerificationMethodKeyProvider" data-source-line="234" data-uid="lnk44" id="link_TdwDeactivator_VerificationMethodKeyProvider"><path codeLine="234" d="M234.8,324.54 C331.0533,334.1133 556.9067,358.1333 744.8333,390 C770.7667,394.4 795.584,399.5897 818.904,404.8297" fill="none" id="TdwDeactivator-to-VerificationMethodKeyProvider" style="stroke:#181818;stroke-width:0.6667;"/><polygon fill="#181818" points="822.8067,405.7067,817.5373,401.7895,819.5544,404.9759,816.368,406.9931,822.8067,405.7067" style="stroke:#181818;stroke-width:0.6667;"/><text fill="#000000" font-family="sans-serif" font-size="8.6667" lengthAdjust="spacing" textLength="133.2415" x="410.72" y="335.9179">verificationMethodKeyProvider</text></g><!--link TdwDeactivator to DidLogDeactivatorStrategy--><g class="link" data-entity-1="TdwDeactivator" data-entity-2="DidLogDeactivatorStrategy" data-source-line="235" data-uid="lnk45" id="link_TdwDeactivator_DidLogDeactivatorStrategy"><path codeLine="235" d="M205.6467,330.8933 C229.3733,346.1067 270.9267,375.8733 295.2733,411.3333 C331.8667,464.6333 322.48,487.44 343.2733,548.6667 C352.4,575.5467 342.02,590.5067 363.2733,609.3333 C374.2867,619.0933 376.671,622.1855 391.051,625.8121" fill="none" id="TdwDeactivator-to-DidLogDeactivatorStrategy" style="stroke:#181818;stroke-width:0.6667;stroke-dasharray:4.6667,4.6667;"/><polygon fill="none" points="402.6867,628.7467,392.0292,621.9336,390.0728,629.6907,402.6867,628.7467" style="stroke:#181818;stroke-width:0.6667;"/></g><!--link TdwUpdater to VerificationMethodKeyProvider--><g class="link" data-entity-1="TdwUpdater" data-entity-2="VerificationMethodKeyProvider" data-source-line="236" data-uid="lnk46" id="link_TdwUpdater_VerificationMethodKeyProvider"><path codeLine="236" d="M226.3467,710.7333 C247.7067,713.5333 274.1133,719.2067 295.2733,730.6667 C332.8533,751.0267 323.7867,782.3133 363.2733,798.6667 C441.6867,831.1467 687.4867,843.9133 744.8333,781.3333 C752.9133,772.5133 746.0733,577.2467 750.1667,566 C772.3467,505.0667 827.1226,452.7248 853.1959,430.1515" fill="none" id="TdwUpdater-to-VerificationMethodKeyProvider" style="stroke:#181818;stroke-width:0.6667;"/><polygon fill="#181818" points="856.22,427.5333,849.9384,429.4445,853.6999,429.7151,853.4293,433.4766,856.22,427.5333" style="stroke:#181818;stroke-width:0.6667;"/><text fill="#000000" font-family="sans-serif" font-size="8.6667" lengthAdjust="spacing" textLength="133.2415" x="410.72" y="796.0446">verificationMethodKeyProvider</text></g><!--link TdwUpdater to DidLogUpdaterStrategy--><g class="link" data-entity-1="TdwUpdater" data-entity-2="DidLogUpdaterStrategy" data-source-line="237" data-uid="lnk47" id="link_TdwUpdater_DidLogUpdaterStrategy"><path codeLine="237" d="M226.28,709.7867 C273.5333,711.9667 342.2528,715.1403 399.1861,717.767" fill="none" id="TdwUpdater-to-DidLogUpdaterStrategy" style="stroke:#181818;stroke-width:0.6667;stroke-dasharray:4.6667,4.6667;"/><polygon fill="none" points="411.1733,718.32,399.3704,713.7712,399.0017,721.7627,411.1733,718.32" style="stroke:#181818;stroke-width:0.6667;"/></g><!--link DidLogCreatorContext to VerificationMethodKeyProvider--><g class="link" data-entity-1="DidLogCreatorContext" data-entity-2="VerificationMethodKeyProvider" data-source-line="238" data-uid="lnk48" id="link_DidLogCreatorContext_VerificationMethodKeyProvider"><path codeLine="238" d="M540.0533,670.6 C614.5933,662.7267 731.1,648.2333 744.8333,633.3333 C755,622.2933 744.6467,579.96 750.1667,566 C773.9933,505.6933 827.932,453.066 853.512,430.2993" fill="none" id="DidLogCreatorContext-to-VerificationMethodKeyProvider" style="stroke:#181818;stroke-width:0.6667;"/><polygon fill="#181818" points="856.5,427.64,850.2452,429.637,854.01,429.8561,853.791,433.621,856.5,427.64" style="stroke:#181818;stroke-width:0.6667;"/><text fill="#000000" font-family="sans-serif" font-size="8.6667" lengthAdjust="spacing" textLength="133.2415" x="611.5" y="630.7113">verificationMethodKeyProvider</text></g><!--link DidLogCreatorContext to DidMethodEnum--><g class="link" data-entity-1="DidLogCreatorContext" data-entity-2="DidMethodEnum" data-source-line="239" data-uid="lnk49" id="link_DidLogCreatorContext_DidMethodEnum"><path codeLine="239" d="M540.1733,679.3067 C562.4667,680.1333 587.7667,680.9267 610.8333,681.3333 C670.38,682.38 685.2867,682.4467 744.8333,681.3333 C769.7,680.8667 793.3501,680.0451 816.2634,679.0985" fill="none" id="DidLogCreatorContext-to-DidMethodEnum" style="stroke:#181818;stroke-width:0.6667;"/><polygon fill="#181818" points="820.26,678.9333,814.155,676.5166,816.9295,679.0709,814.3752,681.8454,820.26,678.9333" style="stroke:#181818;stroke-width:0.6667;"/><text fill="#000000" font-family="sans-serif" font-size="8.6667" lengthAdjust="spacing" textLength="45.9147" x="655.1667" y="678.7113">didMethod</text></g><!--link DidLogDeactivatorContext to VerificationMethodKeyProvider--><g class="link" data-entity-1="DidLogDeactivatorContext" data-entity-2="VerificationMethodKeyProvider" data-source-line="240" data-uid="lnk50" id="link_DidLogDeactivatorContext_VerificationMethodKeyProvider"><path codeLine="240" d="M549.6533,757.7667 C620.3267,748.0267 720.9467,729.1667 744.8333,698.6667 C753.9267,687.0533 745.0133,579.82 750.1667,566 C772.8133,505.24 827.3526,452.8231 853.286,430.1964" fill="none" id="DidLogDeactivatorContext-to-VerificationMethodKeyProvider" style="stroke:#181818;stroke-width:0.6667;"/><polygon fill="#181818" points="856.3,427.5667,850.0258,429.5019,853.7883,429.7581,853.5321,433.5206,856.3,427.5667" style="stroke:#181818;stroke-width:0.6667;"/><text fill="#000000" font-family="sans-serif" font-size="8.6667" lengthAdjust="spacing" textLength="133.2415" x="611.5" y="696.0446">verificationMethodKeyProvider</text></g><!--link DidLogDeactivatorContext to DidMethodEnum--><g class="link" data-entity-1="DidLogDeactivatorContext" data-entity-2="DidMethodEnum" data-source-line="241" data-uid="lnk51" id="link_DidLogDeactivatorContext_DidMethodEnum"><path codeLine="241" d="M549.82,771.32 C624.04,776.02 730.7933,780.3133 744.8333,767.3333 C755.96,757.04 740.0467,710.62 750.1667,699.3333 C767.4467,680.04 791.6367,674.2178 816.2567,673.2045" fill="none" id="DidLogDeactivatorContext-to-DidMethodEnum" style="stroke:#181818;stroke-width:0.6667;"/><polygon fill="#181818" points="820.2533,673.04,814.1487,670.6223,816.9228,673.1771,814.3681,675.9512,820.2533,673.04" style="stroke:#181818;stroke-width:0.6667;"/><text fill="#000000" font-family="sans-serif" font-size="8.6667" lengthAdjust="spacing" textLength="45.9147" x="655.1667" y="764.7113">didMethod</text></g><!--link DidLogUpdaterContext to VerificationMethodKeyProvider--><g class="link" data-entity-1="DidLogUpdaterContext" data-entity-2="VerificationMethodKeyProvider" data-source-line="242" data-uid="lnk52" id="link_DidLogUpdaterContext_VerificationMethodKeyProvider"><path codeLine="242" d="M541.2467,577.42 C557.6067,574.1 575.0467,569.8867 590.8333,564.6667 C697.66,529.3467 809.1199,457.6008 850.2466,429.7875" fill="none" id="DidLogUpdaterContext-to-VerificationMethodKeyProvider" style="stroke:#181818;stroke-width:0.6667;"/><polygon fill="#181818" points="853.56,427.5467,847.096,428.6989,850.7988,429.414,850.0837,433.1168,853.56,427.5467" style="stroke:#181818;stroke-width:0.6667;"/><text fill="#000000" font-family="sans-serif" font-size="8.6667" lengthAdjust="spacing" textLength="133.2415" x="611.5" y="494.8913">verificationMethodKeyProvider</text></g><!--link DidLogUpdaterContext to DidMethodEnum--><g class="link" data-entity-1="DidLogUpdaterContext" data-entity-2="DidMethodEnum" data-source-line="243" data-uid="lnk53" id="link_DidLogUpdaterContext_DidMethodEnum"><path codeLine="243" d="M541.46,592.3733 C618.1467,598.72 737.58,609.6467 744.8333,616.6667 C756.8733,628.3267 738.5867,641.88 750.1667,654 C767.98,672.6533 792.038,678.4535 816.4447,679.6335" fill="none" id="DidLogUpdaterContext-to-DidMethodEnum" style="stroke:#181818;stroke-width:0.6667;"/><polygon fill="#181818" points="820.44,679.8267,814.5758,676.8734,817.1106,679.6657,814.3182,682.2005,820.44,679.8267" style="stroke:#181818;stroke-width:0.6667;"/><text fill="#000000" font-family="sans-serif" font-size="8.6667" lengthAdjust="spacing" textLength="45.9147" x="655.1667" y="596.2113">didMethod</text></g><!--link DidLogMeta to NamedDidMethodParameters--><g class="link" data-entity-1="DidLogMeta" data-entity-2="NamedDidMethodParameters" data-source-line="244" data-uid="lnk54" id="link_DidLogMeta_NamedDidMethodParameters"><path codeLine="244" d="M908.6333,719.4533 C944.9867,717.6467 996.9516,715.0711 1043.0116,712.7911" fill="none" id="DidLogMeta-to-NamedDidMethodParameters" style="stroke:#181818;stroke-width:0.6667;"/><polygon fill="#181818" points="1047.0067,712.5933,1040.8822,710.2266,1043.6774,712.7581,1041.1458,715.5534,1047.0067,712.5933" style="stroke:#181818;stroke-width:0.6667;"/><text fill="#000000" font-family="sans-serif" font-size="8.6667" lengthAdjust="spacing" textLength="32.6439" x="994.4867" y="711.2446">params</text></g><!--link WebVerifiableHistoryCreator to VerificationMethodKeyProvider--><g class="link" data-entity-1="WebVerifiableHistoryCreator" data-entity-2="VerificationMethodKeyProvider" data-source-line="245" data-uid="lnk55" id="link_WebVerifiableHistoryCreator_VerificationMethodKeyProvider"><path codeLine="245" d="M264.6,424.5933 C274.9533,423.0867 285.4,421.3333 295.2733,419.3333 C326.0667,413.0867 332.1533,404.34 363.2733,400 C512.8,379.1533 685.5012,393.3083 785.5879,405.1949" fill="none" id="WebVerifiableHistoryCreator-to-VerificationMethodKeyProvider" style="stroke:#181818;stroke-width:0.6667;"/><polygon fill="#181818" points="789.56,405.6667,783.9164,402.311,786.2499,405.2736,783.2874,407.6071,789.56,405.6667" style="stroke:#181818;stroke-width:0.6667;"/><text fill="#000000" font-family="sans-serif" font-size="8.6667" lengthAdjust="spacing" textLength="133.2415" x="410.72" y="386.8713">verificationMethodKeyProvider</text></g><!--link WebVerifiableHistoryCreator to DidLogCreatorStrategy--><g class="link" data-entity-1="WebVerifiableHistoryCreator" data-entity-2="DidLogCreatorStrategy" data-source-line="246" data-uid="lnk56" id="link_WebVerifiableHistoryCreator_DidLogCreatorStrategy"><path codeLine="246" d="M264.7333,436.6067 C292.82,441.84 322.7,452.4333 343.2733,473.3333 C361.8133,492.1667 342.6,512.8667 363.2733,529.3333 C377.04,540.3 382.9633,544.0156 400.4166,545.8156" fill="none" id="WebVerifiableHistoryCreator-to-DidLogCreatorStrategy" style="stroke:#181818;stroke-width:0.6667;stroke-dasharray:4.6667,4.6667;"/><polygon fill="none" points="412.3533,547.0467,400.827,541.8367,400.0063,549.7945,412.3533,547.0467" style="stroke:#181818;stroke-width:0.6667;"/></g><!--link WebVerifiableHistoryDeactivator to VerificationMethodKeyProvider--><g class="link" data-entity-1="WebVerifiableHistoryDeactivator" data-entity-2="VerificationMethodKeyProvider" data-source-line="247" data-uid="lnk57" id="link_WebVerifiableHistoryDeactivator_VerificationMethodKeyProvider"><path codeLine="247" d="M274.32,475.18 C356.0867,472.6067 482,467.2467 590.8333,456.6667 C664.4867,449.5067 744.552,437.4564 800.8654,428.2831" fill="none" id="WebVerifiableHistoryDeactivator-to-VerificationMethodKeyProvider" style="stroke:#181818;stroke-width:0.6667;"/><polygon fill="#181818" points="804.8133,427.64,798.4626,425.9727,801.5234,428.1759,799.3201,431.2366,804.8133,427.64" style="stroke:#181818;stroke-width:0.6667;"/><text fill="#000000" font-family="sans-serif" font-size="8.6667" lengthAdjust="spacing" textLength="133.2415" x="410.72" y="454.0446">verificationMethodKeyProvider</text></g><!--link WebVerifiableHistoryDeactivator to DidLogDeactivatorStrategy--><g class="link" data-entity-1="WebVerifiableHistoryDeactivator" data-entity-2="DidLogDeactivatorStrategy" data-source-line="248" data-uid="lnk58" id="link_WebVerifiableHistoryDeactivator_DidLogDeactivatorStrategy"><path codeLine="248" d="M272.6667,488.3067 C280.6933,491.3467 288.3867,495.18 295.2733,500 C342.14,532.8267 316.24,576.7333 363.2733,609.3333 C374.8733,617.38 377.0316,619.77 390.9249,623.2766" fill="none" id="WebVerifiableHistoryDeactivator-to-DidLogDeactivatorStrategy" style="stroke:#181818;stroke-width:0.6667;stroke-dasharray:4.6667,4.6667;"/><polygon fill="none" points="402.56,626.2133,391.9038,619.3983,389.946,627.155,402.56,626.2133" style="stroke:#181818;stroke-width:0.6667;"/></g><!--link WebVerifiableHistoryUpdater to VerificationMethodKeyProvider--><g class="link" data-entity-1="WebVerifiableHistoryUpdater" data-entity-2="VerificationMethodKeyProvider" data-source-line="249" data-uid="lnk59" id="link_WebVerifiableHistoryUpdater_VerificationMethodKeyProvider"><path codeLine="249" d="M263.0267,511.04 C274.14,508.0333 285.22,504.2067 295.2733,499.3333 C330.6733,482.18 326.6333,457.0067 363.2733,442.6667 C401.5467,427.6867 649.6008,420.8 782.9341,418.1333" fill="none" id="WebVerifiableHistoryUpdater-to-VerificationMethodKeyProvider" style="stroke:#181818;stroke-width:0.6667;"/><polygon fill="#181818" points="786.9333,418.0533,780.8812,415.5072,783.6007,418.12,780.9879,420.8394,786.9333,418.0533" style="stroke:#181818;stroke-width:0.6667;"/><text fill="#000000" font-family="sans-serif" font-size="8.6667" lengthAdjust="spacing" textLength="133.2415" x="410.72" y="421.0646">verificationMethodKeyProvider</text></g><!--link WebVerifiableHistoryUpdater to DidLogUpdaterStrategy--><g class="link" data-entity-1="WebVerifiableHistoryUpdater" data-entity-2="DidLogUpdaterStrategy" data-source-line="250" data-uid="lnk60" id="link_WebVerifiableHistoryUpdater_DidLogUpdaterStrategy"><path codeLine="250" d="M265.96,520.4667 C276.74,523.3067 286.9467,527.98 295.2733,535.3333 C322.52,559.4067 289.3867,589.1267 315.2733,614.6667 C324.3733,623.6533 334.14,612.3733 343.2733,621.3333 C368.6133,646.1933 337.48,674.2667 363.2733,698.6667 C376.1467,710.8467 381.8442,715.1156 399.2175,718.3623" fill="none" id="WebVerifiableHistoryUpdater-to-DidLogUpdaterStrategy" style="stroke:#181818;stroke-width:0.6667;stroke-dasharray:4.6667,4.6667;"/><polygon fill="none" points="411.0133,720.5667,399.9523,714.4304,398.4828,722.2942,411.0133,720.5667" style="stroke:#181818;stroke-width:0.6667;"/></g><!--SRC=[xLhTRvj847y-_WgalhINCrUdrvCkgY8bSKvfsYHMyoLT7wA57Tlh06knYrqhL__jDu2nbnZZ1Mp7FVMbZM7dUtx3p80B7MbARWQisvCcPG4uad7V40vnmTp__PrX68vBX32TdaMentpBxbjYnCQXHHcLdBis_sQTqlttxvj_jGFEErUTDXS2X40-v_VNrwphG_3H6xZca_7BamUon-btSq-4Wm4F950yS-HsUS1apnFcwpVcWTadGsA5ahdMDKZZUoaTxY1W7UQGo8oBMDWd6ADYGqOLDJeCNDJYrIFU8on8PGfmGbHaR7rAhYid1rCM2qTJtgfnNK2RYOJ8U2B30CpNve04nFjwt4G6Nu_DD_5_MHgfweuQN8IkP3OHa7ZbMWRCxweaJAYdFlhehLGG_jbyxibOg8tk0k8hR2R3IEnuGSNVqj_xSvLpg4Ve1MW7R8ZseZf7eWrUokjlvi9C3SQjw7VCPyWPLIr9c8IsovnoF3IJu_pa-eo87eRlIPVaWZ1VpPL93zn1nWNf3VHVbEpAFKqH2tWv2O187cIHuaGNPncKP45pbWzfc5fX4EVDVkegoJomqgknmnpkMJxpx51GOVL7qegnYG2yYHLcleIWGnmegVGCv5crCP_FJuvEE7Bz9fCCpYh01LXzXrZpKvdwW2nJcr726H34M3ENoUnsRiekde_nS8o8-VEFso-VAmShGUlKx6akDC81JN0W5kfO1hXtn6Lq5jCq3it2AANc9O7VdwT0FZBtihXUXv0oaBkX8pMTKmSX7GIPufprr0KPgAT3sGDVpcjYqU4E3nouGglZQf87LStmP167EJAhFpv82t-RytfiVlX0OO3FJQIWXuTcEJvJP__3qVajF7k3eCqYE7EhbDmMevzvLy-AAjJLTLUalS8oWQAIP9XMYQAiyZW5rvfHdFgXLo8XMq2mlnakrbYQtbXUPxLSFrbajFJvjJgE6bfj9e7cWhDfKE0K7V8LhgYamG-OXRTn4TfQMTIgUGqxP2wTMTIEV0gef9W_kRkSTrsmkeBxrZd-SsNtSLfOinUL54Zqhed7B9FgM9oiq6OpE4o4Li9W7ca9_6b9he6z4WrduKINAUFc4x653B1oL9l1dj6NdSSov7LcCyrIuYHTivL4QTfifGttxlHSFggpfFfihYrJeRl9DgnC8kV62zaWr-vuUIBNwkOgSQhfZjAfgxHbQlfMwywA2VLBu6IZtLVrl56SjJftwZLoMgpqFLfDisqduxGxst8TNLkHrEwQbXELmCZ6kgBg-9Z6RpKsgZTNAzbKnCGscYuDFFIns_U8ZzrLJk-bJ0OADFRweqVLlFJo8unBYv-D1UW5b4ao4AIfMOl26iYZnHrrwW168yuF0bl5H-OyYeWjdb68K9-epuiMUXzf3jU9Sk0ozEpu3G0cfWeV4a0xW2zSHYtyxHocvNVnITkOCaEHHzCYEPsdSYboP1Vcizfc0WvTfQUqJEHlMlSFRn_UALVkJu_lpXwQ3s_BHVmIyoft0bMbpHyRKR2E5tRnYLloKd5QOUFN00LbTY8SbaklLtxL4JXsrKQN2GbfjDYQeQKDy5ZcDKV2uXxi1Eh4Tk6C2MmknjLvZi0Uzd9vxjv6UCtJoS-bgsugQEnYVouVjnQDBUya8zJT5i7g1rzUDbnEw6NMo9nF6vuHw1x-d-y5CPNhVspIQFnxQAxdYv5rg6DPAzLPpi5OpuSl6ZeKCZ6gVSpmQwDHsN9C3A7XWW86cpLQUSdTQDII4xrTNuiU6WONBYADCYzHNzfeLPVIXkTiqWpTTtSlRNYgHscZdwr7ZEfl65xK1JKronjg3qoQ_ZRgBQzto3ELj5kZTvvjKtV8CwKrg-MLXQMMhhobMv63fCaIHirH_4L3ibgzpJxEzCRJ7NNHTXz-gsV77NNJsXwLHW_LCEF9L2H_9sEHCFu3]--></g></svg>